G04 #@! TF.FileFunction,Soldermask,Bot*
%FSLAX46Y46*%
G04 Gerber Fmt 4.6, Leading zero omitted, Abs format (unit mm)*
G04 Created by KiCad (PCBNEW 4.0.0-rc2-stable) date 17.11.2015 23:45:42*
%MOMM*%
G01*
G04 APERTURE LIST*
%ADD10C,0.100000*%
%ADD11C,1.524000*%
%ADD12C,3.500000*%
%ADD13C,3.000000*%
%ADD14C,1.700000*%
%ADD15R,2.032000X2.032000*%
%ADD16O,2.032000X2.032000*%
%ADD17R,1.727200X2.032000*%
%ADD18O,1.727200X2.032000*%
%ADD19C,1.422400*%
%ADD20C,3.810000*%
%ADD21R,1.397000X1.397000*%
%ADD22C,1.397000*%
%ADD23C,1.501140*%
%ADD24R,1.778000X1.778000*%
%ADD25C,1.778000*%
%ADD26R,8.890000X8.890000*%
%ADD27R,2.032000X1.727200*%
%ADD28O,2.032000X1.727200*%
%ADD29C,2.100000*%
%ADD30C,0.254000*%
G04 APERTURE END LIST*
D10*
D11*
X155330000Y-58399000D03*
X157870000Y-58399000D03*
X157870000Y-56400020D03*
X155330000Y-56400020D03*
D12*
X150600520Y-53700000D03*
X162599480Y-53700000D03*
D13*
X113200000Y-47750000D03*
X101550000Y-47750000D03*
X113250000Y-54100000D03*
X101550000Y-54100000D03*
X113250000Y-60450000D03*
X101550000Y-60450000D03*
D14*
X110900000Y-137000000D03*
X113400000Y-137000000D03*
X115900000Y-137000000D03*
X110900000Y-134500000D03*
X113400000Y-134500000D03*
X115900000Y-134500000D03*
X129500000Y-137000000D03*
X132000000Y-137000000D03*
X134500000Y-137000000D03*
X129500000Y-134500000D03*
X132000000Y-134500000D03*
X134500000Y-134500000D03*
X148100000Y-137000000D03*
X150600000Y-137000000D03*
X153100000Y-137000000D03*
X148100000Y-134500000D03*
X150600000Y-134500000D03*
X153100000Y-134500000D03*
D15*
X133985000Y-63500000D03*
D16*
X133985000Y-66040000D03*
D17*
X147955000Y-117475000D03*
D18*
X150495000Y-117475000D03*
X153035000Y-117475000D03*
D17*
X129540000Y-117475000D03*
D18*
X132080000Y-117475000D03*
X134620000Y-117475000D03*
D19*
X159385000Y-64135000D03*
X154305000Y-64135000D03*
D20*
X139065000Y-66675000D03*
X139065000Y-71755000D03*
X139065000Y-81915000D03*
X139065000Y-86995000D03*
D21*
X133985000Y-80645000D03*
D22*
X133985000Y-88265000D03*
D21*
X133985000Y-69850000D03*
D22*
X133985000Y-77470000D03*
D23*
X126365000Y-86995000D03*
X126365000Y-81915000D03*
X115570000Y-86995000D03*
X115570000Y-81915000D03*
X104775000Y-86995000D03*
X104775000Y-81915000D03*
X115570000Y-76200000D03*
X115570000Y-71120000D03*
X126365000Y-76200000D03*
X126365000Y-71120000D03*
X104775000Y-76200000D03*
X104775000Y-71120000D03*
D24*
X144780000Y-113030000D03*
D25*
X139700000Y-113030000D03*
X142240000Y-113030000D03*
D26*
X142240000Y-96520000D03*
D24*
X130175000Y-113030000D03*
D25*
X125095000Y-113030000D03*
X127635000Y-113030000D03*
D26*
X127635000Y-96520000D03*
D27*
X116967000Y-64770000D03*
D28*
X116967000Y-62230000D03*
X116967000Y-59690000D03*
D27*
X116967000Y-56642000D03*
D28*
X116967000Y-54102000D03*
X116967000Y-51562000D03*
D11*
X141800000Y-53900000D03*
X144300000Y-53900000D03*
X139300000Y-53900000D03*
D29*
X141800000Y-50000000D03*
X146400000Y-56000000D03*
X137200000Y-56000000D03*
D30*
G36*
X169073000Y-142673000D02*
X166927000Y-142673000D01*
X166927000Y-43327000D01*
X169073000Y-43327000D01*
X169073000Y-142673000D01*
X169073000Y-142673000D01*
G37*
X169073000Y-142673000D02*
X166927000Y-142673000D01*
X166927000Y-43327000D01*
X169073000Y-43327000D01*
X169073000Y-142673000D01*
G36*
X97073000Y-142673000D02*
X94927000Y-142673000D01*
X94927000Y-43327000D01*
X97073000Y-43327000D01*
X97073000Y-142673000D01*
X97073000Y-142673000D01*
G37*
X97073000Y-142673000D02*
X94927000Y-142673000D01*
X94927000Y-43327000D01*
X97073000Y-43327000D01*
X97073000Y-142673000D01*
M02*
