G04 #@! TF.FileFunction,Soldermask,Top*
%FSLAX46Y46*%
G04 Gerber Fmt 4.6, Leading zero omitted, Abs format (unit mm)*
G04 Created by KiCad (PCBNEW 4.0.0-rc2-stable) date 17.11.2015 23:45:42*
%MOMM*%
G01*
G04 APERTURE LIST*
%ADD10C,0.100000*%
%ADD11C,1.524000*%
%ADD12C,3.500000*%
%ADD13C,3.000000*%
%ADD14C,1.700000*%
%ADD15R,2.032000X2.032000*%
%ADD16O,2.032000X2.032000*%
%ADD17R,1.727200X2.032000*%
%ADD18O,1.727200X2.032000*%
%ADD19C,1.422400*%
%ADD20R,2.200000X0.720000*%
%ADD21R,1.998980X0.449580*%
%ADD22R,0.449580X1.998980*%
%ADD23R,1.700000X2.000000*%
%ADD24C,3.810000*%
%ADD25R,1.397000X1.397000*%
%ADD26C,1.397000*%
%ADD27R,1.600200X3.599180*%
%ADD28C,1.501140*%
%ADD29R,1.250000X1.000000*%
%ADD30R,1.000000X1.250000*%
%ADD31R,0.700000X1.300000*%
%ADD32R,1.300000X0.700000*%
%ADD33R,1.778000X1.778000*%
%ADD34C,1.778000*%
%ADD35R,8.890000X8.890000*%
%ADD36R,2.032000X1.727200*%
%ADD37O,2.032000X1.727200*%
%ADD38C,2.100000*%
%ADD39C,0.254000*%
G04 APERTURE END LIST*
D10*
D11*
X155330000Y-58399000D03*
X157870000Y-58399000D03*
X157870000Y-56400020D03*
X155330000Y-56400020D03*
D12*
X150600520Y-53700000D03*
X162599480Y-53700000D03*
D13*
X113200000Y-47750000D03*
X101550000Y-47750000D03*
X113250000Y-54100000D03*
X101550000Y-54100000D03*
X113250000Y-60450000D03*
X101550000Y-60450000D03*
D14*
X110900000Y-137000000D03*
X113400000Y-137000000D03*
X115900000Y-137000000D03*
X110900000Y-134500000D03*
X113400000Y-134500000D03*
X115900000Y-134500000D03*
X129500000Y-137000000D03*
X132000000Y-137000000D03*
X134500000Y-137000000D03*
X129500000Y-134500000D03*
X132000000Y-134500000D03*
X134500000Y-134500000D03*
X148100000Y-137000000D03*
X150600000Y-137000000D03*
X153100000Y-137000000D03*
X148100000Y-134500000D03*
X150600000Y-134500000D03*
X153100000Y-134500000D03*
D15*
X133985000Y-63500000D03*
D16*
X133985000Y-66040000D03*
D17*
X147955000Y-117475000D03*
D18*
X150495000Y-117475000D03*
X153035000Y-117475000D03*
D17*
X129540000Y-117475000D03*
D18*
X132080000Y-117475000D03*
X134620000Y-117475000D03*
D19*
X159385000Y-64135000D03*
X154305000Y-64135000D03*
D20*
X110615000Y-125095000D03*
X110615000Y-126365000D03*
X110615000Y-127635000D03*
X110615000Y-128905000D03*
X116715000Y-125095000D03*
X116715000Y-126365000D03*
X116715000Y-127635000D03*
X116715000Y-128905000D03*
X112520000Y-105410000D03*
X112520000Y-106680000D03*
X112520000Y-107950000D03*
X112520000Y-109220000D03*
X118620000Y-105410000D03*
X118620000Y-106680000D03*
X118620000Y-107950000D03*
X118620000Y-109220000D03*
X129030000Y-125095000D03*
X129030000Y-126365000D03*
X129030000Y-127635000D03*
X129030000Y-128905000D03*
X135130000Y-125095000D03*
X135130000Y-126365000D03*
X135130000Y-127635000D03*
X135130000Y-128905000D03*
X101725000Y-105410000D03*
X101725000Y-106680000D03*
X101725000Y-107950000D03*
X101725000Y-109220000D03*
X107825000Y-105410000D03*
X107825000Y-106680000D03*
X107825000Y-107950000D03*
X107825000Y-109220000D03*
X147445000Y-125095000D03*
X147445000Y-126365000D03*
X147445000Y-127635000D03*
X147445000Y-128905000D03*
X153545000Y-125095000D03*
X153545000Y-126365000D03*
X153545000Y-127635000D03*
X153545000Y-128905000D03*
D21*
X161660840Y-74693780D03*
X161660840Y-75493880D03*
X161660840Y-76293980D03*
X161660840Y-77094080D03*
X161660840Y-77894180D03*
X161660840Y-78694280D03*
X161660840Y-79494380D03*
X161660840Y-80294480D03*
X152095200Y-80289400D03*
X152095200Y-74676000D03*
X152095200Y-75488800D03*
X152095200Y-76301600D03*
X152095200Y-77089000D03*
X152095200Y-77901800D03*
X152095200Y-78689200D03*
X152095200Y-79502000D03*
D22*
X159669480Y-82296000D03*
X158871920Y-82296000D03*
X158069280Y-82296000D03*
X157271720Y-82296000D03*
X156469080Y-82296000D03*
X155671520Y-82296000D03*
X154868880Y-82296000D03*
X154071320Y-82296000D03*
X159664400Y-72694800D03*
X158877000Y-72694800D03*
X158064200Y-72694800D03*
X157276800Y-72694800D03*
X156489400Y-72694800D03*
X155676600Y-72694800D03*
X154863800Y-72694800D03*
X154051000Y-72694800D03*
D23*
X114935000Y-101060000D03*
X114935000Y-97060000D03*
X112395000Y-101060000D03*
X112395000Y-97060000D03*
X104140000Y-100425000D03*
X104140000Y-96425000D03*
X101600000Y-100425000D03*
X101600000Y-96425000D03*
D24*
X139065000Y-66675000D03*
X139065000Y-71755000D03*
X139065000Y-81915000D03*
X139065000Y-86995000D03*
D25*
X133985000Y-80645000D03*
D26*
X133985000Y-88265000D03*
D25*
X133985000Y-69850000D03*
D26*
X133985000Y-77470000D03*
D27*
X153035000Y-104564180D03*
X153035000Y-110065820D03*
X160655000Y-104564180D03*
X160655000Y-110065820D03*
D28*
X126365000Y-86995000D03*
X126365000Y-81915000D03*
X115570000Y-86995000D03*
X115570000Y-81915000D03*
X104775000Y-86995000D03*
X104775000Y-81915000D03*
D29*
X147320000Y-112125000D03*
X147320000Y-110125000D03*
X137160000Y-112125000D03*
X137160000Y-110125000D03*
D28*
X115570000Y-76200000D03*
X115570000Y-71120000D03*
X126365000Y-76200000D03*
X126365000Y-71120000D03*
X104775000Y-76200000D03*
X104775000Y-71120000D03*
D30*
X159655000Y-67945000D03*
X161655000Y-67945000D03*
X154035000Y-67945000D03*
X152035000Y-67945000D03*
X131810000Y-90170000D03*
X129810000Y-90170000D03*
D29*
X132715000Y-110125000D03*
X132715000Y-112125000D03*
D30*
X139335000Y-59055000D03*
X141335000Y-59055000D03*
X146574000Y-73406000D03*
X148574000Y-73406000D03*
D29*
X162560000Y-85995000D03*
X162560000Y-87995000D03*
X143383000Y-78121000D03*
X143383000Y-80121000D03*
X154940000Y-85995000D03*
X154940000Y-87995000D03*
X158750000Y-85995000D03*
X158750000Y-87995000D03*
X160655000Y-85995000D03*
X160655000Y-87995000D03*
X159385000Y-100695000D03*
X159385000Y-98695000D03*
X154305000Y-100695000D03*
X154305000Y-98695000D03*
X156845000Y-122825000D03*
X156845000Y-124825000D03*
X106680000Y-99965000D03*
X106680000Y-101965000D03*
D30*
X105680000Y-113665000D03*
X107680000Y-113665000D03*
X148955000Y-122555000D03*
X146955000Y-122555000D03*
D29*
X144145000Y-129270000D03*
X144145000Y-127270000D03*
X101600000Y-114030000D03*
X101600000Y-112030000D03*
D30*
X152035000Y-122555000D03*
X154035000Y-122555000D03*
D29*
X138430000Y-122825000D03*
X138430000Y-124825000D03*
X117475000Y-100600000D03*
X117475000Y-102600000D03*
D30*
X116475000Y-113665000D03*
X118475000Y-113665000D03*
X130540000Y-122555000D03*
X128540000Y-122555000D03*
D29*
X125730000Y-129270000D03*
X125730000Y-127270000D03*
X112395000Y-114030000D03*
X112395000Y-112030000D03*
D30*
X133620000Y-122555000D03*
X135620000Y-122555000D03*
D29*
X120015000Y-122825000D03*
X120015000Y-124825000D03*
D30*
X112125000Y-122555000D03*
X110125000Y-122555000D03*
D29*
X107315000Y-129270000D03*
X107315000Y-127270000D03*
D30*
X115205000Y-122555000D03*
X117205000Y-122555000D03*
D31*
X157795000Y-67945000D03*
X155895000Y-67945000D03*
X153985000Y-69850000D03*
X152085000Y-69850000D03*
X146624000Y-75438000D03*
X148524000Y-75438000D03*
X148524000Y-77470000D03*
X146624000Y-77470000D03*
X148524000Y-79502000D03*
X146624000Y-79502000D03*
D32*
X159385000Y-96835000D03*
X159385000Y-94935000D03*
X154305000Y-96835000D03*
X154305000Y-94935000D03*
X161925000Y-100645000D03*
X161925000Y-98745000D03*
X151765000Y-100645000D03*
X151765000Y-98745000D03*
X144145000Y-124775000D03*
X144145000Y-122875000D03*
D31*
X148905000Y-120650000D03*
X147005000Y-120650000D03*
D32*
X156845000Y-127320000D03*
X156845000Y-129220000D03*
D31*
X152085000Y-120650000D03*
X153985000Y-120650000D03*
X107630000Y-111760000D03*
X105730000Y-111760000D03*
D32*
X125730000Y-124775000D03*
X125730000Y-122875000D03*
D31*
X130490000Y-120650000D03*
X128590000Y-120650000D03*
D32*
X138430000Y-127320000D03*
X138430000Y-129220000D03*
D31*
X133670000Y-120650000D03*
X135570000Y-120650000D03*
X118425000Y-111760000D03*
X116525000Y-111760000D03*
D32*
X107315000Y-124775000D03*
X107315000Y-122875000D03*
D31*
X112075000Y-120650000D03*
X110175000Y-120650000D03*
D32*
X120015000Y-127320000D03*
X120015000Y-129220000D03*
D31*
X115255000Y-120650000D03*
X117155000Y-120650000D03*
D33*
X144780000Y-113030000D03*
D34*
X139700000Y-113030000D03*
X142240000Y-113030000D03*
D35*
X142240000Y-96520000D03*
D33*
X130175000Y-113030000D03*
D34*
X125095000Y-113030000D03*
X127635000Y-113030000D03*
D35*
X127635000Y-96520000D03*
D36*
X116967000Y-64770000D03*
D37*
X116967000Y-62230000D03*
X116967000Y-59690000D03*
D36*
X116967000Y-56642000D03*
D37*
X116967000Y-54102000D03*
X116967000Y-51562000D03*
D11*
X141800000Y-53900000D03*
X144300000Y-53900000D03*
X139300000Y-53900000D03*
D38*
X141800000Y-50000000D03*
X146400000Y-56000000D03*
X137200000Y-56000000D03*
D39*
G36*
X97073000Y-142673000D02*
X94927000Y-142673000D01*
X94927000Y-43327000D01*
X97073000Y-43327000D01*
X97073000Y-142673000D01*
X97073000Y-142673000D01*
G37*
X97073000Y-142673000D02*
X94927000Y-142673000D01*
X94927000Y-43327000D01*
X97073000Y-43327000D01*
X97073000Y-142673000D01*
G36*
X169073000Y-142673000D02*
X166927000Y-142673000D01*
X166927000Y-43327000D01*
X169073000Y-43327000D01*
X169073000Y-142673000D01*
X169073000Y-142673000D01*
G37*
X169073000Y-142673000D02*
X166927000Y-142673000D01*
X166927000Y-43327000D01*
X169073000Y-43327000D01*
X169073000Y-142673000D01*
M02*
