G04 #@! TF.FileFunction,Legend,Top*
%FSLAX46Y46*%
G04 Gerber Fmt 4.6, Leading zero omitted, Abs format (unit mm)*
G04 Created by KiCad (PCBNEW 4.0.0-rc2-stable) date 17.11.2015 23:45:42*
%MOMM*%
G01*
G04 APERTURE LIST*
%ADD10C,0.100000*%
%ADD11C,0.190500*%
%ADD12C,0.300000*%
%ADD13C,0.150000*%
%ADD14C,0.200000*%
%ADD15C,1.524000*%
%ADD16C,3.500000*%
%ADD17C,3.000000*%
%ADD18C,1.700000*%
%ADD19R,2.032000X2.032000*%
%ADD20O,2.032000X2.032000*%
%ADD21R,1.727200X2.032000*%
%ADD22O,1.727200X2.032000*%
%ADD23C,1.422400*%
%ADD24R,2.200000X0.720000*%
%ADD25R,1.998980X0.449580*%
%ADD26R,0.449580X1.998980*%
%ADD27R,1.700000X2.000000*%
%ADD28C,3.810000*%
%ADD29R,1.397000X1.397000*%
%ADD30C,1.397000*%
%ADD31R,1.600200X3.599180*%
%ADD32C,1.501140*%
%ADD33R,1.250000X1.000000*%
%ADD34R,1.000000X1.250000*%
%ADD35R,0.700000X1.300000*%
%ADD36R,1.300000X0.700000*%
%ADD37R,1.778000X1.778000*%
%ADD38C,1.778000*%
%ADD39R,8.890000X8.890000*%
%ADD40R,2.032000X1.727200*%
%ADD41O,2.032000X1.727200*%
%ADD42C,2.100000*%
%ADD43C,0.254000*%
G04 APERTURE END LIST*
D10*
D11*
X119253000Y-65894857D02*
X119253000Y-65532000D01*
X119470714Y-65967429D02*
X118708714Y-65713429D01*
X119470714Y-65459429D01*
X119470714Y-65205428D02*
X118708714Y-65205428D01*
X119253000Y-64951428D01*
X118708714Y-64697428D01*
X119470714Y-64697428D01*
X119470714Y-64334571D02*
X118708714Y-64334571D01*
X118708714Y-64044286D01*
X118745000Y-63971714D01*
X118781286Y-63935429D01*
X118853857Y-63899143D01*
X118962714Y-63899143D01*
X119035286Y-63935429D01*
X119071571Y-63971714D01*
X119107857Y-64044286D01*
X119107857Y-64334571D01*
X119253000Y-57385857D02*
X119253000Y-57023000D01*
X119470714Y-57458429D02*
X118708714Y-57204429D01*
X119470714Y-56950429D01*
X119470714Y-56696428D02*
X118708714Y-56696428D01*
X119253000Y-56442428D01*
X118708714Y-56188428D01*
X119470714Y-56188428D01*
X119470714Y-55825571D02*
X118708714Y-55825571D01*
X118708714Y-55535286D01*
X118745000Y-55462714D01*
X118781286Y-55426429D01*
X118853857Y-55390143D01*
X118962714Y-55390143D01*
X119035286Y-55426429D01*
X119071571Y-55462714D01*
X119107857Y-55535286D01*
X119107857Y-55825571D01*
X119470714Y-52469142D02*
X118708714Y-52469142D01*
X118708714Y-52287714D01*
X118745000Y-52178857D01*
X118817571Y-52106285D01*
X118890143Y-52070000D01*
X119035286Y-52033714D01*
X119144143Y-52033714D01*
X119289286Y-52070000D01*
X119361857Y-52106285D01*
X119434429Y-52178857D01*
X119470714Y-52287714D01*
X119470714Y-52469142D01*
X119253000Y-51743428D02*
X119253000Y-51380571D01*
X119470714Y-51816000D02*
X118708714Y-51562000D01*
X119470714Y-51308000D01*
X119398143Y-50618571D02*
X119434429Y-50654857D01*
X119470714Y-50763714D01*
X119470714Y-50836285D01*
X119434429Y-50945142D01*
X119361857Y-51017714D01*
X119289286Y-51053999D01*
X119144143Y-51090285D01*
X119035286Y-51090285D01*
X118890143Y-51053999D01*
X118817571Y-51017714D01*
X118745000Y-50945142D01*
X118708714Y-50836285D01*
X118708714Y-50763714D01*
X118745000Y-50654857D01*
X118781286Y-50618571D01*
X119597714Y-60470142D02*
X118835714Y-60470142D01*
X118835714Y-60288714D01*
X118872000Y-60179857D01*
X118944571Y-60107285D01*
X119017143Y-60071000D01*
X119162286Y-60034714D01*
X119271143Y-60034714D01*
X119416286Y-60071000D01*
X119488857Y-60107285D01*
X119561429Y-60179857D01*
X119597714Y-60288714D01*
X119597714Y-60470142D01*
X119380000Y-59744428D02*
X119380000Y-59381571D01*
X119597714Y-59817000D02*
X118835714Y-59563000D01*
X119597714Y-59309000D01*
X119525143Y-58619571D02*
X119561429Y-58655857D01*
X119597714Y-58764714D01*
X119597714Y-58837285D01*
X119561429Y-58946142D01*
X119488857Y-59018714D01*
X119416286Y-59054999D01*
X119271143Y-59091285D01*
X119162286Y-59091285D01*
X119017143Y-59054999D01*
X118944571Y-59018714D01*
X118872000Y-58946142D01*
X118835714Y-58837285D01*
X118835714Y-58764714D01*
X118872000Y-58655857D01*
X118908286Y-58619571D01*
D12*
X148421429Y-115778571D02*
X147707143Y-115778571D01*
X147707143Y-114278571D01*
X150850000Y-114350000D02*
X150707143Y-114278571D01*
X150492857Y-114278571D01*
X150278572Y-114350000D01*
X150135714Y-114492857D01*
X150064286Y-114635714D01*
X149992857Y-114921429D01*
X149992857Y-115135714D01*
X150064286Y-115421429D01*
X150135714Y-115564286D01*
X150278572Y-115707143D01*
X150492857Y-115778571D01*
X150635714Y-115778571D01*
X150850000Y-115707143D01*
X150921429Y-115635714D01*
X150921429Y-115135714D01*
X150635714Y-115135714D01*
X153564286Y-115778571D02*
X153064286Y-115064286D01*
X152707143Y-115778571D02*
X152707143Y-114278571D01*
X153278571Y-114278571D01*
X153421429Y-114350000D01*
X153492857Y-114421429D01*
X153564286Y-114564286D01*
X153564286Y-114778571D01*
X153492857Y-114921429D01*
X153421429Y-114992857D01*
X153278571Y-115064286D01*
X152707143Y-115064286D01*
X129921429Y-115878571D02*
X129207143Y-115878571D01*
X129207143Y-114378571D01*
X132350000Y-114450000D02*
X132207143Y-114378571D01*
X131992857Y-114378571D01*
X131778572Y-114450000D01*
X131635714Y-114592857D01*
X131564286Y-114735714D01*
X131492857Y-115021429D01*
X131492857Y-115235714D01*
X131564286Y-115521429D01*
X131635714Y-115664286D01*
X131778572Y-115807143D01*
X131992857Y-115878571D01*
X132135714Y-115878571D01*
X132350000Y-115807143D01*
X132421429Y-115735714D01*
X132421429Y-115235714D01*
X132135714Y-115235714D01*
X135064286Y-115878571D02*
X134564286Y-115164286D01*
X134207143Y-115878571D02*
X134207143Y-114378571D01*
X134778571Y-114378571D01*
X134921429Y-114450000D01*
X134992857Y-114521429D01*
X135064286Y-114664286D01*
X135064286Y-114878571D01*
X134992857Y-115021429D01*
X134921429Y-115092857D01*
X134778571Y-115164286D01*
X134207143Y-115164286D01*
D13*
X162696000Y-43413000D02*
X150504000Y-43413000D01*
X150504000Y-43413000D02*
X150504000Y-60431000D01*
X150504000Y-60431000D02*
X162696000Y-60431000D01*
X162696000Y-60431000D02*
X162696000Y-43413000D01*
X115400000Y-43500000D02*
X115400000Y-67300000D01*
X115400000Y-67300000D02*
X99400000Y-67300000D01*
X99400000Y-67300000D02*
X99400000Y-43500000D01*
X99400000Y-43500000D02*
X115400000Y-43500000D01*
X117900000Y-142000000D02*
X117900000Y-132400000D01*
X117900000Y-132400000D02*
X108900000Y-132400000D01*
X108900000Y-132400000D02*
X108900000Y-142000000D01*
X108900000Y-142000000D02*
X117900000Y-142000000D01*
X136500000Y-142000000D02*
X136500000Y-132400000D01*
X136500000Y-132400000D02*
X127500000Y-132400000D01*
X127500000Y-132400000D02*
X127500000Y-142000000D01*
X127500000Y-142000000D02*
X136500000Y-142000000D01*
X155100000Y-142000000D02*
X155100000Y-132400000D01*
X155100000Y-132400000D02*
X146100000Y-132400000D01*
X146100000Y-132400000D02*
X146100000Y-142000000D01*
X146100000Y-142000000D02*
X155100000Y-142000000D01*
X135255000Y-64770000D02*
X132715000Y-64770000D01*
X135255000Y-62230000D02*
X132715000Y-62230000D01*
X132715000Y-62230000D02*
X132715000Y-64770000D01*
X132715000Y-64770000D02*
X132715000Y-67310000D01*
X132715000Y-67310000D02*
X135255000Y-67310000D01*
X135255000Y-67310000D02*
X135255000Y-62230000D01*
X149225000Y-118745000D02*
X154305000Y-118745000D01*
X154305000Y-118745000D02*
X154305000Y-116205000D01*
X154305000Y-116205000D02*
X149225000Y-116205000D01*
X146685000Y-116205000D02*
X149225000Y-116205000D01*
X149225000Y-116205000D02*
X149225000Y-118745000D01*
X146685000Y-116205000D02*
X146685000Y-118745000D01*
X146685000Y-118745000D02*
X149225000Y-118745000D01*
X130810000Y-118745000D02*
X135890000Y-118745000D01*
X135890000Y-118745000D02*
X135890000Y-116205000D01*
X135890000Y-116205000D02*
X130810000Y-116205000D01*
X128270000Y-116205000D02*
X130810000Y-116205000D01*
X130810000Y-116205000D02*
X130810000Y-118745000D01*
X128270000Y-116205000D02*
X128270000Y-118745000D01*
X128270000Y-118745000D02*
X130810000Y-118745000D01*
X160020000Y-61595000D02*
X153670000Y-61595000D01*
X160020000Y-66675000D02*
X153670000Y-66675000D01*
X151130000Y-64135000D02*
G75*
G03X153670000Y-66675000I2540000J0D01*
G01*
X153670000Y-61595000D02*
G75*
G03X151130000Y-64135000I0J-2540000D01*
G01*
X160020000Y-66675000D02*
G75*
G03X162560000Y-64135000I0J2540000D01*
G01*
X162560000Y-64135000D02*
G75*
G03X160020000Y-61595000I-2540000J0D01*
G01*
D14*
X110015000Y-124235000D02*
X109015000Y-125235000D01*
X109015000Y-125235000D02*
X109015000Y-129765000D01*
X109015000Y-129765000D02*
X118315000Y-129765000D01*
X118315000Y-129765000D02*
X118315000Y-124235000D01*
X118315000Y-124235000D02*
X110015000Y-124235000D01*
X111920000Y-104550000D02*
X110920000Y-105550000D01*
X110920000Y-105550000D02*
X110920000Y-110080000D01*
X110920000Y-110080000D02*
X120220000Y-110080000D01*
X120220000Y-110080000D02*
X120220000Y-104550000D01*
X120220000Y-104550000D02*
X111920000Y-104550000D01*
X128430000Y-124235000D02*
X127430000Y-125235000D01*
X127430000Y-125235000D02*
X127430000Y-129765000D01*
X127430000Y-129765000D02*
X136730000Y-129765000D01*
X136730000Y-129765000D02*
X136730000Y-124235000D01*
X136730000Y-124235000D02*
X128430000Y-124235000D01*
X101125000Y-104550000D02*
X100125000Y-105550000D01*
X100125000Y-105550000D02*
X100125000Y-110080000D01*
X100125000Y-110080000D02*
X109425000Y-110080000D01*
X109425000Y-110080000D02*
X109425000Y-104550000D01*
X109425000Y-104550000D02*
X101125000Y-104550000D01*
X146845000Y-124235000D02*
X145845000Y-125235000D01*
X145845000Y-125235000D02*
X145845000Y-129765000D01*
X145845000Y-129765000D02*
X155145000Y-129765000D01*
X155145000Y-129765000D02*
X155145000Y-124235000D01*
X155145000Y-124235000D02*
X146845000Y-124235000D01*
D13*
X151815800Y-74701400D02*
X152958800Y-74701400D01*
X151815800Y-80238600D02*
X152933400Y-80238600D01*
X151815800Y-74701400D02*
X151815800Y-80238600D01*
X154051000Y-73507600D02*
X154051000Y-72415400D01*
X159664400Y-73482200D02*
X159664400Y-72415400D01*
X159689800Y-72415400D02*
X154051000Y-72390000D01*
X159639000Y-82499200D02*
X154127200Y-82524600D01*
X160731200Y-80746600D02*
X160731200Y-73558400D01*
X154101800Y-82499200D02*
X154101800Y-81457800D01*
X160096200Y-81356200D02*
X153035000Y-81356200D01*
X152984200Y-73533000D02*
X152984200Y-81254600D01*
X160731200Y-73533000D02*
X153111200Y-73533000D01*
X161874200Y-80314800D02*
X161874200Y-74676000D01*
X161874200Y-74676000D02*
X160731200Y-74676000D01*
X160721040Y-80772000D02*
X160136840Y-81356200D01*
X161869120Y-80314800D02*
X160721040Y-80314800D01*
X159639000Y-81356200D02*
X159639000Y-82504280D01*
X160163966Y-80330040D02*
G75*
G03X160163966Y-80330040I-479246J0D01*
G01*
X116010000Y-98060000D02*
X116010000Y-100060000D01*
X113860000Y-100060000D02*
X113860000Y-98060000D01*
X113470000Y-98060000D02*
X113470000Y-100060000D01*
X111320000Y-100060000D02*
X111320000Y-98060000D01*
X105215000Y-97425000D02*
X105215000Y-99425000D01*
X103065000Y-99425000D02*
X103065000Y-97425000D01*
X102675000Y-97425000D02*
X102675000Y-99425000D01*
X100525000Y-99425000D02*
X100525000Y-97425000D01*
X141605000Y-64135000D02*
X141605000Y-89535000D01*
X141605000Y-89535000D02*
X136525000Y-89535000D01*
X136525000Y-89535000D02*
X136525000Y-64135000D01*
X136525000Y-64135000D02*
X141605000Y-64135000D01*
X141605000Y-71755000D02*
X136525000Y-71755000D01*
X141605000Y-81915000D02*
X136525000Y-81915000D01*
X133985000Y-80645000D02*
X133985000Y-81407000D01*
X133985000Y-81407000D02*
X132969000Y-81407000D01*
X132969000Y-81407000D02*
X132969000Y-87503000D01*
X132969000Y-87503000D02*
X133985000Y-87503000D01*
X133985000Y-87503000D02*
X133985000Y-88265000D01*
X133985000Y-87503000D02*
X135001000Y-87503000D01*
X135001000Y-87503000D02*
X135001000Y-81407000D01*
X135001000Y-81407000D02*
X133985000Y-81407000D01*
X132969000Y-81915000D02*
X135001000Y-81915000D01*
X135001000Y-82169000D02*
X132969000Y-82169000D01*
X133985000Y-69850000D02*
X133985000Y-70612000D01*
X133985000Y-70612000D02*
X132969000Y-70612000D01*
X132969000Y-70612000D02*
X132969000Y-76708000D01*
X132969000Y-76708000D02*
X133985000Y-76708000D01*
X133985000Y-76708000D02*
X133985000Y-77470000D01*
X133985000Y-76708000D02*
X135001000Y-76708000D01*
X135001000Y-76708000D02*
X135001000Y-70612000D01*
X135001000Y-70612000D02*
X133985000Y-70612000D01*
X132969000Y-71120000D02*
X135001000Y-71120000D01*
X135001000Y-71374000D02*
X132969000Y-71374000D01*
X152273000Y-110236000D02*
X153797000Y-110236000D01*
X154178000Y-110109000D02*
X151892000Y-110109000D01*
X151638000Y-109982000D02*
X154432000Y-109982000D01*
X154686000Y-109855000D02*
X151384000Y-109855000D01*
X151257000Y-109728000D02*
X154813000Y-109728000D01*
X156083000Y-107315000D02*
G75*
G03X156083000Y-107315000I-3048000J0D01*
G01*
X149733000Y-110617000D02*
X156337000Y-110617000D01*
X156337000Y-110617000D02*
X156337000Y-104775000D01*
X156337000Y-104775000D02*
X155575000Y-104013000D01*
X155575000Y-104013000D02*
X150495000Y-104013000D01*
X150495000Y-104013000D02*
X149733000Y-104775000D01*
X149733000Y-104775000D02*
X149733000Y-110617000D01*
X153035000Y-105156000D02*
X153035000Y-105918000D01*
X152654000Y-105537000D02*
X153416000Y-105537000D01*
X159893000Y-110236000D02*
X161417000Y-110236000D01*
X161798000Y-110109000D02*
X159512000Y-110109000D01*
X159258000Y-109982000D02*
X162052000Y-109982000D01*
X162306000Y-109855000D02*
X159004000Y-109855000D01*
X158877000Y-109728000D02*
X162433000Y-109728000D01*
X163703000Y-107315000D02*
G75*
G03X163703000Y-107315000I-3048000J0D01*
G01*
X157353000Y-110617000D02*
X163957000Y-110617000D01*
X163957000Y-110617000D02*
X163957000Y-104775000D01*
X163957000Y-104775000D02*
X163195000Y-104013000D01*
X163195000Y-104013000D02*
X158115000Y-104013000D01*
X158115000Y-104013000D02*
X157353000Y-104775000D01*
X157353000Y-104775000D02*
X157353000Y-110617000D01*
X160655000Y-105156000D02*
X160655000Y-105918000D01*
X160274000Y-105537000D02*
X161036000Y-105537000D01*
X129413000Y-81915000D02*
X128397000Y-81915000D01*
X128905000Y-81407000D02*
X128905000Y-82423000D01*
X131445000Y-84455000D02*
G75*
G03X131445000Y-84455000I-5080000J0D01*
G01*
X118618000Y-81915000D02*
X117602000Y-81915000D01*
X118110000Y-81407000D02*
X118110000Y-82423000D01*
X120650000Y-84455000D02*
G75*
G03X120650000Y-84455000I-5080000J0D01*
G01*
X107823000Y-81915000D02*
X106807000Y-81915000D01*
X107315000Y-81407000D02*
X107315000Y-82423000D01*
X109855000Y-84455000D02*
G75*
G03X109855000Y-84455000I-5080000J0D01*
G01*
X146470000Y-110625000D02*
X146470000Y-111625000D01*
X148170000Y-111625000D02*
X148170000Y-110625000D01*
X136310000Y-110625000D02*
X136310000Y-111625000D01*
X138010000Y-111625000D02*
X138010000Y-110625000D01*
X118618000Y-71120000D02*
X117602000Y-71120000D01*
X118110000Y-70612000D02*
X118110000Y-71628000D01*
X120650000Y-73660000D02*
G75*
G03X120650000Y-73660000I-5080000J0D01*
G01*
X129413000Y-71120000D02*
X128397000Y-71120000D01*
X128905000Y-70612000D02*
X128905000Y-71628000D01*
X131445000Y-73660000D02*
G75*
G03X131445000Y-73660000I-5080000J0D01*
G01*
X107823000Y-71120000D02*
X106807000Y-71120000D01*
X107315000Y-70612000D02*
X107315000Y-71628000D01*
X109855000Y-73660000D02*
G75*
G03X109855000Y-73660000I-5080000J0D01*
G01*
X161155000Y-67095000D02*
X160155000Y-67095000D01*
X160155000Y-68795000D02*
X161155000Y-68795000D01*
X152535000Y-68795000D02*
X153535000Y-68795000D01*
X153535000Y-67095000D02*
X152535000Y-67095000D01*
X130310000Y-91020000D02*
X131310000Y-91020000D01*
X131310000Y-89320000D02*
X130310000Y-89320000D01*
X133565000Y-111625000D02*
X133565000Y-110625000D01*
X131865000Y-110625000D02*
X131865000Y-111625000D01*
X140835000Y-58205000D02*
X139835000Y-58205000D01*
X139835000Y-59905000D02*
X140835000Y-59905000D01*
X148074000Y-72556000D02*
X147074000Y-72556000D01*
X147074000Y-74256000D02*
X148074000Y-74256000D01*
X163410000Y-87495000D02*
X163410000Y-86495000D01*
X161710000Y-86495000D02*
X161710000Y-87495000D01*
X144233000Y-79621000D02*
X144233000Y-78621000D01*
X142533000Y-78621000D02*
X142533000Y-79621000D01*
X155790000Y-87495000D02*
X155790000Y-86495000D01*
X154090000Y-86495000D02*
X154090000Y-87495000D01*
X159600000Y-87495000D02*
X159600000Y-86495000D01*
X157900000Y-86495000D02*
X157900000Y-87495000D01*
X161505000Y-87495000D02*
X161505000Y-86495000D01*
X159805000Y-86495000D02*
X159805000Y-87495000D01*
X158535000Y-99195000D02*
X158535000Y-100195000D01*
X160235000Y-100195000D02*
X160235000Y-99195000D01*
X153455000Y-99195000D02*
X153455000Y-100195000D01*
X155155000Y-100195000D02*
X155155000Y-99195000D01*
X157695000Y-124325000D02*
X157695000Y-123325000D01*
X155995000Y-123325000D02*
X155995000Y-124325000D01*
X107530000Y-101465000D02*
X107530000Y-100465000D01*
X105830000Y-100465000D02*
X105830000Y-101465000D01*
X107180000Y-112815000D02*
X106180000Y-112815000D01*
X106180000Y-114515000D02*
X107180000Y-114515000D01*
X147455000Y-123405000D02*
X148455000Y-123405000D01*
X148455000Y-121705000D02*
X147455000Y-121705000D01*
X143295000Y-127770000D02*
X143295000Y-128770000D01*
X144995000Y-128770000D02*
X144995000Y-127770000D01*
X100750000Y-112530000D02*
X100750000Y-113530000D01*
X102450000Y-113530000D02*
X102450000Y-112530000D01*
X153535000Y-121705000D02*
X152535000Y-121705000D01*
X152535000Y-123405000D02*
X153535000Y-123405000D01*
X139280000Y-124325000D02*
X139280000Y-123325000D01*
X137580000Y-123325000D02*
X137580000Y-124325000D01*
X118325000Y-102100000D02*
X118325000Y-101100000D01*
X116625000Y-101100000D02*
X116625000Y-102100000D01*
X117975000Y-112815000D02*
X116975000Y-112815000D01*
X116975000Y-114515000D02*
X117975000Y-114515000D01*
X129040000Y-123405000D02*
X130040000Y-123405000D01*
X130040000Y-121705000D02*
X129040000Y-121705000D01*
X124880000Y-127770000D02*
X124880000Y-128770000D01*
X126580000Y-128770000D02*
X126580000Y-127770000D01*
X111545000Y-112530000D02*
X111545000Y-113530000D01*
X113245000Y-113530000D02*
X113245000Y-112530000D01*
X135120000Y-121705000D02*
X134120000Y-121705000D01*
X134120000Y-123405000D02*
X135120000Y-123405000D01*
X120865000Y-124325000D02*
X120865000Y-123325000D01*
X119165000Y-123325000D02*
X119165000Y-124325000D01*
X110625000Y-123405000D02*
X111625000Y-123405000D01*
X111625000Y-121705000D02*
X110625000Y-121705000D01*
X106465000Y-127770000D02*
X106465000Y-128770000D01*
X108165000Y-128770000D02*
X108165000Y-127770000D01*
X116705000Y-121705000D02*
X115705000Y-121705000D01*
X115705000Y-123405000D02*
X116705000Y-123405000D01*
X156245000Y-67070000D02*
X157445000Y-67070000D01*
X157445000Y-68820000D02*
X156245000Y-68820000D01*
X152435000Y-68975000D02*
X153635000Y-68975000D01*
X153635000Y-70725000D02*
X152435000Y-70725000D01*
X148174000Y-76313000D02*
X146974000Y-76313000D01*
X146974000Y-74563000D02*
X148174000Y-74563000D01*
X146974000Y-76595000D02*
X148174000Y-76595000D01*
X148174000Y-78345000D02*
X146974000Y-78345000D01*
X146974000Y-78627000D02*
X148174000Y-78627000D01*
X148174000Y-80377000D02*
X146974000Y-80377000D01*
X160260000Y-95285000D02*
X160260000Y-96485000D01*
X158510000Y-96485000D02*
X158510000Y-95285000D01*
X155180000Y-95285000D02*
X155180000Y-96485000D01*
X153430000Y-96485000D02*
X153430000Y-95285000D01*
X162800000Y-99095000D02*
X162800000Y-100295000D01*
X161050000Y-100295000D02*
X161050000Y-99095000D01*
X152640000Y-99095000D02*
X152640000Y-100295000D01*
X150890000Y-100295000D02*
X150890000Y-99095000D01*
X145020000Y-123225000D02*
X145020000Y-124425000D01*
X143270000Y-124425000D02*
X143270000Y-123225000D01*
X147355000Y-119775000D02*
X148555000Y-119775000D01*
X148555000Y-121525000D02*
X147355000Y-121525000D01*
X155970000Y-128870000D02*
X155970000Y-127670000D01*
X157720000Y-127670000D02*
X157720000Y-128870000D01*
X153635000Y-121525000D02*
X152435000Y-121525000D01*
X152435000Y-119775000D02*
X153635000Y-119775000D01*
X106080000Y-110885000D02*
X107280000Y-110885000D01*
X107280000Y-112635000D02*
X106080000Y-112635000D01*
X126605000Y-123225000D02*
X126605000Y-124425000D01*
X124855000Y-124425000D02*
X124855000Y-123225000D01*
X128940000Y-119775000D02*
X130140000Y-119775000D01*
X130140000Y-121525000D02*
X128940000Y-121525000D01*
X137555000Y-128870000D02*
X137555000Y-127670000D01*
X139305000Y-127670000D02*
X139305000Y-128870000D01*
X135220000Y-121525000D02*
X134020000Y-121525000D01*
X134020000Y-119775000D02*
X135220000Y-119775000D01*
X116875000Y-110885000D02*
X118075000Y-110885000D01*
X118075000Y-112635000D02*
X116875000Y-112635000D01*
X108190000Y-123225000D02*
X108190000Y-124425000D01*
X106440000Y-124425000D02*
X106440000Y-123225000D01*
X110525000Y-119775000D02*
X111725000Y-119775000D01*
X111725000Y-121525000D02*
X110525000Y-121525000D01*
X119140000Y-128870000D02*
X119140000Y-127670000D01*
X120890000Y-127670000D02*
X120890000Y-128870000D01*
X116805000Y-121525000D02*
X115605000Y-121525000D01*
X115605000Y-119775000D02*
X116805000Y-119775000D01*
X139700000Y-113030000D02*
X139700000Y-107950000D01*
X142240000Y-113030000D02*
X142240000Y-107950000D01*
X144780000Y-113030000D02*
X144780000Y-107950000D01*
X147320000Y-107950000D02*
X147320000Y-92710000D01*
X147320000Y-92710000D02*
X137160000Y-92710000D01*
X137160000Y-92710000D02*
X137160000Y-107950000D01*
X137160000Y-107950000D02*
X147320000Y-107950000D01*
X146050000Y-100330000D02*
X137160000Y-100330000D01*
X146050000Y-100330000D02*
X147320000Y-100330000D01*
X125095000Y-113030000D02*
X125095000Y-107950000D01*
X127635000Y-113030000D02*
X127635000Y-107950000D01*
X130175000Y-113030000D02*
X130175000Y-107950000D01*
X132715000Y-107950000D02*
X132715000Y-92710000D01*
X132715000Y-92710000D02*
X122555000Y-92710000D01*
X122555000Y-92710000D02*
X122555000Y-107950000D01*
X122555000Y-107950000D02*
X132715000Y-107950000D01*
X131445000Y-100330000D02*
X122555000Y-100330000D01*
X131445000Y-100330000D02*
X132715000Y-100330000D01*
X118237000Y-63500000D02*
X118237000Y-58420000D01*
X118237000Y-58420000D02*
X115697000Y-58420000D01*
X115697000Y-58420000D02*
X115697000Y-63500000D01*
X115697000Y-66040000D02*
X115697000Y-63500000D01*
X115697000Y-63500000D02*
X118237000Y-63500000D01*
X115697000Y-66040000D02*
X118237000Y-66040000D01*
X118237000Y-66040000D02*
X118237000Y-63500000D01*
X118237000Y-55372000D02*
X118237000Y-50292000D01*
X118237000Y-50292000D02*
X115697000Y-50292000D01*
X115697000Y-50292000D02*
X115697000Y-55372000D01*
X115697000Y-57912000D02*
X115697000Y-55372000D01*
X115697000Y-55372000D02*
X118237000Y-55372000D01*
X115697000Y-57912000D02*
X118237000Y-57912000D01*
X118237000Y-57912000D02*
X118237000Y-55372000D01*
X146600000Y-45400000D02*
X146600000Y-43400000D01*
X146600000Y-43400000D02*
X137000000Y-43400000D01*
X137000000Y-43400000D02*
X137000000Y-45400000D01*
X141800000Y-45400000D02*
X147800000Y-45400000D01*
X147800000Y-45400000D02*
X147800000Y-57400000D01*
X147800000Y-57400000D02*
X135800000Y-57400000D01*
X135800000Y-57400000D02*
X135800000Y-45400000D01*
X135800000Y-45400000D02*
X141800000Y-45400000D01*
X154885714Y-46802381D02*
X154885714Y-47611905D01*
X154933333Y-47707143D01*
X154980952Y-47754762D01*
X155076190Y-47802381D01*
X155266667Y-47802381D01*
X155361905Y-47754762D01*
X155409524Y-47707143D01*
X155457143Y-47611905D01*
X155457143Y-46802381D01*
X156457143Y-47802381D02*
X155885714Y-47802381D01*
X156171428Y-47802381D02*
X156171428Y-46802381D01*
X156076190Y-46945238D01*
X155980952Y-47040476D01*
X155885714Y-47088095D01*
X157076190Y-46802381D02*
X157171429Y-46802381D01*
X157266667Y-46850000D01*
X157314286Y-46897619D01*
X157361905Y-46992857D01*
X157409524Y-47183333D01*
X157409524Y-47421429D01*
X157361905Y-47611905D01*
X157314286Y-47707143D01*
X157266667Y-47754762D01*
X157171429Y-47802381D01*
X157076190Y-47802381D01*
X156980952Y-47754762D01*
X156933333Y-47707143D01*
X156885714Y-47611905D01*
X156838095Y-47421429D01*
X156838095Y-47183333D01*
X156885714Y-46992857D01*
X156933333Y-46897619D01*
X156980952Y-46850000D01*
X157076190Y-46802381D01*
X158314286Y-46802381D02*
X157838095Y-46802381D01*
X157790476Y-47278571D01*
X157838095Y-47230952D01*
X157933333Y-47183333D01*
X158171429Y-47183333D01*
X158266667Y-47230952D01*
X158314286Y-47278571D01*
X158361905Y-47373810D01*
X158361905Y-47611905D01*
X158314286Y-47707143D01*
X158266667Y-47754762D01*
X158171429Y-47802381D01*
X157933333Y-47802381D01*
X157838095Y-47754762D01*
X157790476Y-47707143D01*
X106090476Y-45352381D02*
X106280953Y-45352381D01*
X106376191Y-45400000D01*
X106471429Y-45495238D01*
X106519048Y-45685714D01*
X106519048Y-46019048D01*
X106471429Y-46209524D01*
X106376191Y-46304762D01*
X106280953Y-46352381D01*
X106090476Y-46352381D01*
X105995238Y-46304762D01*
X105900000Y-46209524D01*
X105852381Y-46019048D01*
X105852381Y-45685714D01*
X105900000Y-45495238D01*
X105995238Y-45400000D01*
X106090476Y-45352381D01*
X107376191Y-45685714D02*
X107376191Y-46352381D01*
X106947619Y-45685714D02*
X106947619Y-46209524D01*
X106995238Y-46304762D01*
X107090476Y-46352381D01*
X107233334Y-46352381D01*
X107328572Y-46304762D01*
X107376191Y-46257143D01*
X107709524Y-45685714D02*
X108090476Y-45685714D01*
X107852381Y-45352381D02*
X107852381Y-46209524D01*
X107900000Y-46304762D01*
X107995238Y-46352381D01*
X108090476Y-46352381D01*
X108947620Y-46352381D02*
X108376191Y-46352381D01*
X108661905Y-46352381D02*
X108661905Y-45352381D01*
X108566667Y-45495238D01*
X108471429Y-45590476D01*
X108376191Y-45638095D01*
X108402381Y-137437619D02*
X107926190Y-137770953D01*
X108402381Y-138009048D02*
X107402381Y-138009048D01*
X107402381Y-137628095D01*
X107450000Y-137532857D01*
X107497619Y-137485238D01*
X107592857Y-137437619D01*
X107735714Y-137437619D01*
X107830952Y-137485238D01*
X107878571Y-137532857D01*
X107926190Y-137628095D01*
X107926190Y-138009048D01*
X107402381Y-137151905D02*
X108402381Y-136818572D01*
X107402381Y-136485238D01*
X107497619Y-136199524D02*
X107450000Y-136151905D01*
X107402381Y-136056667D01*
X107402381Y-135818571D01*
X107450000Y-135723333D01*
X107497619Y-135675714D01*
X107592857Y-135628095D01*
X107688095Y-135628095D01*
X107830952Y-135675714D01*
X108402381Y-136247143D01*
X108402381Y-135628095D01*
X107402381Y-135009048D02*
X107402381Y-134913809D01*
X107450000Y-134818571D01*
X107497619Y-134770952D01*
X107592857Y-134723333D01*
X107783333Y-134675714D01*
X108021429Y-134675714D01*
X108211905Y-134723333D01*
X108307143Y-134770952D01*
X108354762Y-134818571D01*
X108402381Y-134913809D01*
X108402381Y-135009048D01*
X108354762Y-135104286D01*
X108307143Y-135151905D01*
X108211905Y-135199524D01*
X108021429Y-135247143D01*
X107783333Y-135247143D01*
X107592857Y-135199524D01*
X107497619Y-135151905D01*
X107450000Y-135104286D01*
X107402381Y-135009048D01*
X107402381Y-134342381D02*
X107402381Y-133723333D01*
X107783333Y-134056667D01*
X107783333Y-133913809D01*
X107830952Y-133818571D01*
X107878571Y-133770952D01*
X107973810Y-133723333D01*
X108211905Y-133723333D01*
X108307143Y-133770952D01*
X108354762Y-133818571D01*
X108402381Y-133913809D01*
X108402381Y-134199524D01*
X108354762Y-134294762D01*
X108307143Y-134342381D01*
X127198381Y-137437619D02*
X126722190Y-137770953D01*
X127198381Y-138009048D02*
X126198381Y-138009048D01*
X126198381Y-137628095D01*
X126246000Y-137532857D01*
X126293619Y-137485238D01*
X126388857Y-137437619D01*
X126531714Y-137437619D01*
X126626952Y-137485238D01*
X126674571Y-137532857D01*
X126722190Y-137628095D01*
X126722190Y-138009048D01*
X126198381Y-137151905D02*
X127198381Y-136818572D01*
X126198381Y-136485238D01*
X126293619Y-136199524D02*
X126246000Y-136151905D01*
X126198381Y-136056667D01*
X126198381Y-135818571D01*
X126246000Y-135723333D01*
X126293619Y-135675714D01*
X126388857Y-135628095D01*
X126484095Y-135628095D01*
X126626952Y-135675714D01*
X127198381Y-136247143D01*
X127198381Y-135628095D01*
X126198381Y-135009048D02*
X126198381Y-134913809D01*
X126246000Y-134818571D01*
X126293619Y-134770952D01*
X126388857Y-134723333D01*
X126579333Y-134675714D01*
X126817429Y-134675714D01*
X127007905Y-134723333D01*
X127103143Y-134770952D01*
X127150762Y-134818571D01*
X127198381Y-134913809D01*
X127198381Y-135009048D01*
X127150762Y-135104286D01*
X127103143Y-135151905D01*
X127007905Y-135199524D01*
X126817429Y-135247143D01*
X126579333Y-135247143D01*
X126388857Y-135199524D01*
X126293619Y-135151905D01*
X126246000Y-135104286D01*
X126198381Y-135009048D01*
X126293619Y-134294762D02*
X126246000Y-134247143D01*
X126198381Y-134151905D01*
X126198381Y-133913809D01*
X126246000Y-133818571D01*
X126293619Y-133770952D01*
X126388857Y-133723333D01*
X126484095Y-133723333D01*
X126626952Y-133770952D01*
X127198381Y-134342381D01*
X127198381Y-133723333D01*
X145740381Y-137437619D02*
X145264190Y-137770953D01*
X145740381Y-138009048D02*
X144740381Y-138009048D01*
X144740381Y-137628095D01*
X144788000Y-137532857D01*
X144835619Y-137485238D01*
X144930857Y-137437619D01*
X145073714Y-137437619D01*
X145168952Y-137485238D01*
X145216571Y-137532857D01*
X145264190Y-137628095D01*
X145264190Y-138009048D01*
X144740381Y-137151905D02*
X145740381Y-136818572D01*
X144740381Y-136485238D01*
X144835619Y-136199524D02*
X144788000Y-136151905D01*
X144740381Y-136056667D01*
X144740381Y-135818571D01*
X144788000Y-135723333D01*
X144835619Y-135675714D01*
X144930857Y-135628095D01*
X145026095Y-135628095D01*
X145168952Y-135675714D01*
X145740381Y-136247143D01*
X145740381Y-135628095D01*
X144740381Y-135009048D02*
X144740381Y-134913809D01*
X144788000Y-134818571D01*
X144835619Y-134770952D01*
X144930857Y-134723333D01*
X145121333Y-134675714D01*
X145359429Y-134675714D01*
X145549905Y-134723333D01*
X145645143Y-134770952D01*
X145692762Y-134818571D01*
X145740381Y-134913809D01*
X145740381Y-135009048D01*
X145692762Y-135104286D01*
X145645143Y-135151905D01*
X145549905Y-135199524D01*
X145359429Y-135247143D01*
X145121333Y-135247143D01*
X144930857Y-135199524D01*
X144835619Y-135151905D01*
X144788000Y-135104286D01*
X144740381Y-135009048D01*
X145740381Y-133723333D02*
X145740381Y-134294762D01*
X145740381Y-134009048D02*
X144740381Y-134009048D01*
X144883238Y-134104286D01*
X144978476Y-134199524D01*
X145026095Y-134294762D01*
X131897381Y-66579524D02*
X130897381Y-66579524D01*
X130897381Y-66198571D01*
X130945000Y-66103333D01*
X130992619Y-66055714D01*
X131087857Y-66008095D01*
X131230714Y-66008095D01*
X131325952Y-66055714D01*
X131373571Y-66103333D01*
X131421190Y-66198571D01*
X131421190Y-66579524D01*
X130897381Y-65674762D02*
X131897381Y-65436667D01*
X131183095Y-65246190D01*
X131897381Y-65055714D01*
X130897381Y-64817619D01*
X131897381Y-63865238D02*
X131421190Y-64198572D01*
X131897381Y-64436667D02*
X130897381Y-64436667D01*
X130897381Y-64055714D01*
X130945000Y-63960476D01*
X130992619Y-63912857D01*
X131087857Y-63865238D01*
X131230714Y-63865238D01*
X131325952Y-63912857D01*
X131373571Y-63960476D01*
X131421190Y-64055714D01*
X131421190Y-64436667D01*
X131897381Y-62912857D02*
X131897381Y-63484286D01*
X131897381Y-63198572D02*
X130897381Y-63198572D01*
X131040238Y-63293810D01*
X131135476Y-63389048D01*
X131183095Y-63484286D01*
X154990476Y-116952381D02*
X155180953Y-116952381D01*
X155276191Y-117000000D01*
X155371429Y-117095238D01*
X155419048Y-117285714D01*
X155419048Y-117619048D01*
X155371429Y-117809524D01*
X155276191Y-117904762D01*
X155180953Y-117952381D01*
X154990476Y-117952381D01*
X154895238Y-117904762D01*
X154800000Y-117809524D01*
X154752381Y-117619048D01*
X154752381Y-117285714D01*
X154800000Y-117095238D01*
X154895238Y-117000000D01*
X154990476Y-116952381D01*
X156276191Y-117285714D02*
X156276191Y-117952381D01*
X155847619Y-117285714D02*
X155847619Y-117809524D01*
X155895238Y-117904762D01*
X155990476Y-117952381D01*
X156133334Y-117952381D01*
X156228572Y-117904762D01*
X156276191Y-117857143D01*
X156609524Y-117285714D02*
X156990476Y-117285714D01*
X156752381Y-116952381D02*
X156752381Y-117809524D01*
X156800000Y-117904762D01*
X156895238Y-117952381D01*
X156990476Y-117952381D01*
X157228572Y-116952381D02*
X157847620Y-116952381D01*
X157514286Y-117333333D01*
X157657144Y-117333333D01*
X157752382Y-117380952D01*
X157800001Y-117428571D01*
X157847620Y-117523810D01*
X157847620Y-117761905D01*
X157800001Y-117857143D01*
X157752382Y-117904762D01*
X157657144Y-117952381D01*
X157371429Y-117952381D01*
X157276191Y-117904762D01*
X157228572Y-117857143D01*
X136490476Y-116952381D02*
X136680953Y-116952381D01*
X136776191Y-117000000D01*
X136871429Y-117095238D01*
X136919048Y-117285714D01*
X136919048Y-117619048D01*
X136871429Y-117809524D01*
X136776191Y-117904762D01*
X136680953Y-117952381D01*
X136490476Y-117952381D01*
X136395238Y-117904762D01*
X136300000Y-117809524D01*
X136252381Y-117619048D01*
X136252381Y-117285714D01*
X136300000Y-117095238D01*
X136395238Y-117000000D01*
X136490476Y-116952381D01*
X137776191Y-117285714D02*
X137776191Y-117952381D01*
X137347619Y-117285714D02*
X137347619Y-117809524D01*
X137395238Y-117904762D01*
X137490476Y-117952381D01*
X137633334Y-117952381D01*
X137728572Y-117904762D01*
X137776191Y-117857143D01*
X138109524Y-117285714D02*
X138490476Y-117285714D01*
X138252381Y-116952381D02*
X138252381Y-117809524D01*
X138300000Y-117904762D01*
X138395238Y-117952381D01*
X138490476Y-117952381D01*
X138776191Y-117047619D02*
X138823810Y-117000000D01*
X138919048Y-116952381D01*
X139157144Y-116952381D01*
X139252382Y-117000000D01*
X139300001Y-117047619D01*
X139347620Y-117142857D01*
X139347620Y-117238095D01*
X139300001Y-117380952D01*
X138728572Y-117952381D01*
X139347620Y-117952381D01*
X148098095Y-61047381D02*
X148764762Y-62047381D01*
X148764762Y-61047381D02*
X148098095Y-62047381D01*
X149669524Y-62047381D02*
X149098095Y-62047381D01*
X149383809Y-62047381D02*
X149383809Y-61047381D01*
X149288571Y-61190238D01*
X149193333Y-61285476D01*
X149098095Y-61333095D01*
X150288571Y-61047381D02*
X150383810Y-61047381D01*
X150479048Y-61095000D01*
X150526667Y-61142619D01*
X150574286Y-61237857D01*
X150621905Y-61428333D01*
X150621905Y-61666429D01*
X150574286Y-61856905D01*
X150526667Y-61952143D01*
X150479048Y-61999762D01*
X150383810Y-62047381D01*
X150288571Y-62047381D01*
X150193333Y-61999762D01*
X150145714Y-61952143D01*
X150098095Y-61856905D01*
X150050476Y-61666429D01*
X150050476Y-61428333D01*
X150098095Y-61237857D01*
X150145714Y-61142619D01*
X150193333Y-61095000D01*
X150288571Y-61047381D01*
X151574286Y-62047381D02*
X151002857Y-62047381D01*
X151288571Y-62047381D02*
X151288571Y-61047381D01*
X151193333Y-61190238D01*
X151098095Y-61285476D01*
X151002857Y-61333095D01*
D14*
X111607857Y-130307857D02*
X111607857Y-131279286D01*
X111665000Y-131393571D01*
X111722143Y-131450714D01*
X111836429Y-131507857D01*
X112065000Y-131507857D01*
X112179286Y-131450714D01*
X112236429Y-131393571D01*
X112293572Y-131279286D01*
X112293572Y-130307857D01*
X112807857Y-130422143D02*
X112865000Y-130365000D01*
X112979286Y-130307857D01*
X113265000Y-130307857D01*
X113379286Y-130365000D01*
X113436429Y-130422143D01*
X113493572Y-130536429D01*
X113493572Y-130650714D01*
X113436429Y-130822143D01*
X112750715Y-131507857D01*
X113493572Y-131507857D01*
X114236429Y-130307857D02*
X114350714Y-130307857D01*
X114465000Y-130365000D01*
X114522143Y-130422143D01*
X114579286Y-130536429D01*
X114636429Y-130765000D01*
X114636429Y-131050714D01*
X114579286Y-131279286D01*
X114522143Y-131393571D01*
X114465000Y-131450714D01*
X114350714Y-131507857D01*
X114236429Y-131507857D01*
X114122143Y-131450714D01*
X114065000Y-131393571D01*
X114007857Y-131279286D01*
X113950714Y-131050714D01*
X113950714Y-130765000D01*
X114007857Y-130536429D01*
X114065000Y-130422143D01*
X114122143Y-130365000D01*
X114236429Y-130307857D01*
X115722143Y-130307857D02*
X115150714Y-130307857D01*
X115093571Y-130879286D01*
X115150714Y-130822143D01*
X115265000Y-130765000D01*
X115550714Y-130765000D01*
X115665000Y-130822143D01*
X115722143Y-130879286D01*
X115779286Y-130993571D01*
X115779286Y-131279286D01*
X115722143Y-131393571D01*
X115665000Y-131450714D01*
X115550714Y-131507857D01*
X115265000Y-131507857D01*
X115150714Y-131450714D01*
X115093571Y-131393571D01*
X110972857Y-102847857D02*
X110972857Y-103819286D01*
X111030000Y-103933571D01*
X111087143Y-103990714D01*
X111201429Y-104047857D01*
X111430000Y-104047857D01*
X111544286Y-103990714D01*
X111601429Y-103933571D01*
X111658572Y-103819286D01*
X111658572Y-102847857D01*
X112172857Y-102962143D02*
X112230000Y-102905000D01*
X112344286Y-102847857D01*
X112630000Y-102847857D01*
X112744286Y-102905000D01*
X112801429Y-102962143D01*
X112858572Y-103076429D01*
X112858572Y-103190714D01*
X112801429Y-103362143D01*
X112115715Y-104047857D01*
X112858572Y-104047857D01*
X113601429Y-102847857D02*
X113715714Y-102847857D01*
X113830000Y-102905000D01*
X113887143Y-102962143D01*
X113944286Y-103076429D01*
X114001429Y-103305000D01*
X114001429Y-103590714D01*
X113944286Y-103819286D01*
X113887143Y-103933571D01*
X113830000Y-103990714D01*
X113715714Y-104047857D01*
X113601429Y-104047857D01*
X113487143Y-103990714D01*
X113430000Y-103933571D01*
X113372857Y-103819286D01*
X113315714Y-103590714D01*
X113315714Y-103305000D01*
X113372857Y-103076429D01*
X113430000Y-102962143D01*
X113487143Y-102905000D01*
X113601429Y-102847857D01*
X115030000Y-103247857D02*
X115030000Y-104047857D01*
X114744286Y-102790714D02*
X114458571Y-103647857D01*
X115201429Y-103647857D01*
X130022857Y-130307857D02*
X130022857Y-131279286D01*
X130080000Y-131393571D01*
X130137143Y-131450714D01*
X130251429Y-131507857D01*
X130480000Y-131507857D01*
X130594286Y-131450714D01*
X130651429Y-131393571D01*
X130708572Y-131279286D01*
X130708572Y-130307857D01*
X131222857Y-130422143D02*
X131280000Y-130365000D01*
X131394286Y-130307857D01*
X131680000Y-130307857D01*
X131794286Y-130365000D01*
X131851429Y-130422143D01*
X131908572Y-130536429D01*
X131908572Y-130650714D01*
X131851429Y-130822143D01*
X131165715Y-131507857D01*
X131908572Y-131507857D01*
X132651429Y-130307857D02*
X132765714Y-130307857D01*
X132880000Y-130365000D01*
X132937143Y-130422143D01*
X132994286Y-130536429D01*
X133051429Y-130765000D01*
X133051429Y-131050714D01*
X132994286Y-131279286D01*
X132937143Y-131393571D01*
X132880000Y-131450714D01*
X132765714Y-131507857D01*
X132651429Y-131507857D01*
X132537143Y-131450714D01*
X132480000Y-131393571D01*
X132422857Y-131279286D01*
X132365714Y-131050714D01*
X132365714Y-130765000D01*
X132422857Y-130536429D01*
X132480000Y-130422143D01*
X132537143Y-130365000D01*
X132651429Y-130307857D01*
X133451429Y-130307857D02*
X134194286Y-130307857D01*
X133794286Y-130765000D01*
X133965714Y-130765000D01*
X134080000Y-130822143D01*
X134137143Y-130879286D01*
X134194286Y-130993571D01*
X134194286Y-131279286D01*
X134137143Y-131393571D01*
X134080000Y-131450714D01*
X133965714Y-131507857D01*
X133622857Y-131507857D01*
X133508571Y-131450714D01*
X133451429Y-131393571D01*
X100177857Y-102847857D02*
X100177857Y-103819286D01*
X100235000Y-103933571D01*
X100292143Y-103990714D01*
X100406429Y-104047857D01*
X100635000Y-104047857D01*
X100749286Y-103990714D01*
X100806429Y-103933571D01*
X100863572Y-103819286D01*
X100863572Y-102847857D01*
X101377857Y-102962143D02*
X101435000Y-102905000D01*
X101549286Y-102847857D01*
X101835000Y-102847857D01*
X101949286Y-102905000D01*
X102006429Y-102962143D01*
X102063572Y-103076429D01*
X102063572Y-103190714D01*
X102006429Y-103362143D01*
X101320715Y-104047857D01*
X102063572Y-104047857D01*
X102806429Y-102847857D02*
X102920714Y-102847857D01*
X103035000Y-102905000D01*
X103092143Y-102962143D01*
X103149286Y-103076429D01*
X103206429Y-103305000D01*
X103206429Y-103590714D01*
X103149286Y-103819286D01*
X103092143Y-103933571D01*
X103035000Y-103990714D01*
X102920714Y-104047857D01*
X102806429Y-104047857D01*
X102692143Y-103990714D01*
X102635000Y-103933571D01*
X102577857Y-103819286D01*
X102520714Y-103590714D01*
X102520714Y-103305000D01*
X102577857Y-103076429D01*
X102635000Y-102962143D01*
X102692143Y-102905000D01*
X102806429Y-102847857D01*
X103663571Y-102962143D02*
X103720714Y-102905000D01*
X103835000Y-102847857D01*
X104120714Y-102847857D01*
X104235000Y-102905000D01*
X104292143Y-102962143D01*
X104349286Y-103076429D01*
X104349286Y-103190714D01*
X104292143Y-103362143D01*
X103606429Y-104047857D01*
X104349286Y-104047857D01*
X148437857Y-130307857D02*
X148437857Y-131279286D01*
X148495000Y-131393571D01*
X148552143Y-131450714D01*
X148666429Y-131507857D01*
X148895000Y-131507857D01*
X149009286Y-131450714D01*
X149066429Y-131393571D01*
X149123572Y-131279286D01*
X149123572Y-130307857D01*
X149637857Y-130422143D02*
X149695000Y-130365000D01*
X149809286Y-130307857D01*
X150095000Y-130307857D01*
X150209286Y-130365000D01*
X150266429Y-130422143D01*
X150323572Y-130536429D01*
X150323572Y-130650714D01*
X150266429Y-130822143D01*
X149580715Y-131507857D01*
X150323572Y-131507857D01*
X151066429Y-130307857D02*
X151180714Y-130307857D01*
X151295000Y-130365000D01*
X151352143Y-130422143D01*
X151409286Y-130536429D01*
X151466429Y-130765000D01*
X151466429Y-131050714D01*
X151409286Y-131279286D01*
X151352143Y-131393571D01*
X151295000Y-131450714D01*
X151180714Y-131507857D01*
X151066429Y-131507857D01*
X150952143Y-131450714D01*
X150895000Y-131393571D01*
X150837857Y-131279286D01*
X150780714Y-131050714D01*
X150780714Y-130765000D01*
X150837857Y-130536429D01*
X150895000Y-130422143D01*
X150952143Y-130365000D01*
X151066429Y-130307857D01*
X152609286Y-131507857D02*
X151923571Y-131507857D01*
X152266429Y-131507857D02*
X152266429Y-130307857D01*
X152152143Y-130479286D01*
X152037857Y-130593571D01*
X151923571Y-130650714D01*
D13*
X160591714Y-72096381D02*
X160591714Y-72905905D01*
X160639333Y-73001143D01*
X160686952Y-73048762D01*
X160782190Y-73096381D01*
X160972667Y-73096381D01*
X161067905Y-73048762D01*
X161115524Y-73001143D01*
X161163143Y-72905905D01*
X161163143Y-72096381D01*
X162163143Y-73096381D02*
X161591714Y-73096381D01*
X161877428Y-73096381D02*
X161877428Y-72096381D01*
X161782190Y-72239238D01*
X161686952Y-72334476D01*
X161591714Y-72382095D01*
X162782190Y-72096381D02*
X162877429Y-72096381D01*
X162972667Y-72144000D01*
X163020286Y-72191619D01*
X163067905Y-72286857D01*
X163115524Y-72477333D01*
X163115524Y-72715429D01*
X163067905Y-72905905D01*
X163020286Y-73001143D01*
X162972667Y-73048762D01*
X162877429Y-73096381D01*
X162782190Y-73096381D01*
X162686952Y-73048762D01*
X162639333Y-73001143D01*
X162591714Y-72905905D01*
X162544095Y-72715429D01*
X162544095Y-72477333D01*
X162591714Y-72286857D01*
X162639333Y-72191619D01*
X162686952Y-72144000D01*
X162782190Y-72096381D01*
X163972667Y-72429714D02*
X163972667Y-73096381D01*
X163734571Y-72048762D02*
X163496476Y-72763048D01*
X164115524Y-72763048D01*
X115387381Y-94464047D02*
X114911190Y-94797381D01*
X115387381Y-95035476D02*
X114387381Y-95035476D01*
X114387381Y-94654523D01*
X114435000Y-94559285D01*
X114482619Y-94511666D01*
X114577857Y-94464047D01*
X114720714Y-94464047D01*
X114815952Y-94511666D01*
X114863571Y-94559285D01*
X114911190Y-94654523D01*
X114911190Y-95035476D01*
X114482619Y-94083095D02*
X114435000Y-94035476D01*
X114387381Y-93940238D01*
X114387381Y-93702142D01*
X114435000Y-93606904D01*
X114482619Y-93559285D01*
X114577857Y-93511666D01*
X114673095Y-93511666D01*
X114815952Y-93559285D01*
X115387381Y-94130714D01*
X115387381Y-93511666D01*
X115387381Y-92559285D02*
X115387381Y-93130714D01*
X115387381Y-92845000D02*
X114387381Y-92845000D01*
X114530238Y-92940238D01*
X114625476Y-93035476D01*
X114673095Y-93130714D01*
X114387381Y-92225952D02*
X114387381Y-91606904D01*
X114768333Y-91940238D01*
X114768333Y-91797380D01*
X114815952Y-91702142D01*
X114863571Y-91654523D01*
X114958810Y-91606904D01*
X115196905Y-91606904D01*
X115292143Y-91654523D01*
X115339762Y-91702142D01*
X115387381Y-91797380D01*
X115387381Y-92083095D01*
X115339762Y-92178333D01*
X115292143Y-92225952D01*
X112847381Y-94464047D02*
X112371190Y-94797381D01*
X112847381Y-95035476D02*
X111847381Y-95035476D01*
X111847381Y-94654523D01*
X111895000Y-94559285D01*
X111942619Y-94511666D01*
X112037857Y-94464047D01*
X112180714Y-94464047D01*
X112275952Y-94511666D01*
X112323571Y-94559285D01*
X112371190Y-94654523D01*
X112371190Y-95035476D01*
X111942619Y-94083095D02*
X111895000Y-94035476D01*
X111847381Y-93940238D01*
X111847381Y-93702142D01*
X111895000Y-93606904D01*
X111942619Y-93559285D01*
X112037857Y-93511666D01*
X112133095Y-93511666D01*
X112275952Y-93559285D01*
X112847381Y-94130714D01*
X112847381Y-93511666D01*
X112847381Y-92559285D02*
X112847381Y-93130714D01*
X112847381Y-92845000D02*
X111847381Y-92845000D01*
X111990238Y-92940238D01*
X112085476Y-93035476D01*
X112133095Y-93130714D01*
X111847381Y-91940238D02*
X111847381Y-91844999D01*
X111895000Y-91749761D01*
X111942619Y-91702142D01*
X112037857Y-91654523D01*
X112228333Y-91606904D01*
X112466429Y-91606904D01*
X112656905Y-91654523D01*
X112752143Y-91702142D01*
X112799762Y-91749761D01*
X112847381Y-91844999D01*
X112847381Y-91940238D01*
X112799762Y-92035476D01*
X112752143Y-92083095D01*
X112656905Y-92130714D01*
X112466429Y-92178333D01*
X112228333Y-92178333D01*
X112037857Y-92130714D01*
X111942619Y-92083095D01*
X111895000Y-92035476D01*
X111847381Y-91940238D01*
X104592381Y-93829047D02*
X104116190Y-94162381D01*
X104592381Y-94400476D02*
X103592381Y-94400476D01*
X103592381Y-94019523D01*
X103640000Y-93924285D01*
X103687619Y-93876666D01*
X103782857Y-93829047D01*
X103925714Y-93829047D01*
X104020952Y-93876666D01*
X104068571Y-93924285D01*
X104116190Y-94019523D01*
X104116190Y-94400476D01*
X103687619Y-93448095D02*
X103640000Y-93400476D01*
X103592381Y-93305238D01*
X103592381Y-93067142D01*
X103640000Y-92971904D01*
X103687619Y-92924285D01*
X103782857Y-92876666D01*
X103878095Y-92876666D01*
X104020952Y-92924285D01*
X104592381Y-93495714D01*
X104592381Y-92876666D01*
X103592381Y-92257619D02*
X103592381Y-92162380D01*
X103640000Y-92067142D01*
X103687619Y-92019523D01*
X103782857Y-91971904D01*
X103973333Y-91924285D01*
X104211429Y-91924285D01*
X104401905Y-91971904D01*
X104497143Y-92019523D01*
X104544762Y-92067142D01*
X104592381Y-92162380D01*
X104592381Y-92257619D01*
X104544762Y-92352857D01*
X104497143Y-92400476D01*
X104401905Y-92448095D01*
X104211429Y-92495714D01*
X103973333Y-92495714D01*
X103782857Y-92448095D01*
X103687619Y-92400476D01*
X103640000Y-92352857D01*
X103592381Y-92257619D01*
X103592381Y-91019523D02*
X103592381Y-91495714D01*
X104068571Y-91543333D01*
X104020952Y-91495714D01*
X103973333Y-91400476D01*
X103973333Y-91162380D01*
X104020952Y-91067142D01*
X104068571Y-91019523D01*
X104163810Y-90971904D01*
X104401905Y-90971904D01*
X104497143Y-91019523D01*
X104544762Y-91067142D01*
X104592381Y-91162380D01*
X104592381Y-91400476D01*
X104544762Y-91495714D01*
X104497143Y-91543333D01*
X102052381Y-93829047D02*
X101576190Y-94162381D01*
X102052381Y-94400476D02*
X101052381Y-94400476D01*
X101052381Y-94019523D01*
X101100000Y-93924285D01*
X101147619Y-93876666D01*
X101242857Y-93829047D01*
X101385714Y-93829047D01*
X101480952Y-93876666D01*
X101528571Y-93924285D01*
X101576190Y-94019523D01*
X101576190Y-94400476D01*
X101147619Y-93448095D02*
X101100000Y-93400476D01*
X101052381Y-93305238D01*
X101052381Y-93067142D01*
X101100000Y-92971904D01*
X101147619Y-92924285D01*
X101242857Y-92876666D01*
X101338095Y-92876666D01*
X101480952Y-92924285D01*
X102052381Y-93495714D01*
X102052381Y-92876666D01*
X101052381Y-92257619D02*
X101052381Y-92162380D01*
X101100000Y-92067142D01*
X101147619Y-92019523D01*
X101242857Y-91971904D01*
X101433333Y-91924285D01*
X101671429Y-91924285D01*
X101861905Y-91971904D01*
X101957143Y-92019523D01*
X102004762Y-92067142D01*
X102052381Y-92162380D01*
X102052381Y-92257619D01*
X102004762Y-92352857D01*
X101957143Y-92400476D01*
X101861905Y-92448095D01*
X101671429Y-92495714D01*
X101433333Y-92495714D01*
X101242857Y-92448095D01*
X101147619Y-92400476D01*
X101100000Y-92352857D01*
X101052381Y-92257619D01*
X101147619Y-91543333D02*
X101100000Y-91495714D01*
X101052381Y-91400476D01*
X101052381Y-91162380D01*
X101100000Y-91067142D01*
X101147619Y-91019523D01*
X101242857Y-90971904D01*
X101338095Y-90971904D01*
X101480952Y-91019523D01*
X102052381Y-91590952D01*
X102052381Y-90971904D01*
X138993571Y-78120714D02*
X138993571Y-78454048D01*
X139517381Y-78454048D02*
X138517381Y-78454048D01*
X138517381Y-77977857D01*
X139517381Y-77073095D02*
X139517381Y-77644524D01*
X139517381Y-77358810D02*
X138517381Y-77358810D01*
X138660238Y-77454048D01*
X138755476Y-77549286D01*
X138803095Y-77644524D01*
X138517381Y-76454048D02*
X138517381Y-76358809D01*
X138565000Y-76263571D01*
X138612619Y-76215952D01*
X138707857Y-76168333D01*
X138898333Y-76120714D01*
X139136429Y-76120714D01*
X139326905Y-76168333D01*
X139422143Y-76215952D01*
X139469762Y-76263571D01*
X139517381Y-76358809D01*
X139517381Y-76454048D01*
X139469762Y-76549286D01*
X139422143Y-76596905D01*
X139326905Y-76644524D01*
X139136429Y-76692143D01*
X138898333Y-76692143D01*
X138707857Y-76644524D01*
X138612619Y-76596905D01*
X138565000Y-76549286D01*
X138517381Y-76454048D01*
X139517381Y-75168333D02*
X139517381Y-75739762D01*
X139517381Y-75454048D02*
X138517381Y-75454048D01*
X138660238Y-75549286D01*
X138755476Y-75644524D01*
X138803095Y-75739762D01*
X136342381Y-86145476D02*
X135342381Y-86145476D01*
X135342381Y-85907381D01*
X135390000Y-85764523D01*
X135485238Y-85669285D01*
X135580476Y-85621666D01*
X135770952Y-85574047D01*
X135913810Y-85574047D01*
X136104286Y-85621666D01*
X136199524Y-85669285D01*
X136294762Y-85764523D01*
X136342381Y-85907381D01*
X136342381Y-86145476D01*
X136342381Y-84621666D02*
X136342381Y-85193095D01*
X136342381Y-84907381D02*
X135342381Y-84907381D01*
X135485238Y-85002619D01*
X135580476Y-85097857D01*
X135628095Y-85193095D01*
X135342381Y-84002619D02*
X135342381Y-83907380D01*
X135390000Y-83812142D01*
X135437619Y-83764523D01*
X135532857Y-83716904D01*
X135723333Y-83669285D01*
X135961429Y-83669285D01*
X136151905Y-83716904D01*
X136247143Y-83764523D01*
X136294762Y-83812142D01*
X136342381Y-83907380D01*
X136342381Y-84002619D01*
X136294762Y-84097857D01*
X136247143Y-84145476D01*
X136151905Y-84193095D01*
X135961429Y-84240714D01*
X135723333Y-84240714D01*
X135532857Y-84193095D01*
X135437619Y-84145476D01*
X135390000Y-84097857D01*
X135342381Y-84002619D01*
X135437619Y-83288333D02*
X135390000Y-83240714D01*
X135342381Y-83145476D01*
X135342381Y-82907380D01*
X135390000Y-82812142D01*
X135437619Y-82764523D01*
X135532857Y-82716904D01*
X135628095Y-82716904D01*
X135770952Y-82764523D01*
X136342381Y-83335952D01*
X136342381Y-82716904D01*
X136342381Y-75350476D02*
X135342381Y-75350476D01*
X135342381Y-75112381D01*
X135390000Y-74969523D01*
X135485238Y-74874285D01*
X135580476Y-74826666D01*
X135770952Y-74779047D01*
X135913810Y-74779047D01*
X136104286Y-74826666D01*
X136199524Y-74874285D01*
X136294762Y-74969523D01*
X136342381Y-75112381D01*
X136342381Y-75350476D01*
X136342381Y-73826666D02*
X136342381Y-74398095D01*
X136342381Y-74112381D02*
X135342381Y-74112381D01*
X135485238Y-74207619D01*
X135580476Y-74302857D01*
X135628095Y-74398095D01*
X135342381Y-73207619D02*
X135342381Y-73112380D01*
X135390000Y-73017142D01*
X135437619Y-72969523D01*
X135532857Y-72921904D01*
X135723333Y-72874285D01*
X135961429Y-72874285D01*
X136151905Y-72921904D01*
X136247143Y-72969523D01*
X136294762Y-73017142D01*
X136342381Y-73112380D01*
X136342381Y-73207619D01*
X136294762Y-73302857D01*
X136247143Y-73350476D01*
X136151905Y-73398095D01*
X135961429Y-73445714D01*
X135723333Y-73445714D01*
X135532857Y-73398095D01*
X135437619Y-73350476D01*
X135390000Y-73302857D01*
X135342381Y-73207619D01*
X136342381Y-71921904D02*
X136342381Y-72493333D01*
X136342381Y-72207619D02*
X135342381Y-72207619D01*
X135485238Y-72302857D01*
X135580476Y-72398095D01*
X135628095Y-72493333D01*
X151915953Y-112117143D02*
X151868334Y-112164762D01*
X151725477Y-112212381D01*
X151630239Y-112212381D01*
X151487381Y-112164762D01*
X151392143Y-112069524D01*
X151344524Y-111974286D01*
X151296905Y-111783810D01*
X151296905Y-111640952D01*
X151344524Y-111450476D01*
X151392143Y-111355238D01*
X151487381Y-111260000D01*
X151630239Y-111212381D01*
X151725477Y-111212381D01*
X151868334Y-111260000D01*
X151915953Y-111307619D01*
X152868334Y-112212381D02*
X152296905Y-112212381D01*
X152582619Y-112212381D02*
X152582619Y-111212381D01*
X152487381Y-111355238D01*
X152392143Y-111450476D01*
X152296905Y-111498095D01*
X153249286Y-111307619D02*
X153296905Y-111260000D01*
X153392143Y-111212381D01*
X153630239Y-111212381D01*
X153725477Y-111260000D01*
X153773096Y-111307619D01*
X153820715Y-111402857D01*
X153820715Y-111498095D01*
X153773096Y-111640952D01*
X153201667Y-112212381D01*
X153820715Y-112212381D01*
X154773096Y-112212381D02*
X154201667Y-112212381D01*
X154487381Y-112212381D02*
X154487381Y-111212381D01*
X154392143Y-111355238D01*
X154296905Y-111450476D01*
X154201667Y-111498095D01*
X159535953Y-112117143D02*
X159488334Y-112164762D01*
X159345477Y-112212381D01*
X159250239Y-112212381D01*
X159107381Y-112164762D01*
X159012143Y-112069524D01*
X158964524Y-111974286D01*
X158916905Y-111783810D01*
X158916905Y-111640952D01*
X158964524Y-111450476D01*
X159012143Y-111355238D01*
X159107381Y-111260000D01*
X159250239Y-111212381D01*
X159345477Y-111212381D01*
X159488334Y-111260000D01*
X159535953Y-111307619D01*
X160488334Y-112212381D02*
X159916905Y-112212381D01*
X160202619Y-112212381D02*
X160202619Y-111212381D01*
X160107381Y-111355238D01*
X160012143Y-111450476D01*
X159916905Y-111498095D01*
X160869286Y-111307619D02*
X160916905Y-111260000D01*
X161012143Y-111212381D01*
X161250239Y-111212381D01*
X161345477Y-111260000D01*
X161393096Y-111307619D01*
X161440715Y-111402857D01*
X161440715Y-111498095D01*
X161393096Y-111640952D01*
X160821667Y-112212381D01*
X161440715Y-112212381D01*
X162059762Y-111212381D02*
X162155001Y-111212381D01*
X162250239Y-111260000D01*
X162297858Y-111307619D01*
X162345477Y-111402857D01*
X162393096Y-111593333D01*
X162393096Y-111831429D01*
X162345477Y-112021905D01*
X162297858Y-112117143D01*
X162250239Y-112164762D01*
X162155001Y-112212381D01*
X162059762Y-112212381D01*
X161964524Y-112164762D01*
X161916905Y-112117143D01*
X161869286Y-112021905D01*
X161821667Y-111831429D01*
X161821667Y-111593333D01*
X161869286Y-111402857D01*
X161916905Y-111307619D01*
X161964524Y-111260000D01*
X162059762Y-111212381D01*
X129690953Y-79732143D02*
X129643334Y-79779762D01*
X129500477Y-79827381D01*
X129405239Y-79827381D01*
X129262381Y-79779762D01*
X129167143Y-79684524D01*
X129119524Y-79589286D01*
X129071905Y-79398810D01*
X129071905Y-79255952D01*
X129119524Y-79065476D01*
X129167143Y-78970238D01*
X129262381Y-78875000D01*
X129405239Y-78827381D01*
X129500477Y-78827381D01*
X129643334Y-78875000D01*
X129690953Y-78922619D01*
X130643334Y-79827381D02*
X130071905Y-79827381D01*
X130357619Y-79827381D02*
X130357619Y-78827381D01*
X130262381Y-78970238D01*
X130167143Y-79065476D01*
X130071905Y-79113095D01*
X131595715Y-79827381D02*
X131024286Y-79827381D01*
X131310000Y-79827381D02*
X131310000Y-78827381D01*
X131214762Y-78970238D01*
X131119524Y-79065476D01*
X131024286Y-79113095D01*
X132214762Y-78827381D02*
X132310001Y-78827381D01*
X132405239Y-78875000D01*
X132452858Y-78922619D01*
X132500477Y-79017857D01*
X132548096Y-79208333D01*
X132548096Y-79446429D01*
X132500477Y-79636905D01*
X132452858Y-79732143D01*
X132405239Y-79779762D01*
X132310001Y-79827381D01*
X132214762Y-79827381D01*
X132119524Y-79779762D01*
X132071905Y-79732143D01*
X132024286Y-79636905D01*
X131976667Y-79446429D01*
X131976667Y-79208333D01*
X132024286Y-79017857D01*
X132071905Y-78922619D01*
X132119524Y-78875000D01*
X132214762Y-78827381D01*
X118895953Y-79732143D02*
X118848334Y-79779762D01*
X118705477Y-79827381D01*
X118610239Y-79827381D01*
X118467381Y-79779762D01*
X118372143Y-79684524D01*
X118324524Y-79589286D01*
X118276905Y-79398810D01*
X118276905Y-79255952D01*
X118324524Y-79065476D01*
X118372143Y-78970238D01*
X118467381Y-78875000D01*
X118610239Y-78827381D01*
X118705477Y-78827381D01*
X118848334Y-78875000D01*
X118895953Y-78922619D01*
X119848334Y-79827381D02*
X119276905Y-79827381D01*
X119562619Y-79827381D02*
X119562619Y-78827381D01*
X119467381Y-78970238D01*
X119372143Y-79065476D01*
X119276905Y-79113095D01*
X120467381Y-78827381D02*
X120562620Y-78827381D01*
X120657858Y-78875000D01*
X120705477Y-78922619D01*
X120753096Y-79017857D01*
X120800715Y-79208333D01*
X120800715Y-79446429D01*
X120753096Y-79636905D01*
X120705477Y-79732143D01*
X120657858Y-79779762D01*
X120562620Y-79827381D01*
X120467381Y-79827381D01*
X120372143Y-79779762D01*
X120324524Y-79732143D01*
X120276905Y-79636905D01*
X120229286Y-79446429D01*
X120229286Y-79208333D01*
X120276905Y-79017857D01*
X120324524Y-78922619D01*
X120372143Y-78875000D01*
X120467381Y-78827381D01*
X121276905Y-79827381D02*
X121467381Y-79827381D01*
X121562620Y-79779762D01*
X121610239Y-79732143D01*
X121705477Y-79589286D01*
X121753096Y-79398810D01*
X121753096Y-79017857D01*
X121705477Y-78922619D01*
X121657858Y-78875000D01*
X121562620Y-78827381D01*
X121372143Y-78827381D01*
X121276905Y-78875000D01*
X121229286Y-78922619D01*
X121181667Y-79017857D01*
X121181667Y-79255952D01*
X121229286Y-79351190D01*
X121276905Y-79398810D01*
X121372143Y-79446429D01*
X121562620Y-79446429D01*
X121657858Y-79398810D01*
X121705477Y-79351190D01*
X121753096Y-79255952D01*
X108100953Y-79732143D02*
X108053334Y-79779762D01*
X107910477Y-79827381D01*
X107815239Y-79827381D01*
X107672381Y-79779762D01*
X107577143Y-79684524D01*
X107529524Y-79589286D01*
X107481905Y-79398810D01*
X107481905Y-79255952D01*
X107529524Y-79065476D01*
X107577143Y-78970238D01*
X107672381Y-78875000D01*
X107815239Y-78827381D01*
X107910477Y-78827381D01*
X108053334Y-78875000D01*
X108100953Y-78922619D01*
X109053334Y-79827381D02*
X108481905Y-79827381D01*
X108767619Y-79827381D02*
X108767619Y-78827381D01*
X108672381Y-78970238D01*
X108577143Y-79065476D01*
X108481905Y-79113095D01*
X109672381Y-78827381D02*
X109767620Y-78827381D01*
X109862858Y-78875000D01*
X109910477Y-78922619D01*
X109958096Y-79017857D01*
X110005715Y-79208333D01*
X110005715Y-79446429D01*
X109958096Y-79636905D01*
X109910477Y-79732143D01*
X109862858Y-79779762D01*
X109767620Y-79827381D01*
X109672381Y-79827381D01*
X109577143Y-79779762D01*
X109529524Y-79732143D01*
X109481905Y-79636905D01*
X109434286Y-79446429D01*
X109434286Y-79208333D01*
X109481905Y-79017857D01*
X109529524Y-78922619D01*
X109577143Y-78875000D01*
X109672381Y-78827381D01*
X110577143Y-79255952D02*
X110481905Y-79208333D01*
X110434286Y-79160714D01*
X110386667Y-79065476D01*
X110386667Y-79017857D01*
X110434286Y-78922619D01*
X110481905Y-78875000D01*
X110577143Y-78827381D01*
X110767620Y-78827381D01*
X110862858Y-78875000D01*
X110910477Y-78922619D01*
X110958096Y-79017857D01*
X110958096Y-79065476D01*
X110910477Y-79160714D01*
X110862858Y-79208333D01*
X110767620Y-79255952D01*
X110577143Y-79255952D01*
X110481905Y-79303571D01*
X110434286Y-79351190D01*
X110386667Y-79446429D01*
X110386667Y-79636905D01*
X110434286Y-79732143D01*
X110481905Y-79779762D01*
X110577143Y-79827381D01*
X110767620Y-79827381D01*
X110862858Y-79779762D01*
X110910477Y-79732143D01*
X110958096Y-79636905D01*
X110958096Y-79446429D01*
X110910477Y-79351190D01*
X110862858Y-79303571D01*
X110767620Y-79255952D01*
X149582143Y-112244047D02*
X149629762Y-112291666D01*
X149677381Y-112434523D01*
X149677381Y-112529761D01*
X149629762Y-112672619D01*
X149534524Y-112767857D01*
X149439286Y-112815476D01*
X149248810Y-112863095D01*
X149105952Y-112863095D01*
X148915476Y-112815476D01*
X148820238Y-112767857D01*
X148725000Y-112672619D01*
X148677381Y-112529761D01*
X148677381Y-112434523D01*
X148725000Y-112291666D01*
X148772619Y-112244047D01*
X149677381Y-111291666D02*
X149677381Y-111863095D01*
X149677381Y-111577381D02*
X148677381Y-111577381D01*
X148820238Y-111672619D01*
X148915476Y-111767857D01*
X148963095Y-111863095D01*
X148677381Y-110672619D02*
X148677381Y-110577380D01*
X148725000Y-110482142D01*
X148772619Y-110434523D01*
X148867857Y-110386904D01*
X149058333Y-110339285D01*
X149296429Y-110339285D01*
X149486905Y-110386904D01*
X149582143Y-110434523D01*
X149629762Y-110482142D01*
X149677381Y-110577380D01*
X149677381Y-110672619D01*
X149629762Y-110767857D01*
X149582143Y-110815476D01*
X149486905Y-110863095D01*
X149296429Y-110910714D01*
X149058333Y-110910714D01*
X148867857Y-110863095D01*
X148772619Y-110815476D01*
X148725000Y-110767857D01*
X148677381Y-110672619D01*
X148677381Y-110005952D02*
X148677381Y-109339285D01*
X149677381Y-109767857D01*
X136247143Y-107799047D02*
X136294762Y-107846666D01*
X136342381Y-107989523D01*
X136342381Y-108084761D01*
X136294762Y-108227619D01*
X136199524Y-108322857D01*
X136104286Y-108370476D01*
X135913810Y-108418095D01*
X135770952Y-108418095D01*
X135580476Y-108370476D01*
X135485238Y-108322857D01*
X135390000Y-108227619D01*
X135342381Y-108084761D01*
X135342381Y-107989523D01*
X135390000Y-107846666D01*
X135437619Y-107799047D01*
X136342381Y-106846666D02*
X136342381Y-107418095D01*
X136342381Y-107132381D02*
X135342381Y-107132381D01*
X135485238Y-107227619D01*
X135580476Y-107322857D01*
X135628095Y-107418095D01*
X135342381Y-106227619D02*
X135342381Y-106132380D01*
X135390000Y-106037142D01*
X135437619Y-105989523D01*
X135532857Y-105941904D01*
X135723333Y-105894285D01*
X135961429Y-105894285D01*
X136151905Y-105941904D01*
X136247143Y-105989523D01*
X136294762Y-106037142D01*
X136342381Y-106132380D01*
X136342381Y-106227619D01*
X136294762Y-106322857D01*
X136247143Y-106370476D01*
X136151905Y-106418095D01*
X135961429Y-106465714D01*
X135723333Y-106465714D01*
X135532857Y-106418095D01*
X135437619Y-106370476D01*
X135390000Y-106322857D01*
X135342381Y-106227619D01*
X135342381Y-105037142D02*
X135342381Y-105227619D01*
X135390000Y-105322857D01*
X135437619Y-105370476D01*
X135580476Y-105465714D01*
X135770952Y-105513333D01*
X136151905Y-105513333D01*
X136247143Y-105465714D01*
X136294762Y-105418095D01*
X136342381Y-105322857D01*
X136342381Y-105132380D01*
X136294762Y-105037142D01*
X136247143Y-104989523D01*
X136151905Y-104941904D01*
X135913810Y-104941904D01*
X135818571Y-104989523D01*
X135770952Y-105037142D01*
X135723333Y-105132380D01*
X135723333Y-105322857D01*
X135770952Y-105418095D01*
X135818571Y-105465714D01*
X135913810Y-105513333D01*
X118895953Y-68937143D02*
X118848334Y-68984762D01*
X118705477Y-69032381D01*
X118610239Y-69032381D01*
X118467381Y-68984762D01*
X118372143Y-68889524D01*
X118324524Y-68794286D01*
X118276905Y-68603810D01*
X118276905Y-68460952D01*
X118324524Y-68270476D01*
X118372143Y-68175238D01*
X118467381Y-68080000D01*
X118610239Y-68032381D01*
X118705477Y-68032381D01*
X118848334Y-68080000D01*
X118895953Y-68127619D01*
X119848334Y-69032381D02*
X119276905Y-69032381D01*
X119562619Y-69032381D02*
X119562619Y-68032381D01*
X119467381Y-68175238D01*
X119372143Y-68270476D01*
X119276905Y-68318095D01*
X120467381Y-68032381D02*
X120562620Y-68032381D01*
X120657858Y-68080000D01*
X120705477Y-68127619D01*
X120753096Y-68222857D01*
X120800715Y-68413333D01*
X120800715Y-68651429D01*
X120753096Y-68841905D01*
X120705477Y-68937143D01*
X120657858Y-68984762D01*
X120562620Y-69032381D01*
X120467381Y-69032381D01*
X120372143Y-68984762D01*
X120324524Y-68937143D01*
X120276905Y-68841905D01*
X120229286Y-68651429D01*
X120229286Y-68413333D01*
X120276905Y-68222857D01*
X120324524Y-68127619D01*
X120372143Y-68080000D01*
X120467381Y-68032381D01*
X121705477Y-68032381D02*
X121229286Y-68032381D01*
X121181667Y-68508571D01*
X121229286Y-68460952D01*
X121324524Y-68413333D01*
X121562620Y-68413333D01*
X121657858Y-68460952D01*
X121705477Y-68508571D01*
X121753096Y-68603810D01*
X121753096Y-68841905D01*
X121705477Y-68937143D01*
X121657858Y-68984762D01*
X121562620Y-69032381D01*
X121324524Y-69032381D01*
X121229286Y-68984762D01*
X121181667Y-68937143D01*
X129690953Y-68937143D02*
X129643334Y-68984762D01*
X129500477Y-69032381D01*
X129405239Y-69032381D01*
X129262381Y-68984762D01*
X129167143Y-68889524D01*
X129119524Y-68794286D01*
X129071905Y-68603810D01*
X129071905Y-68460952D01*
X129119524Y-68270476D01*
X129167143Y-68175238D01*
X129262381Y-68080000D01*
X129405239Y-68032381D01*
X129500477Y-68032381D01*
X129643334Y-68080000D01*
X129690953Y-68127619D01*
X130643334Y-69032381D02*
X130071905Y-69032381D01*
X130357619Y-69032381D02*
X130357619Y-68032381D01*
X130262381Y-68175238D01*
X130167143Y-68270476D01*
X130071905Y-68318095D01*
X131262381Y-68032381D02*
X131357620Y-68032381D01*
X131452858Y-68080000D01*
X131500477Y-68127619D01*
X131548096Y-68222857D01*
X131595715Y-68413333D01*
X131595715Y-68651429D01*
X131548096Y-68841905D01*
X131500477Y-68937143D01*
X131452858Y-68984762D01*
X131357620Y-69032381D01*
X131262381Y-69032381D01*
X131167143Y-68984762D01*
X131119524Y-68937143D01*
X131071905Y-68841905D01*
X131024286Y-68651429D01*
X131024286Y-68413333D01*
X131071905Y-68222857D01*
X131119524Y-68127619D01*
X131167143Y-68080000D01*
X131262381Y-68032381D01*
X132452858Y-68365714D02*
X132452858Y-69032381D01*
X132214762Y-67984762D02*
X131976667Y-68699048D01*
X132595715Y-68699048D01*
X108100953Y-68937143D02*
X108053334Y-68984762D01*
X107910477Y-69032381D01*
X107815239Y-69032381D01*
X107672381Y-68984762D01*
X107577143Y-68889524D01*
X107529524Y-68794286D01*
X107481905Y-68603810D01*
X107481905Y-68460952D01*
X107529524Y-68270476D01*
X107577143Y-68175238D01*
X107672381Y-68080000D01*
X107815239Y-68032381D01*
X107910477Y-68032381D01*
X108053334Y-68080000D01*
X108100953Y-68127619D01*
X109053334Y-69032381D02*
X108481905Y-69032381D01*
X108767619Y-69032381D02*
X108767619Y-68032381D01*
X108672381Y-68175238D01*
X108577143Y-68270476D01*
X108481905Y-68318095D01*
X109672381Y-68032381D02*
X109767620Y-68032381D01*
X109862858Y-68080000D01*
X109910477Y-68127619D01*
X109958096Y-68222857D01*
X110005715Y-68413333D01*
X110005715Y-68651429D01*
X109958096Y-68841905D01*
X109910477Y-68937143D01*
X109862858Y-68984762D01*
X109767620Y-69032381D01*
X109672381Y-69032381D01*
X109577143Y-68984762D01*
X109529524Y-68937143D01*
X109481905Y-68841905D01*
X109434286Y-68651429D01*
X109434286Y-68413333D01*
X109481905Y-68222857D01*
X109529524Y-68127619D01*
X109577143Y-68080000D01*
X109672381Y-68032381D01*
X110339048Y-68032381D02*
X110958096Y-68032381D01*
X110624762Y-68413333D01*
X110767620Y-68413333D01*
X110862858Y-68460952D01*
X110910477Y-68508571D01*
X110958096Y-68603810D01*
X110958096Y-68841905D01*
X110910477Y-68937143D01*
X110862858Y-68984762D01*
X110767620Y-69032381D01*
X110481905Y-69032381D01*
X110386667Y-68984762D01*
X110339048Y-68937143D01*
X159662953Y-70461143D02*
X159615334Y-70508762D01*
X159472477Y-70556381D01*
X159377239Y-70556381D01*
X159234381Y-70508762D01*
X159139143Y-70413524D01*
X159091524Y-70318286D01*
X159043905Y-70127810D01*
X159043905Y-69984952D01*
X159091524Y-69794476D01*
X159139143Y-69699238D01*
X159234381Y-69604000D01*
X159377239Y-69556381D01*
X159472477Y-69556381D01*
X159615334Y-69604000D01*
X159662953Y-69651619D01*
X160615334Y-70556381D02*
X160043905Y-70556381D01*
X160329619Y-70556381D02*
X160329619Y-69556381D01*
X160234381Y-69699238D01*
X160139143Y-69794476D01*
X160043905Y-69842095D01*
X161234381Y-69556381D02*
X161329620Y-69556381D01*
X161424858Y-69604000D01*
X161472477Y-69651619D01*
X161520096Y-69746857D01*
X161567715Y-69937333D01*
X161567715Y-70175429D01*
X161520096Y-70365905D01*
X161472477Y-70461143D01*
X161424858Y-70508762D01*
X161329620Y-70556381D01*
X161234381Y-70556381D01*
X161139143Y-70508762D01*
X161091524Y-70461143D01*
X161043905Y-70365905D01*
X160996286Y-70175429D01*
X160996286Y-69937333D01*
X161043905Y-69746857D01*
X161091524Y-69651619D01*
X161139143Y-69604000D01*
X161234381Y-69556381D01*
X161948667Y-69651619D02*
X161996286Y-69604000D01*
X162091524Y-69556381D01*
X162329620Y-69556381D01*
X162424858Y-69604000D01*
X162472477Y-69651619D01*
X162520096Y-69746857D01*
X162520096Y-69842095D01*
X162472477Y-69984952D01*
X161901048Y-70556381D01*
X162520096Y-70556381D01*
X148105953Y-68302143D02*
X148058334Y-68349762D01*
X147915477Y-68397381D01*
X147820239Y-68397381D01*
X147677381Y-68349762D01*
X147582143Y-68254524D01*
X147534524Y-68159286D01*
X147486905Y-67968810D01*
X147486905Y-67825952D01*
X147534524Y-67635476D01*
X147582143Y-67540238D01*
X147677381Y-67445000D01*
X147820239Y-67397381D01*
X147915477Y-67397381D01*
X148058334Y-67445000D01*
X148105953Y-67492619D01*
X149058334Y-68397381D02*
X148486905Y-68397381D01*
X148772619Y-68397381D02*
X148772619Y-67397381D01*
X148677381Y-67540238D01*
X148582143Y-67635476D01*
X148486905Y-67683095D01*
X149677381Y-67397381D02*
X149772620Y-67397381D01*
X149867858Y-67445000D01*
X149915477Y-67492619D01*
X149963096Y-67587857D01*
X150010715Y-67778333D01*
X150010715Y-68016429D01*
X149963096Y-68206905D01*
X149915477Y-68302143D01*
X149867858Y-68349762D01*
X149772620Y-68397381D01*
X149677381Y-68397381D01*
X149582143Y-68349762D01*
X149534524Y-68302143D01*
X149486905Y-68206905D01*
X149439286Y-68016429D01*
X149439286Y-67778333D01*
X149486905Y-67587857D01*
X149534524Y-67492619D01*
X149582143Y-67445000D01*
X149677381Y-67397381D01*
X150963096Y-68397381D02*
X150391667Y-68397381D01*
X150677381Y-68397381D02*
X150677381Y-67397381D01*
X150582143Y-67540238D01*
X150486905Y-67635476D01*
X150391667Y-67683095D01*
X133500953Y-90527143D02*
X133453334Y-90574762D01*
X133310477Y-90622381D01*
X133215239Y-90622381D01*
X133072381Y-90574762D01*
X132977143Y-90479524D01*
X132929524Y-90384286D01*
X132881905Y-90193810D01*
X132881905Y-90050952D01*
X132929524Y-89860476D01*
X132977143Y-89765238D01*
X133072381Y-89670000D01*
X133215239Y-89622381D01*
X133310477Y-89622381D01*
X133453334Y-89670000D01*
X133500953Y-89717619D01*
X134453334Y-90622381D02*
X133881905Y-90622381D01*
X134167619Y-90622381D02*
X134167619Y-89622381D01*
X134072381Y-89765238D01*
X133977143Y-89860476D01*
X133881905Y-89908095D01*
X135405715Y-90622381D02*
X134834286Y-90622381D01*
X135120000Y-90622381D02*
X135120000Y-89622381D01*
X135024762Y-89765238D01*
X134929524Y-89860476D01*
X134834286Y-89908095D01*
X136358096Y-90622381D02*
X135786667Y-90622381D01*
X136072381Y-90622381D02*
X136072381Y-89622381D01*
X135977143Y-89765238D01*
X135881905Y-89860476D01*
X135786667Y-89908095D01*
X134342143Y-107799047D02*
X134389762Y-107846666D01*
X134437381Y-107989523D01*
X134437381Y-108084761D01*
X134389762Y-108227619D01*
X134294524Y-108322857D01*
X134199286Y-108370476D01*
X134008810Y-108418095D01*
X133865952Y-108418095D01*
X133675476Y-108370476D01*
X133580238Y-108322857D01*
X133485000Y-108227619D01*
X133437381Y-108084761D01*
X133437381Y-107989523D01*
X133485000Y-107846666D01*
X133532619Y-107799047D01*
X134437381Y-106846666D02*
X134437381Y-107418095D01*
X134437381Y-107132381D02*
X133437381Y-107132381D01*
X133580238Y-107227619D01*
X133675476Y-107322857D01*
X133723095Y-107418095D01*
X134437381Y-105894285D02*
X134437381Y-106465714D01*
X134437381Y-106180000D02*
X133437381Y-106180000D01*
X133580238Y-106275238D01*
X133675476Y-106370476D01*
X133723095Y-106465714D01*
X133532619Y-105513333D02*
X133485000Y-105465714D01*
X133437381Y-105370476D01*
X133437381Y-105132380D01*
X133485000Y-105037142D01*
X133532619Y-104989523D01*
X133627857Y-104941904D01*
X133723095Y-104941904D01*
X133865952Y-104989523D01*
X134437381Y-105560952D01*
X134437381Y-104941904D01*
X140231953Y-61190143D02*
X140184334Y-61237762D01*
X140041477Y-61285381D01*
X139946239Y-61285381D01*
X139803381Y-61237762D01*
X139708143Y-61142524D01*
X139660524Y-61047286D01*
X139612905Y-60856810D01*
X139612905Y-60713952D01*
X139660524Y-60523476D01*
X139708143Y-60428238D01*
X139803381Y-60333000D01*
X139946239Y-60285381D01*
X140041477Y-60285381D01*
X140184334Y-60333000D01*
X140231953Y-60380619D01*
X141184334Y-61285381D02*
X140612905Y-61285381D01*
X140898619Y-61285381D02*
X140898619Y-60285381D01*
X140803381Y-60428238D01*
X140708143Y-60523476D01*
X140612905Y-60571095D01*
X142136715Y-61285381D02*
X141565286Y-61285381D01*
X141851000Y-61285381D02*
X141851000Y-60285381D01*
X141755762Y-60428238D01*
X141660524Y-60523476D01*
X141565286Y-60571095D01*
X142470048Y-60285381D02*
X143089096Y-60285381D01*
X142755762Y-60666333D01*
X142898620Y-60666333D01*
X142993858Y-60713952D01*
X143041477Y-60761571D01*
X143089096Y-60856810D01*
X143089096Y-61094905D01*
X143041477Y-61190143D01*
X142993858Y-61237762D01*
X142898620Y-61285381D01*
X142612905Y-61285381D01*
X142517667Y-61237762D01*
X142470048Y-61190143D01*
X142644953Y-73763143D02*
X142597334Y-73810762D01*
X142454477Y-73858381D01*
X142359239Y-73858381D01*
X142216381Y-73810762D01*
X142121143Y-73715524D01*
X142073524Y-73620286D01*
X142025905Y-73429810D01*
X142025905Y-73286952D01*
X142073524Y-73096476D01*
X142121143Y-73001238D01*
X142216381Y-72906000D01*
X142359239Y-72858381D01*
X142454477Y-72858381D01*
X142597334Y-72906000D01*
X142644953Y-72953619D01*
X143597334Y-73858381D02*
X143025905Y-73858381D01*
X143311619Y-73858381D02*
X143311619Y-72858381D01*
X143216381Y-73001238D01*
X143121143Y-73096476D01*
X143025905Y-73144095D01*
X144549715Y-73858381D02*
X143978286Y-73858381D01*
X144264000Y-73858381D02*
X144264000Y-72858381D01*
X144168762Y-73001238D01*
X144073524Y-73096476D01*
X143978286Y-73144095D01*
X145406858Y-73191714D02*
X145406858Y-73858381D01*
X145168762Y-72810762D02*
X144930667Y-73525048D01*
X145549715Y-73525048D01*
X162917143Y-91924047D02*
X162964762Y-91971666D01*
X163012381Y-92114523D01*
X163012381Y-92209761D01*
X162964762Y-92352619D01*
X162869524Y-92447857D01*
X162774286Y-92495476D01*
X162583810Y-92543095D01*
X162440952Y-92543095D01*
X162250476Y-92495476D01*
X162155238Y-92447857D01*
X162060000Y-92352619D01*
X162012381Y-92209761D01*
X162012381Y-92114523D01*
X162060000Y-91971666D01*
X162107619Y-91924047D01*
X163012381Y-90971666D02*
X163012381Y-91543095D01*
X163012381Y-91257381D02*
X162012381Y-91257381D01*
X162155238Y-91352619D01*
X162250476Y-91447857D01*
X162298095Y-91543095D01*
X163012381Y-90019285D02*
X163012381Y-90590714D01*
X163012381Y-90305000D02*
X162012381Y-90305000D01*
X162155238Y-90400238D01*
X162250476Y-90495476D01*
X162298095Y-90590714D01*
X162012381Y-89114523D02*
X162012381Y-89590714D01*
X162488571Y-89638333D01*
X162440952Y-89590714D01*
X162393333Y-89495476D01*
X162393333Y-89257380D01*
X162440952Y-89162142D01*
X162488571Y-89114523D01*
X162583810Y-89066904D01*
X162821905Y-89066904D01*
X162917143Y-89114523D01*
X162964762Y-89162142D01*
X163012381Y-89257380D01*
X163012381Y-89495476D01*
X162964762Y-89590714D01*
X162917143Y-89638333D01*
X145391143Y-80367047D02*
X145438762Y-80414666D01*
X145486381Y-80557523D01*
X145486381Y-80652761D01*
X145438762Y-80795619D01*
X145343524Y-80890857D01*
X145248286Y-80938476D01*
X145057810Y-80986095D01*
X144914952Y-80986095D01*
X144724476Y-80938476D01*
X144629238Y-80890857D01*
X144534000Y-80795619D01*
X144486381Y-80652761D01*
X144486381Y-80557523D01*
X144534000Y-80414666D01*
X144581619Y-80367047D01*
X145486381Y-79414666D02*
X145486381Y-79986095D01*
X145486381Y-79700381D02*
X144486381Y-79700381D01*
X144629238Y-79795619D01*
X144724476Y-79890857D01*
X144772095Y-79986095D01*
X145486381Y-78462285D02*
X145486381Y-79033714D01*
X145486381Y-78748000D02*
X144486381Y-78748000D01*
X144629238Y-78843238D01*
X144724476Y-78938476D01*
X144772095Y-79033714D01*
X144486381Y-77605142D02*
X144486381Y-77795619D01*
X144534000Y-77890857D01*
X144581619Y-77938476D01*
X144724476Y-78033714D01*
X144914952Y-78081333D01*
X145295905Y-78081333D01*
X145391143Y-78033714D01*
X145438762Y-77986095D01*
X145486381Y-77890857D01*
X145486381Y-77700380D01*
X145438762Y-77605142D01*
X145391143Y-77557523D01*
X145295905Y-77509904D01*
X145057810Y-77509904D01*
X144962571Y-77557523D01*
X144914952Y-77605142D01*
X144867333Y-77700380D01*
X144867333Y-77890857D01*
X144914952Y-77986095D01*
X144962571Y-78033714D01*
X145057810Y-78081333D01*
X155297143Y-91924047D02*
X155344762Y-91971666D01*
X155392381Y-92114523D01*
X155392381Y-92209761D01*
X155344762Y-92352619D01*
X155249524Y-92447857D01*
X155154286Y-92495476D01*
X154963810Y-92543095D01*
X154820952Y-92543095D01*
X154630476Y-92495476D01*
X154535238Y-92447857D01*
X154440000Y-92352619D01*
X154392381Y-92209761D01*
X154392381Y-92114523D01*
X154440000Y-91971666D01*
X154487619Y-91924047D01*
X155392381Y-90971666D02*
X155392381Y-91543095D01*
X155392381Y-91257381D02*
X154392381Y-91257381D01*
X154535238Y-91352619D01*
X154630476Y-91447857D01*
X154678095Y-91543095D01*
X155392381Y-90019285D02*
X155392381Y-90590714D01*
X155392381Y-90305000D02*
X154392381Y-90305000D01*
X154535238Y-90400238D01*
X154630476Y-90495476D01*
X154678095Y-90590714D01*
X154392381Y-89685952D02*
X154392381Y-89019285D01*
X155392381Y-89447857D01*
X159107143Y-91924047D02*
X159154762Y-91971666D01*
X159202381Y-92114523D01*
X159202381Y-92209761D01*
X159154762Y-92352619D01*
X159059524Y-92447857D01*
X158964286Y-92495476D01*
X158773810Y-92543095D01*
X158630952Y-92543095D01*
X158440476Y-92495476D01*
X158345238Y-92447857D01*
X158250000Y-92352619D01*
X158202381Y-92209761D01*
X158202381Y-92114523D01*
X158250000Y-91971666D01*
X158297619Y-91924047D01*
X159202381Y-90971666D02*
X159202381Y-91543095D01*
X159202381Y-91257381D02*
X158202381Y-91257381D01*
X158345238Y-91352619D01*
X158440476Y-91447857D01*
X158488095Y-91543095D01*
X159202381Y-90019285D02*
X159202381Y-90590714D01*
X159202381Y-90305000D02*
X158202381Y-90305000D01*
X158345238Y-90400238D01*
X158440476Y-90495476D01*
X158488095Y-90590714D01*
X158630952Y-89447857D02*
X158583333Y-89543095D01*
X158535714Y-89590714D01*
X158440476Y-89638333D01*
X158392857Y-89638333D01*
X158297619Y-89590714D01*
X158250000Y-89543095D01*
X158202381Y-89447857D01*
X158202381Y-89257380D01*
X158250000Y-89162142D01*
X158297619Y-89114523D01*
X158392857Y-89066904D01*
X158440476Y-89066904D01*
X158535714Y-89114523D01*
X158583333Y-89162142D01*
X158630952Y-89257380D01*
X158630952Y-89447857D01*
X158678571Y-89543095D01*
X158726190Y-89590714D01*
X158821429Y-89638333D01*
X159011905Y-89638333D01*
X159107143Y-89590714D01*
X159154762Y-89543095D01*
X159202381Y-89447857D01*
X159202381Y-89257380D01*
X159154762Y-89162142D01*
X159107143Y-89114523D01*
X159011905Y-89066904D01*
X158821429Y-89066904D01*
X158726190Y-89114523D01*
X158678571Y-89162142D01*
X158630952Y-89257380D01*
X161012143Y-91924047D02*
X161059762Y-91971666D01*
X161107381Y-92114523D01*
X161107381Y-92209761D01*
X161059762Y-92352619D01*
X160964524Y-92447857D01*
X160869286Y-92495476D01*
X160678810Y-92543095D01*
X160535952Y-92543095D01*
X160345476Y-92495476D01*
X160250238Y-92447857D01*
X160155000Y-92352619D01*
X160107381Y-92209761D01*
X160107381Y-92114523D01*
X160155000Y-91971666D01*
X160202619Y-91924047D01*
X161107381Y-90971666D02*
X161107381Y-91543095D01*
X161107381Y-91257381D02*
X160107381Y-91257381D01*
X160250238Y-91352619D01*
X160345476Y-91447857D01*
X160393095Y-91543095D01*
X161107381Y-90019285D02*
X161107381Y-90590714D01*
X161107381Y-90305000D02*
X160107381Y-90305000D01*
X160250238Y-90400238D01*
X160345476Y-90495476D01*
X160393095Y-90590714D01*
X161107381Y-89543095D02*
X161107381Y-89352619D01*
X161059762Y-89257380D01*
X161012143Y-89209761D01*
X160869286Y-89114523D01*
X160678810Y-89066904D01*
X160297857Y-89066904D01*
X160202619Y-89114523D01*
X160155000Y-89162142D01*
X160107381Y-89257380D01*
X160107381Y-89447857D01*
X160155000Y-89543095D01*
X160202619Y-89590714D01*
X160297857Y-89638333D01*
X160535952Y-89638333D01*
X160631190Y-89590714D01*
X160678810Y-89543095D01*
X160726429Y-89447857D01*
X160726429Y-89257380D01*
X160678810Y-89162142D01*
X160631190Y-89114523D01*
X160535952Y-89066904D01*
X164187143Y-100814047D02*
X164234762Y-100861666D01*
X164282381Y-101004523D01*
X164282381Y-101099761D01*
X164234762Y-101242619D01*
X164139524Y-101337857D01*
X164044286Y-101385476D01*
X163853810Y-101433095D01*
X163710952Y-101433095D01*
X163520476Y-101385476D01*
X163425238Y-101337857D01*
X163330000Y-101242619D01*
X163282381Y-101099761D01*
X163282381Y-101004523D01*
X163330000Y-100861666D01*
X163377619Y-100814047D01*
X164282381Y-99861666D02*
X164282381Y-100433095D01*
X164282381Y-100147381D02*
X163282381Y-100147381D01*
X163425238Y-100242619D01*
X163520476Y-100337857D01*
X163568095Y-100433095D01*
X163377619Y-99480714D02*
X163330000Y-99433095D01*
X163282381Y-99337857D01*
X163282381Y-99099761D01*
X163330000Y-99004523D01*
X163377619Y-98956904D01*
X163472857Y-98909285D01*
X163568095Y-98909285D01*
X163710952Y-98956904D01*
X164282381Y-99528333D01*
X164282381Y-98909285D01*
X163377619Y-98528333D02*
X163330000Y-98480714D01*
X163282381Y-98385476D01*
X163282381Y-98147380D01*
X163330000Y-98052142D01*
X163377619Y-98004523D01*
X163472857Y-97956904D01*
X163568095Y-97956904D01*
X163710952Y-98004523D01*
X164282381Y-98575952D01*
X164282381Y-97956904D01*
X150217143Y-100814047D02*
X150264762Y-100861666D01*
X150312381Y-101004523D01*
X150312381Y-101099761D01*
X150264762Y-101242619D01*
X150169524Y-101337857D01*
X150074286Y-101385476D01*
X149883810Y-101433095D01*
X149740952Y-101433095D01*
X149550476Y-101385476D01*
X149455238Y-101337857D01*
X149360000Y-101242619D01*
X149312381Y-101099761D01*
X149312381Y-101004523D01*
X149360000Y-100861666D01*
X149407619Y-100814047D01*
X150312381Y-99861666D02*
X150312381Y-100433095D01*
X150312381Y-100147381D02*
X149312381Y-100147381D01*
X149455238Y-100242619D01*
X149550476Y-100337857D01*
X149598095Y-100433095D01*
X149407619Y-99480714D02*
X149360000Y-99433095D01*
X149312381Y-99337857D01*
X149312381Y-99099761D01*
X149360000Y-99004523D01*
X149407619Y-98956904D01*
X149502857Y-98909285D01*
X149598095Y-98909285D01*
X149740952Y-98956904D01*
X150312381Y-99528333D01*
X150312381Y-98909285D01*
X149312381Y-98575952D02*
X149312381Y-97956904D01*
X149693333Y-98290238D01*
X149693333Y-98147380D01*
X149740952Y-98052142D01*
X149788571Y-98004523D01*
X149883810Y-97956904D01*
X150121905Y-97956904D01*
X150217143Y-98004523D01*
X150264762Y-98052142D01*
X150312381Y-98147380D01*
X150312381Y-98433095D01*
X150264762Y-98528333D01*
X150217143Y-98575952D01*
X159107143Y-124944047D02*
X159154762Y-124991666D01*
X159202381Y-125134523D01*
X159202381Y-125229761D01*
X159154762Y-125372619D01*
X159059524Y-125467857D01*
X158964286Y-125515476D01*
X158773810Y-125563095D01*
X158630952Y-125563095D01*
X158440476Y-125515476D01*
X158345238Y-125467857D01*
X158250000Y-125372619D01*
X158202381Y-125229761D01*
X158202381Y-125134523D01*
X158250000Y-124991666D01*
X158297619Y-124944047D01*
X158297619Y-124563095D02*
X158250000Y-124515476D01*
X158202381Y-124420238D01*
X158202381Y-124182142D01*
X158250000Y-124086904D01*
X158297619Y-124039285D01*
X158392857Y-123991666D01*
X158488095Y-123991666D01*
X158630952Y-124039285D01*
X159202381Y-124610714D01*
X159202381Y-123991666D01*
X158202381Y-123372619D02*
X158202381Y-123277380D01*
X158250000Y-123182142D01*
X158297619Y-123134523D01*
X158392857Y-123086904D01*
X158583333Y-123039285D01*
X158821429Y-123039285D01*
X159011905Y-123086904D01*
X159107143Y-123134523D01*
X159154762Y-123182142D01*
X159202381Y-123277380D01*
X159202381Y-123372619D01*
X159154762Y-123467857D01*
X159107143Y-123515476D01*
X159011905Y-123563095D01*
X158821429Y-123610714D01*
X158583333Y-123610714D01*
X158392857Y-123563095D01*
X158297619Y-123515476D01*
X158250000Y-123467857D01*
X158202381Y-123372619D01*
X159202381Y-122086904D02*
X159202381Y-122658333D01*
X159202381Y-122372619D02*
X158202381Y-122372619D01*
X158345238Y-122467857D01*
X158440476Y-122563095D01*
X158488095Y-122658333D01*
X107037143Y-98274047D02*
X107084762Y-98321666D01*
X107132381Y-98464523D01*
X107132381Y-98559761D01*
X107084762Y-98702619D01*
X106989524Y-98797857D01*
X106894286Y-98845476D01*
X106703810Y-98893095D01*
X106560952Y-98893095D01*
X106370476Y-98845476D01*
X106275238Y-98797857D01*
X106180000Y-98702619D01*
X106132381Y-98559761D01*
X106132381Y-98464523D01*
X106180000Y-98321666D01*
X106227619Y-98274047D01*
X106227619Y-97893095D02*
X106180000Y-97845476D01*
X106132381Y-97750238D01*
X106132381Y-97512142D01*
X106180000Y-97416904D01*
X106227619Y-97369285D01*
X106322857Y-97321666D01*
X106418095Y-97321666D01*
X106560952Y-97369285D01*
X107132381Y-97940714D01*
X107132381Y-97321666D01*
X106132381Y-96702619D02*
X106132381Y-96607380D01*
X106180000Y-96512142D01*
X106227619Y-96464523D01*
X106322857Y-96416904D01*
X106513333Y-96369285D01*
X106751429Y-96369285D01*
X106941905Y-96416904D01*
X107037143Y-96464523D01*
X107084762Y-96512142D01*
X107132381Y-96607380D01*
X107132381Y-96702619D01*
X107084762Y-96797857D01*
X107037143Y-96845476D01*
X106941905Y-96893095D01*
X106751429Y-96940714D01*
X106513333Y-96940714D01*
X106322857Y-96893095D01*
X106227619Y-96845476D01*
X106180000Y-96797857D01*
X106132381Y-96702619D01*
X106227619Y-95988333D02*
X106180000Y-95940714D01*
X106132381Y-95845476D01*
X106132381Y-95607380D01*
X106180000Y-95512142D01*
X106227619Y-95464523D01*
X106322857Y-95416904D01*
X106418095Y-95416904D01*
X106560952Y-95464523D01*
X107132381Y-96035952D01*
X107132381Y-95416904D01*
X105560953Y-117197143D02*
X105513334Y-117244762D01*
X105370477Y-117292381D01*
X105275239Y-117292381D01*
X105132381Y-117244762D01*
X105037143Y-117149524D01*
X104989524Y-117054286D01*
X104941905Y-116863810D01*
X104941905Y-116720952D01*
X104989524Y-116530476D01*
X105037143Y-116435238D01*
X105132381Y-116340000D01*
X105275239Y-116292381D01*
X105370477Y-116292381D01*
X105513334Y-116340000D01*
X105560953Y-116387619D01*
X105941905Y-116387619D02*
X105989524Y-116340000D01*
X106084762Y-116292381D01*
X106322858Y-116292381D01*
X106418096Y-116340000D01*
X106465715Y-116387619D01*
X106513334Y-116482857D01*
X106513334Y-116578095D01*
X106465715Y-116720952D01*
X105894286Y-117292381D01*
X106513334Y-117292381D01*
X107132381Y-116292381D02*
X107227620Y-116292381D01*
X107322858Y-116340000D01*
X107370477Y-116387619D01*
X107418096Y-116482857D01*
X107465715Y-116673333D01*
X107465715Y-116911429D01*
X107418096Y-117101905D01*
X107370477Y-117197143D01*
X107322858Y-117244762D01*
X107227620Y-117292381D01*
X107132381Y-117292381D01*
X107037143Y-117244762D01*
X106989524Y-117197143D01*
X106941905Y-117101905D01*
X106894286Y-116911429D01*
X106894286Y-116673333D01*
X106941905Y-116482857D01*
X106989524Y-116387619D01*
X107037143Y-116340000D01*
X107132381Y-116292381D01*
X107799048Y-116292381D02*
X108418096Y-116292381D01*
X108084762Y-116673333D01*
X108227620Y-116673333D01*
X108322858Y-116720952D01*
X108370477Y-116768571D01*
X108418096Y-116863810D01*
X108418096Y-117101905D01*
X108370477Y-117197143D01*
X108322858Y-117244762D01*
X108227620Y-117292381D01*
X107941905Y-117292381D01*
X107846667Y-117244762D01*
X107799048Y-117197143D01*
X143025953Y-121007143D02*
X142978334Y-121054762D01*
X142835477Y-121102381D01*
X142740239Y-121102381D01*
X142597381Y-121054762D01*
X142502143Y-120959524D01*
X142454524Y-120864286D01*
X142406905Y-120673810D01*
X142406905Y-120530952D01*
X142454524Y-120340476D01*
X142502143Y-120245238D01*
X142597381Y-120150000D01*
X142740239Y-120102381D01*
X142835477Y-120102381D01*
X142978334Y-120150000D01*
X143025953Y-120197619D01*
X143406905Y-120197619D02*
X143454524Y-120150000D01*
X143549762Y-120102381D01*
X143787858Y-120102381D01*
X143883096Y-120150000D01*
X143930715Y-120197619D01*
X143978334Y-120292857D01*
X143978334Y-120388095D01*
X143930715Y-120530952D01*
X143359286Y-121102381D01*
X143978334Y-121102381D01*
X144597381Y-120102381D02*
X144692620Y-120102381D01*
X144787858Y-120150000D01*
X144835477Y-120197619D01*
X144883096Y-120292857D01*
X144930715Y-120483333D01*
X144930715Y-120721429D01*
X144883096Y-120911905D01*
X144835477Y-121007143D01*
X144787858Y-121054762D01*
X144692620Y-121102381D01*
X144597381Y-121102381D01*
X144502143Y-121054762D01*
X144454524Y-121007143D01*
X144406905Y-120911905D01*
X144359286Y-120721429D01*
X144359286Y-120483333D01*
X144406905Y-120292857D01*
X144454524Y-120197619D01*
X144502143Y-120150000D01*
X144597381Y-120102381D01*
X145787858Y-120435714D02*
X145787858Y-121102381D01*
X145549762Y-120054762D02*
X145311667Y-120769048D01*
X145930715Y-120769048D01*
X142402143Y-129389047D02*
X142449762Y-129436666D01*
X142497381Y-129579523D01*
X142497381Y-129674761D01*
X142449762Y-129817619D01*
X142354524Y-129912857D01*
X142259286Y-129960476D01*
X142068810Y-130008095D01*
X141925952Y-130008095D01*
X141735476Y-129960476D01*
X141640238Y-129912857D01*
X141545000Y-129817619D01*
X141497381Y-129674761D01*
X141497381Y-129579523D01*
X141545000Y-129436666D01*
X141592619Y-129389047D01*
X141592619Y-129008095D02*
X141545000Y-128960476D01*
X141497381Y-128865238D01*
X141497381Y-128627142D01*
X141545000Y-128531904D01*
X141592619Y-128484285D01*
X141687857Y-128436666D01*
X141783095Y-128436666D01*
X141925952Y-128484285D01*
X142497381Y-129055714D01*
X142497381Y-128436666D01*
X141497381Y-127817619D02*
X141497381Y-127722380D01*
X141545000Y-127627142D01*
X141592619Y-127579523D01*
X141687857Y-127531904D01*
X141878333Y-127484285D01*
X142116429Y-127484285D01*
X142306905Y-127531904D01*
X142402143Y-127579523D01*
X142449762Y-127627142D01*
X142497381Y-127722380D01*
X142497381Y-127817619D01*
X142449762Y-127912857D01*
X142402143Y-127960476D01*
X142306905Y-128008095D01*
X142116429Y-128055714D01*
X141878333Y-128055714D01*
X141687857Y-128008095D01*
X141592619Y-127960476D01*
X141545000Y-127912857D01*
X141497381Y-127817619D01*
X141497381Y-126579523D02*
X141497381Y-127055714D01*
X141973571Y-127103333D01*
X141925952Y-127055714D01*
X141878333Y-126960476D01*
X141878333Y-126722380D01*
X141925952Y-126627142D01*
X141973571Y-126579523D01*
X142068810Y-126531904D01*
X142306905Y-126531904D01*
X142402143Y-126579523D01*
X142449762Y-126627142D01*
X142497381Y-126722380D01*
X142497381Y-126960476D01*
X142449762Y-127055714D01*
X142402143Y-127103333D01*
X100052143Y-114149047D02*
X100099762Y-114196666D01*
X100147381Y-114339523D01*
X100147381Y-114434761D01*
X100099762Y-114577619D01*
X100004524Y-114672857D01*
X99909286Y-114720476D01*
X99718810Y-114768095D01*
X99575952Y-114768095D01*
X99385476Y-114720476D01*
X99290238Y-114672857D01*
X99195000Y-114577619D01*
X99147381Y-114434761D01*
X99147381Y-114339523D01*
X99195000Y-114196666D01*
X99242619Y-114149047D01*
X99242619Y-113768095D02*
X99195000Y-113720476D01*
X99147381Y-113625238D01*
X99147381Y-113387142D01*
X99195000Y-113291904D01*
X99242619Y-113244285D01*
X99337857Y-113196666D01*
X99433095Y-113196666D01*
X99575952Y-113244285D01*
X100147381Y-113815714D01*
X100147381Y-113196666D01*
X99147381Y-112577619D02*
X99147381Y-112482380D01*
X99195000Y-112387142D01*
X99242619Y-112339523D01*
X99337857Y-112291904D01*
X99528333Y-112244285D01*
X99766429Y-112244285D01*
X99956905Y-112291904D01*
X100052143Y-112339523D01*
X100099762Y-112387142D01*
X100147381Y-112482380D01*
X100147381Y-112577619D01*
X100099762Y-112672857D01*
X100052143Y-112720476D01*
X99956905Y-112768095D01*
X99766429Y-112815714D01*
X99528333Y-112815714D01*
X99337857Y-112768095D01*
X99242619Y-112720476D01*
X99195000Y-112672857D01*
X99147381Y-112577619D01*
X99147381Y-111387142D02*
X99147381Y-111577619D01*
X99195000Y-111672857D01*
X99242619Y-111720476D01*
X99385476Y-111815714D01*
X99575952Y-111863333D01*
X99956905Y-111863333D01*
X100052143Y-111815714D01*
X100099762Y-111768095D01*
X100147381Y-111672857D01*
X100147381Y-111482380D01*
X100099762Y-111387142D01*
X100052143Y-111339523D01*
X99956905Y-111291904D01*
X99718810Y-111291904D01*
X99623571Y-111339523D01*
X99575952Y-111387142D01*
X99528333Y-111482380D01*
X99528333Y-111672857D01*
X99575952Y-111768095D01*
X99623571Y-111815714D01*
X99718810Y-111863333D01*
X155725953Y-121007143D02*
X155678334Y-121054762D01*
X155535477Y-121102381D01*
X155440239Y-121102381D01*
X155297381Y-121054762D01*
X155202143Y-120959524D01*
X155154524Y-120864286D01*
X155106905Y-120673810D01*
X155106905Y-120530952D01*
X155154524Y-120340476D01*
X155202143Y-120245238D01*
X155297381Y-120150000D01*
X155440239Y-120102381D01*
X155535477Y-120102381D01*
X155678334Y-120150000D01*
X155725953Y-120197619D01*
X156106905Y-120197619D02*
X156154524Y-120150000D01*
X156249762Y-120102381D01*
X156487858Y-120102381D01*
X156583096Y-120150000D01*
X156630715Y-120197619D01*
X156678334Y-120292857D01*
X156678334Y-120388095D01*
X156630715Y-120530952D01*
X156059286Y-121102381D01*
X156678334Y-121102381D01*
X157297381Y-120102381D02*
X157392620Y-120102381D01*
X157487858Y-120150000D01*
X157535477Y-120197619D01*
X157583096Y-120292857D01*
X157630715Y-120483333D01*
X157630715Y-120721429D01*
X157583096Y-120911905D01*
X157535477Y-121007143D01*
X157487858Y-121054762D01*
X157392620Y-121102381D01*
X157297381Y-121102381D01*
X157202143Y-121054762D01*
X157154524Y-121007143D01*
X157106905Y-120911905D01*
X157059286Y-120721429D01*
X157059286Y-120483333D01*
X157106905Y-120292857D01*
X157154524Y-120197619D01*
X157202143Y-120150000D01*
X157297381Y-120102381D01*
X157964048Y-120102381D02*
X158630715Y-120102381D01*
X158202143Y-121102381D01*
X140887143Y-124944047D02*
X140934762Y-124991666D01*
X140982381Y-125134523D01*
X140982381Y-125229761D01*
X140934762Y-125372619D01*
X140839524Y-125467857D01*
X140744286Y-125515476D01*
X140553810Y-125563095D01*
X140410952Y-125563095D01*
X140220476Y-125515476D01*
X140125238Y-125467857D01*
X140030000Y-125372619D01*
X139982381Y-125229761D01*
X139982381Y-125134523D01*
X140030000Y-124991666D01*
X140077619Y-124944047D01*
X140077619Y-124563095D02*
X140030000Y-124515476D01*
X139982381Y-124420238D01*
X139982381Y-124182142D01*
X140030000Y-124086904D01*
X140077619Y-124039285D01*
X140172857Y-123991666D01*
X140268095Y-123991666D01*
X140410952Y-124039285D01*
X140982381Y-124610714D01*
X140982381Y-123991666D01*
X139982381Y-123372619D02*
X139982381Y-123277380D01*
X140030000Y-123182142D01*
X140077619Y-123134523D01*
X140172857Y-123086904D01*
X140363333Y-123039285D01*
X140601429Y-123039285D01*
X140791905Y-123086904D01*
X140887143Y-123134523D01*
X140934762Y-123182142D01*
X140982381Y-123277380D01*
X140982381Y-123372619D01*
X140934762Y-123467857D01*
X140887143Y-123515476D01*
X140791905Y-123563095D01*
X140601429Y-123610714D01*
X140363333Y-123610714D01*
X140172857Y-123563095D01*
X140077619Y-123515476D01*
X140030000Y-123467857D01*
X139982381Y-123372619D01*
X140410952Y-122467857D02*
X140363333Y-122563095D01*
X140315714Y-122610714D01*
X140220476Y-122658333D01*
X140172857Y-122658333D01*
X140077619Y-122610714D01*
X140030000Y-122563095D01*
X139982381Y-122467857D01*
X139982381Y-122277380D01*
X140030000Y-122182142D01*
X140077619Y-122134523D01*
X140172857Y-122086904D01*
X140220476Y-122086904D01*
X140315714Y-122134523D01*
X140363333Y-122182142D01*
X140410952Y-122277380D01*
X140410952Y-122467857D01*
X140458571Y-122563095D01*
X140506190Y-122610714D01*
X140601429Y-122658333D01*
X140791905Y-122658333D01*
X140887143Y-122610714D01*
X140934762Y-122563095D01*
X140982381Y-122467857D01*
X140982381Y-122277380D01*
X140934762Y-122182142D01*
X140887143Y-122134523D01*
X140791905Y-122086904D01*
X140601429Y-122086904D01*
X140506190Y-122134523D01*
X140458571Y-122182142D01*
X140410952Y-122277380D01*
X117832143Y-98909047D02*
X117879762Y-98956666D01*
X117927381Y-99099523D01*
X117927381Y-99194761D01*
X117879762Y-99337619D01*
X117784524Y-99432857D01*
X117689286Y-99480476D01*
X117498810Y-99528095D01*
X117355952Y-99528095D01*
X117165476Y-99480476D01*
X117070238Y-99432857D01*
X116975000Y-99337619D01*
X116927381Y-99194761D01*
X116927381Y-99099523D01*
X116975000Y-98956666D01*
X117022619Y-98909047D01*
X117022619Y-98528095D02*
X116975000Y-98480476D01*
X116927381Y-98385238D01*
X116927381Y-98147142D01*
X116975000Y-98051904D01*
X117022619Y-98004285D01*
X117117857Y-97956666D01*
X117213095Y-97956666D01*
X117355952Y-98004285D01*
X117927381Y-98575714D01*
X117927381Y-97956666D01*
X116927381Y-97337619D02*
X116927381Y-97242380D01*
X116975000Y-97147142D01*
X117022619Y-97099523D01*
X117117857Y-97051904D01*
X117308333Y-97004285D01*
X117546429Y-97004285D01*
X117736905Y-97051904D01*
X117832143Y-97099523D01*
X117879762Y-97147142D01*
X117927381Y-97242380D01*
X117927381Y-97337619D01*
X117879762Y-97432857D01*
X117832143Y-97480476D01*
X117736905Y-97528095D01*
X117546429Y-97575714D01*
X117308333Y-97575714D01*
X117117857Y-97528095D01*
X117022619Y-97480476D01*
X116975000Y-97432857D01*
X116927381Y-97337619D01*
X117927381Y-96528095D02*
X117927381Y-96337619D01*
X117879762Y-96242380D01*
X117832143Y-96194761D01*
X117689286Y-96099523D01*
X117498810Y-96051904D01*
X117117857Y-96051904D01*
X117022619Y-96099523D01*
X116975000Y-96147142D01*
X116927381Y-96242380D01*
X116927381Y-96432857D01*
X116975000Y-96528095D01*
X117022619Y-96575714D01*
X117117857Y-96623333D01*
X117355952Y-96623333D01*
X117451190Y-96575714D01*
X117498810Y-96528095D01*
X117546429Y-96432857D01*
X117546429Y-96242380D01*
X117498810Y-96147142D01*
X117451190Y-96099523D01*
X117355952Y-96051904D01*
X116355953Y-117197143D02*
X116308334Y-117244762D01*
X116165477Y-117292381D01*
X116070239Y-117292381D01*
X115927381Y-117244762D01*
X115832143Y-117149524D01*
X115784524Y-117054286D01*
X115736905Y-116863810D01*
X115736905Y-116720952D01*
X115784524Y-116530476D01*
X115832143Y-116435238D01*
X115927381Y-116340000D01*
X116070239Y-116292381D01*
X116165477Y-116292381D01*
X116308334Y-116340000D01*
X116355953Y-116387619D01*
X116736905Y-116387619D02*
X116784524Y-116340000D01*
X116879762Y-116292381D01*
X117117858Y-116292381D01*
X117213096Y-116340000D01*
X117260715Y-116387619D01*
X117308334Y-116482857D01*
X117308334Y-116578095D01*
X117260715Y-116720952D01*
X116689286Y-117292381D01*
X117308334Y-117292381D01*
X118260715Y-117292381D02*
X117689286Y-117292381D01*
X117975000Y-117292381D02*
X117975000Y-116292381D01*
X117879762Y-116435238D01*
X117784524Y-116530476D01*
X117689286Y-116578095D01*
X118879762Y-116292381D02*
X118975001Y-116292381D01*
X119070239Y-116340000D01*
X119117858Y-116387619D01*
X119165477Y-116482857D01*
X119213096Y-116673333D01*
X119213096Y-116911429D01*
X119165477Y-117101905D01*
X119117858Y-117197143D01*
X119070239Y-117244762D01*
X118975001Y-117292381D01*
X118879762Y-117292381D01*
X118784524Y-117244762D01*
X118736905Y-117197143D01*
X118689286Y-117101905D01*
X118641667Y-116911429D01*
X118641667Y-116673333D01*
X118689286Y-116482857D01*
X118736905Y-116387619D01*
X118784524Y-116340000D01*
X118879762Y-116292381D01*
X123975953Y-121007143D02*
X123928334Y-121054762D01*
X123785477Y-121102381D01*
X123690239Y-121102381D01*
X123547381Y-121054762D01*
X123452143Y-120959524D01*
X123404524Y-120864286D01*
X123356905Y-120673810D01*
X123356905Y-120530952D01*
X123404524Y-120340476D01*
X123452143Y-120245238D01*
X123547381Y-120150000D01*
X123690239Y-120102381D01*
X123785477Y-120102381D01*
X123928334Y-120150000D01*
X123975953Y-120197619D01*
X124356905Y-120197619D02*
X124404524Y-120150000D01*
X124499762Y-120102381D01*
X124737858Y-120102381D01*
X124833096Y-120150000D01*
X124880715Y-120197619D01*
X124928334Y-120292857D01*
X124928334Y-120388095D01*
X124880715Y-120530952D01*
X124309286Y-121102381D01*
X124928334Y-121102381D01*
X125880715Y-121102381D02*
X125309286Y-121102381D01*
X125595000Y-121102381D02*
X125595000Y-120102381D01*
X125499762Y-120245238D01*
X125404524Y-120340476D01*
X125309286Y-120388095D01*
X126833096Y-121102381D02*
X126261667Y-121102381D01*
X126547381Y-121102381D02*
X126547381Y-120102381D01*
X126452143Y-120245238D01*
X126356905Y-120340476D01*
X126261667Y-120388095D01*
X123987143Y-129389047D02*
X124034762Y-129436666D01*
X124082381Y-129579523D01*
X124082381Y-129674761D01*
X124034762Y-129817619D01*
X123939524Y-129912857D01*
X123844286Y-129960476D01*
X123653810Y-130008095D01*
X123510952Y-130008095D01*
X123320476Y-129960476D01*
X123225238Y-129912857D01*
X123130000Y-129817619D01*
X123082381Y-129674761D01*
X123082381Y-129579523D01*
X123130000Y-129436666D01*
X123177619Y-129389047D01*
X123177619Y-129008095D02*
X123130000Y-128960476D01*
X123082381Y-128865238D01*
X123082381Y-128627142D01*
X123130000Y-128531904D01*
X123177619Y-128484285D01*
X123272857Y-128436666D01*
X123368095Y-128436666D01*
X123510952Y-128484285D01*
X124082381Y-129055714D01*
X124082381Y-128436666D01*
X124082381Y-127484285D02*
X124082381Y-128055714D01*
X124082381Y-127770000D02*
X123082381Y-127770000D01*
X123225238Y-127865238D01*
X123320476Y-127960476D01*
X123368095Y-128055714D01*
X123177619Y-127103333D02*
X123130000Y-127055714D01*
X123082381Y-126960476D01*
X123082381Y-126722380D01*
X123130000Y-126627142D01*
X123177619Y-126579523D01*
X123272857Y-126531904D01*
X123368095Y-126531904D01*
X123510952Y-126579523D01*
X124082381Y-127150952D01*
X124082381Y-126531904D01*
X110847143Y-114149047D02*
X110894762Y-114196666D01*
X110942381Y-114339523D01*
X110942381Y-114434761D01*
X110894762Y-114577619D01*
X110799524Y-114672857D01*
X110704286Y-114720476D01*
X110513810Y-114768095D01*
X110370952Y-114768095D01*
X110180476Y-114720476D01*
X110085238Y-114672857D01*
X109990000Y-114577619D01*
X109942381Y-114434761D01*
X109942381Y-114339523D01*
X109990000Y-114196666D01*
X110037619Y-114149047D01*
X110037619Y-113768095D02*
X109990000Y-113720476D01*
X109942381Y-113625238D01*
X109942381Y-113387142D01*
X109990000Y-113291904D01*
X110037619Y-113244285D01*
X110132857Y-113196666D01*
X110228095Y-113196666D01*
X110370952Y-113244285D01*
X110942381Y-113815714D01*
X110942381Y-113196666D01*
X110942381Y-112244285D02*
X110942381Y-112815714D01*
X110942381Y-112530000D02*
X109942381Y-112530000D01*
X110085238Y-112625238D01*
X110180476Y-112720476D01*
X110228095Y-112815714D01*
X109942381Y-111910952D02*
X109942381Y-111291904D01*
X110323333Y-111625238D01*
X110323333Y-111482380D01*
X110370952Y-111387142D01*
X110418571Y-111339523D01*
X110513810Y-111291904D01*
X110751905Y-111291904D01*
X110847143Y-111339523D01*
X110894762Y-111387142D01*
X110942381Y-111482380D01*
X110942381Y-111768095D01*
X110894762Y-111863333D01*
X110847143Y-111910952D01*
X137310953Y-121007143D02*
X137263334Y-121054762D01*
X137120477Y-121102381D01*
X137025239Y-121102381D01*
X136882381Y-121054762D01*
X136787143Y-120959524D01*
X136739524Y-120864286D01*
X136691905Y-120673810D01*
X136691905Y-120530952D01*
X136739524Y-120340476D01*
X136787143Y-120245238D01*
X136882381Y-120150000D01*
X137025239Y-120102381D01*
X137120477Y-120102381D01*
X137263334Y-120150000D01*
X137310953Y-120197619D01*
X137691905Y-120197619D02*
X137739524Y-120150000D01*
X137834762Y-120102381D01*
X138072858Y-120102381D01*
X138168096Y-120150000D01*
X138215715Y-120197619D01*
X138263334Y-120292857D01*
X138263334Y-120388095D01*
X138215715Y-120530952D01*
X137644286Y-121102381D01*
X138263334Y-121102381D01*
X139215715Y-121102381D02*
X138644286Y-121102381D01*
X138930000Y-121102381D02*
X138930000Y-120102381D01*
X138834762Y-120245238D01*
X138739524Y-120340476D01*
X138644286Y-120388095D01*
X140072858Y-120435714D02*
X140072858Y-121102381D01*
X139834762Y-120054762D02*
X139596667Y-120769048D01*
X140215715Y-120769048D01*
X122472143Y-124944047D02*
X122519762Y-124991666D01*
X122567381Y-125134523D01*
X122567381Y-125229761D01*
X122519762Y-125372619D01*
X122424524Y-125467857D01*
X122329286Y-125515476D01*
X122138810Y-125563095D01*
X121995952Y-125563095D01*
X121805476Y-125515476D01*
X121710238Y-125467857D01*
X121615000Y-125372619D01*
X121567381Y-125229761D01*
X121567381Y-125134523D01*
X121615000Y-124991666D01*
X121662619Y-124944047D01*
X121662619Y-124563095D02*
X121615000Y-124515476D01*
X121567381Y-124420238D01*
X121567381Y-124182142D01*
X121615000Y-124086904D01*
X121662619Y-124039285D01*
X121757857Y-123991666D01*
X121853095Y-123991666D01*
X121995952Y-124039285D01*
X122567381Y-124610714D01*
X122567381Y-123991666D01*
X122567381Y-123039285D02*
X122567381Y-123610714D01*
X122567381Y-123325000D02*
X121567381Y-123325000D01*
X121710238Y-123420238D01*
X121805476Y-123515476D01*
X121853095Y-123610714D01*
X121567381Y-122134523D02*
X121567381Y-122610714D01*
X122043571Y-122658333D01*
X121995952Y-122610714D01*
X121948333Y-122515476D01*
X121948333Y-122277380D01*
X121995952Y-122182142D01*
X122043571Y-122134523D01*
X122138810Y-122086904D01*
X122376905Y-122086904D01*
X122472143Y-122134523D01*
X122519762Y-122182142D01*
X122567381Y-122277380D01*
X122567381Y-122515476D01*
X122519762Y-122610714D01*
X122472143Y-122658333D01*
X105560953Y-121007143D02*
X105513334Y-121054762D01*
X105370477Y-121102381D01*
X105275239Y-121102381D01*
X105132381Y-121054762D01*
X105037143Y-120959524D01*
X104989524Y-120864286D01*
X104941905Y-120673810D01*
X104941905Y-120530952D01*
X104989524Y-120340476D01*
X105037143Y-120245238D01*
X105132381Y-120150000D01*
X105275239Y-120102381D01*
X105370477Y-120102381D01*
X105513334Y-120150000D01*
X105560953Y-120197619D01*
X105941905Y-120197619D02*
X105989524Y-120150000D01*
X106084762Y-120102381D01*
X106322858Y-120102381D01*
X106418096Y-120150000D01*
X106465715Y-120197619D01*
X106513334Y-120292857D01*
X106513334Y-120388095D01*
X106465715Y-120530952D01*
X105894286Y-121102381D01*
X106513334Y-121102381D01*
X107465715Y-121102381D02*
X106894286Y-121102381D01*
X107180000Y-121102381D02*
X107180000Y-120102381D01*
X107084762Y-120245238D01*
X106989524Y-120340476D01*
X106894286Y-120388095D01*
X108322858Y-120102381D02*
X108132381Y-120102381D01*
X108037143Y-120150000D01*
X107989524Y-120197619D01*
X107894286Y-120340476D01*
X107846667Y-120530952D01*
X107846667Y-120911905D01*
X107894286Y-121007143D01*
X107941905Y-121054762D01*
X108037143Y-121102381D01*
X108227620Y-121102381D01*
X108322858Y-121054762D01*
X108370477Y-121007143D01*
X108418096Y-120911905D01*
X108418096Y-120673810D01*
X108370477Y-120578571D01*
X108322858Y-120530952D01*
X108227620Y-120483333D01*
X108037143Y-120483333D01*
X107941905Y-120530952D01*
X107894286Y-120578571D01*
X107846667Y-120673810D01*
X105572143Y-129389047D02*
X105619762Y-129436666D01*
X105667381Y-129579523D01*
X105667381Y-129674761D01*
X105619762Y-129817619D01*
X105524524Y-129912857D01*
X105429286Y-129960476D01*
X105238810Y-130008095D01*
X105095952Y-130008095D01*
X104905476Y-129960476D01*
X104810238Y-129912857D01*
X104715000Y-129817619D01*
X104667381Y-129674761D01*
X104667381Y-129579523D01*
X104715000Y-129436666D01*
X104762619Y-129389047D01*
X104762619Y-129008095D02*
X104715000Y-128960476D01*
X104667381Y-128865238D01*
X104667381Y-128627142D01*
X104715000Y-128531904D01*
X104762619Y-128484285D01*
X104857857Y-128436666D01*
X104953095Y-128436666D01*
X105095952Y-128484285D01*
X105667381Y-129055714D01*
X105667381Y-128436666D01*
X105667381Y-127484285D02*
X105667381Y-128055714D01*
X105667381Y-127770000D02*
X104667381Y-127770000D01*
X104810238Y-127865238D01*
X104905476Y-127960476D01*
X104953095Y-128055714D01*
X104667381Y-127150952D02*
X104667381Y-126484285D01*
X105667381Y-126912857D01*
X118895953Y-121007143D02*
X118848334Y-121054762D01*
X118705477Y-121102381D01*
X118610239Y-121102381D01*
X118467381Y-121054762D01*
X118372143Y-120959524D01*
X118324524Y-120864286D01*
X118276905Y-120673810D01*
X118276905Y-120530952D01*
X118324524Y-120340476D01*
X118372143Y-120245238D01*
X118467381Y-120150000D01*
X118610239Y-120102381D01*
X118705477Y-120102381D01*
X118848334Y-120150000D01*
X118895953Y-120197619D01*
X119276905Y-120197619D02*
X119324524Y-120150000D01*
X119419762Y-120102381D01*
X119657858Y-120102381D01*
X119753096Y-120150000D01*
X119800715Y-120197619D01*
X119848334Y-120292857D01*
X119848334Y-120388095D01*
X119800715Y-120530952D01*
X119229286Y-121102381D01*
X119848334Y-121102381D01*
X120800715Y-121102381D02*
X120229286Y-121102381D01*
X120515000Y-121102381D02*
X120515000Y-120102381D01*
X120419762Y-120245238D01*
X120324524Y-120340476D01*
X120229286Y-120388095D01*
X121372143Y-120530952D02*
X121276905Y-120483333D01*
X121229286Y-120435714D01*
X121181667Y-120340476D01*
X121181667Y-120292857D01*
X121229286Y-120197619D01*
X121276905Y-120150000D01*
X121372143Y-120102381D01*
X121562620Y-120102381D01*
X121657858Y-120150000D01*
X121705477Y-120197619D01*
X121753096Y-120292857D01*
X121753096Y-120340476D01*
X121705477Y-120435714D01*
X121657858Y-120483333D01*
X121562620Y-120530952D01*
X121372143Y-120530952D01*
X121276905Y-120578571D01*
X121229286Y-120626190D01*
X121181667Y-120721429D01*
X121181667Y-120911905D01*
X121229286Y-121007143D01*
X121276905Y-121054762D01*
X121372143Y-121102381D01*
X121562620Y-121102381D01*
X121657858Y-121054762D01*
X121705477Y-121007143D01*
X121753096Y-120911905D01*
X121753096Y-120721429D01*
X121705477Y-120626190D01*
X121657858Y-120578571D01*
X121562620Y-120530952D01*
X155725953Y-70497381D02*
X155392619Y-70021190D01*
X155154524Y-70497381D02*
X155154524Y-69497381D01*
X155535477Y-69497381D01*
X155630715Y-69545000D01*
X155678334Y-69592619D01*
X155725953Y-69687857D01*
X155725953Y-69830714D01*
X155678334Y-69925952D01*
X155630715Y-69973571D01*
X155535477Y-70021190D01*
X155154524Y-70021190D01*
X156678334Y-70497381D02*
X156106905Y-70497381D01*
X156392619Y-70497381D02*
X156392619Y-69497381D01*
X156297381Y-69640238D01*
X156202143Y-69735476D01*
X156106905Y-69783095D01*
X157297381Y-69497381D02*
X157392620Y-69497381D01*
X157487858Y-69545000D01*
X157535477Y-69592619D01*
X157583096Y-69687857D01*
X157630715Y-69878333D01*
X157630715Y-70116429D01*
X157583096Y-70306905D01*
X157535477Y-70402143D01*
X157487858Y-70449762D01*
X157392620Y-70497381D01*
X157297381Y-70497381D01*
X157202143Y-70449762D01*
X157154524Y-70402143D01*
X157106905Y-70306905D01*
X157059286Y-70116429D01*
X157059286Y-69878333D01*
X157106905Y-69687857D01*
X157154524Y-69592619D01*
X157202143Y-69545000D01*
X157297381Y-69497381D01*
X158583096Y-70497381D02*
X158011667Y-70497381D01*
X158297381Y-70497381D02*
X158297381Y-69497381D01*
X158202143Y-69640238D01*
X158106905Y-69735476D01*
X158011667Y-69783095D01*
X148105953Y-70302381D02*
X147772619Y-69826190D01*
X147534524Y-70302381D02*
X147534524Y-69302381D01*
X147915477Y-69302381D01*
X148010715Y-69350000D01*
X148058334Y-69397619D01*
X148105953Y-69492857D01*
X148105953Y-69635714D01*
X148058334Y-69730952D01*
X148010715Y-69778571D01*
X147915477Y-69826190D01*
X147534524Y-69826190D01*
X149058334Y-70302381D02*
X148486905Y-70302381D01*
X148772619Y-70302381D02*
X148772619Y-69302381D01*
X148677381Y-69445238D01*
X148582143Y-69540476D01*
X148486905Y-69588095D01*
X149677381Y-69302381D02*
X149772620Y-69302381D01*
X149867858Y-69350000D01*
X149915477Y-69397619D01*
X149963096Y-69492857D01*
X150010715Y-69683333D01*
X150010715Y-69921429D01*
X149963096Y-70111905D01*
X149915477Y-70207143D01*
X149867858Y-70254762D01*
X149772620Y-70302381D01*
X149677381Y-70302381D01*
X149582143Y-70254762D01*
X149534524Y-70207143D01*
X149486905Y-70111905D01*
X149439286Y-69921429D01*
X149439286Y-69683333D01*
X149486905Y-69492857D01*
X149534524Y-69397619D01*
X149582143Y-69350000D01*
X149677381Y-69302381D01*
X150391667Y-69397619D02*
X150439286Y-69350000D01*
X150534524Y-69302381D01*
X150772620Y-69302381D01*
X150867858Y-69350000D01*
X150915477Y-69397619D01*
X150963096Y-69492857D01*
X150963096Y-69588095D01*
X150915477Y-69730952D01*
X150344048Y-70302381D01*
X150963096Y-70302381D01*
X142644953Y-75128381D02*
X142311619Y-74652190D01*
X142073524Y-75128381D02*
X142073524Y-74128381D01*
X142454477Y-74128381D01*
X142549715Y-74176000D01*
X142597334Y-74223619D01*
X142644953Y-74318857D01*
X142644953Y-74461714D01*
X142597334Y-74556952D01*
X142549715Y-74604571D01*
X142454477Y-74652190D01*
X142073524Y-74652190D01*
X143597334Y-75128381D02*
X143025905Y-75128381D01*
X143311619Y-75128381D02*
X143311619Y-74128381D01*
X143216381Y-74271238D01*
X143121143Y-74366476D01*
X143025905Y-74414095D01*
X144216381Y-74128381D02*
X144311620Y-74128381D01*
X144406858Y-74176000D01*
X144454477Y-74223619D01*
X144502096Y-74318857D01*
X144549715Y-74509333D01*
X144549715Y-74747429D01*
X144502096Y-74937905D01*
X144454477Y-75033143D01*
X144406858Y-75080762D01*
X144311620Y-75128381D01*
X144216381Y-75128381D01*
X144121143Y-75080762D01*
X144073524Y-75033143D01*
X144025905Y-74937905D01*
X143978286Y-74747429D01*
X143978286Y-74509333D01*
X144025905Y-74318857D01*
X144073524Y-74223619D01*
X144121143Y-74176000D01*
X144216381Y-74128381D01*
X144883048Y-74128381D02*
X145502096Y-74128381D01*
X145168762Y-74509333D01*
X145311620Y-74509333D01*
X145406858Y-74556952D01*
X145454477Y-74604571D01*
X145502096Y-74699810D01*
X145502096Y-74937905D01*
X145454477Y-75033143D01*
X145406858Y-75080762D01*
X145311620Y-75128381D01*
X145025905Y-75128381D01*
X144930667Y-75080762D01*
X144883048Y-75033143D01*
X142644953Y-76398381D02*
X142311619Y-75922190D01*
X142073524Y-76398381D02*
X142073524Y-75398381D01*
X142454477Y-75398381D01*
X142549715Y-75446000D01*
X142597334Y-75493619D01*
X142644953Y-75588857D01*
X142644953Y-75731714D01*
X142597334Y-75826952D01*
X142549715Y-75874571D01*
X142454477Y-75922190D01*
X142073524Y-75922190D01*
X143597334Y-76398381D02*
X143025905Y-76398381D01*
X143311619Y-76398381D02*
X143311619Y-75398381D01*
X143216381Y-75541238D01*
X143121143Y-75636476D01*
X143025905Y-75684095D01*
X144216381Y-75398381D02*
X144311620Y-75398381D01*
X144406858Y-75446000D01*
X144454477Y-75493619D01*
X144502096Y-75588857D01*
X144549715Y-75779333D01*
X144549715Y-76017429D01*
X144502096Y-76207905D01*
X144454477Y-76303143D01*
X144406858Y-76350762D01*
X144311620Y-76398381D01*
X144216381Y-76398381D01*
X144121143Y-76350762D01*
X144073524Y-76303143D01*
X144025905Y-76207905D01*
X143978286Y-76017429D01*
X143978286Y-75779333D01*
X144025905Y-75588857D01*
X144073524Y-75493619D01*
X144121143Y-75446000D01*
X144216381Y-75398381D01*
X145406858Y-75731714D02*
X145406858Y-76398381D01*
X145168762Y-75350762D02*
X144930667Y-76065048D01*
X145549715Y-76065048D01*
X146454953Y-82054381D02*
X146121619Y-81578190D01*
X145883524Y-82054381D02*
X145883524Y-81054381D01*
X146264477Y-81054381D01*
X146359715Y-81102000D01*
X146407334Y-81149619D01*
X146454953Y-81244857D01*
X146454953Y-81387714D01*
X146407334Y-81482952D01*
X146359715Y-81530571D01*
X146264477Y-81578190D01*
X145883524Y-81578190D01*
X147407334Y-82054381D02*
X146835905Y-82054381D01*
X147121619Y-82054381D02*
X147121619Y-81054381D01*
X147026381Y-81197238D01*
X146931143Y-81292476D01*
X146835905Y-81340095D01*
X148026381Y-81054381D02*
X148121620Y-81054381D01*
X148216858Y-81102000D01*
X148264477Y-81149619D01*
X148312096Y-81244857D01*
X148359715Y-81435333D01*
X148359715Y-81673429D01*
X148312096Y-81863905D01*
X148264477Y-81959143D01*
X148216858Y-82006762D01*
X148121620Y-82054381D01*
X148026381Y-82054381D01*
X147931143Y-82006762D01*
X147883524Y-81959143D01*
X147835905Y-81863905D01*
X147788286Y-81673429D01*
X147788286Y-81435333D01*
X147835905Y-81244857D01*
X147883524Y-81149619D01*
X147931143Y-81102000D01*
X148026381Y-81054381D01*
X149264477Y-81054381D02*
X148788286Y-81054381D01*
X148740667Y-81530571D01*
X148788286Y-81482952D01*
X148883524Y-81435333D01*
X149121620Y-81435333D01*
X149216858Y-81482952D01*
X149264477Y-81530571D01*
X149312096Y-81625810D01*
X149312096Y-81863905D01*
X149264477Y-81959143D01*
X149216858Y-82006762D01*
X149121620Y-82054381D01*
X148883524Y-82054381D01*
X148788286Y-82006762D01*
X148740667Y-81959143D01*
X161742381Y-97004047D02*
X161266190Y-97337381D01*
X161742381Y-97575476D02*
X160742381Y-97575476D01*
X160742381Y-97194523D01*
X160790000Y-97099285D01*
X160837619Y-97051666D01*
X160932857Y-97004047D01*
X161075714Y-97004047D01*
X161170952Y-97051666D01*
X161218571Y-97099285D01*
X161266190Y-97194523D01*
X161266190Y-97575476D01*
X161742381Y-96051666D02*
X161742381Y-96623095D01*
X161742381Y-96337381D02*
X160742381Y-96337381D01*
X160885238Y-96432619D01*
X160980476Y-96527857D01*
X161028095Y-96623095D01*
X160742381Y-95432619D02*
X160742381Y-95337380D01*
X160790000Y-95242142D01*
X160837619Y-95194523D01*
X160932857Y-95146904D01*
X161123333Y-95099285D01*
X161361429Y-95099285D01*
X161551905Y-95146904D01*
X161647143Y-95194523D01*
X161694762Y-95242142D01*
X161742381Y-95337380D01*
X161742381Y-95432619D01*
X161694762Y-95527857D01*
X161647143Y-95575476D01*
X161551905Y-95623095D01*
X161361429Y-95670714D01*
X161123333Y-95670714D01*
X160932857Y-95623095D01*
X160837619Y-95575476D01*
X160790000Y-95527857D01*
X160742381Y-95432619D01*
X160742381Y-94242142D02*
X160742381Y-94432619D01*
X160790000Y-94527857D01*
X160837619Y-94575476D01*
X160980476Y-94670714D01*
X161170952Y-94718333D01*
X161551905Y-94718333D01*
X161647143Y-94670714D01*
X161694762Y-94623095D01*
X161742381Y-94527857D01*
X161742381Y-94337380D01*
X161694762Y-94242142D01*
X161647143Y-94194523D01*
X161551905Y-94146904D01*
X161313810Y-94146904D01*
X161218571Y-94194523D01*
X161170952Y-94242142D01*
X161123333Y-94337380D01*
X161123333Y-94527857D01*
X161170952Y-94623095D01*
X161218571Y-94670714D01*
X161313810Y-94718333D01*
X152657381Y-97004047D02*
X152181190Y-97337381D01*
X152657381Y-97575476D02*
X151657381Y-97575476D01*
X151657381Y-97194523D01*
X151705000Y-97099285D01*
X151752619Y-97051666D01*
X151847857Y-97004047D01*
X151990714Y-97004047D01*
X152085952Y-97051666D01*
X152133571Y-97099285D01*
X152181190Y-97194523D01*
X152181190Y-97575476D01*
X152657381Y-96051666D02*
X152657381Y-96623095D01*
X152657381Y-96337381D02*
X151657381Y-96337381D01*
X151800238Y-96432619D01*
X151895476Y-96527857D01*
X151943095Y-96623095D01*
X151657381Y-95432619D02*
X151657381Y-95337380D01*
X151705000Y-95242142D01*
X151752619Y-95194523D01*
X151847857Y-95146904D01*
X152038333Y-95099285D01*
X152276429Y-95099285D01*
X152466905Y-95146904D01*
X152562143Y-95194523D01*
X152609762Y-95242142D01*
X152657381Y-95337380D01*
X152657381Y-95432619D01*
X152609762Y-95527857D01*
X152562143Y-95575476D01*
X152466905Y-95623095D01*
X152276429Y-95670714D01*
X152038333Y-95670714D01*
X151847857Y-95623095D01*
X151752619Y-95575476D01*
X151705000Y-95527857D01*
X151657381Y-95432619D01*
X151657381Y-94765952D02*
X151657381Y-94099285D01*
X152657381Y-94527857D01*
X165552381Y-100814047D02*
X165076190Y-101147381D01*
X165552381Y-101385476D02*
X164552381Y-101385476D01*
X164552381Y-101004523D01*
X164600000Y-100909285D01*
X164647619Y-100861666D01*
X164742857Y-100814047D01*
X164885714Y-100814047D01*
X164980952Y-100861666D01*
X165028571Y-100909285D01*
X165076190Y-101004523D01*
X165076190Y-101385476D01*
X165552381Y-99861666D02*
X165552381Y-100433095D01*
X165552381Y-100147381D02*
X164552381Y-100147381D01*
X164695238Y-100242619D01*
X164790476Y-100337857D01*
X164838095Y-100433095D01*
X164552381Y-99242619D02*
X164552381Y-99147380D01*
X164600000Y-99052142D01*
X164647619Y-99004523D01*
X164742857Y-98956904D01*
X164933333Y-98909285D01*
X165171429Y-98909285D01*
X165361905Y-98956904D01*
X165457143Y-99004523D01*
X165504762Y-99052142D01*
X165552381Y-99147380D01*
X165552381Y-99242619D01*
X165504762Y-99337857D01*
X165457143Y-99385476D01*
X165361905Y-99433095D01*
X165171429Y-99480714D01*
X164933333Y-99480714D01*
X164742857Y-99433095D01*
X164647619Y-99385476D01*
X164600000Y-99337857D01*
X164552381Y-99242619D01*
X164980952Y-98337857D02*
X164933333Y-98433095D01*
X164885714Y-98480714D01*
X164790476Y-98528333D01*
X164742857Y-98528333D01*
X164647619Y-98480714D01*
X164600000Y-98433095D01*
X164552381Y-98337857D01*
X164552381Y-98147380D01*
X164600000Y-98052142D01*
X164647619Y-98004523D01*
X164742857Y-97956904D01*
X164790476Y-97956904D01*
X164885714Y-98004523D01*
X164933333Y-98052142D01*
X164980952Y-98147380D01*
X164980952Y-98337857D01*
X165028571Y-98433095D01*
X165076190Y-98480714D01*
X165171429Y-98528333D01*
X165361905Y-98528333D01*
X165457143Y-98480714D01*
X165504762Y-98433095D01*
X165552381Y-98337857D01*
X165552381Y-98147380D01*
X165504762Y-98052142D01*
X165457143Y-98004523D01*
X165361905Y-97956904D01*
X165171429Y-97956904D01*
X165076190Y-98004523D01*
X165028571Y-98052142D01*
X164980952Y-98147380D01*
X149042381Y-100814047D02*
X148566190Y-101147381D01*
X149042381Y-101385476D02*
X148042381Y-101385476D01*
X148042381Y-101004523D01*
X148090000Y-100909285D01*
X148137619Y-100861666D01*
X148232857Y-100814047D01*
X148375714Y-100814047D01*
X148470952Y-100861666D01*
X148518571Y-100909285D01*
X148566190Y-101004523D01*
X148566190Y-101385476D01*
X149042381Y-99861666D02*
X149042381Y-100433095D01*
X149042381Y-100147381D02*
X148042381Y-100147381D01*
X148185238Y-100242619D01*
X148280476Y-100337857D01*
X148328095Y-100433095D01*
X148042381Y-99242619D02*
X148042381Y-99147380D01*
X148090000Y-99052142D01*
X148137619Y-99004523D01*
X148232857Y-98956904D01*
X148423333Y-98909285D01*
X148661429Y-98909285D01*
X148851905Y-98956904D01*
X148947143Y-99004523D01*
X148994762Y-99052142D01*
X149042381Y-99147380D01*
X149042381Y-99242619D01*
X148994762Y-99337857D01*
X148947143Y-99385476D01*
X148851905Y-99433095D01*
X148661429Y-99480714D01*
X148423333Y-99480714D01*
X148232857Y-99433095D01*
X148137619Y-99385476D01*
X148090000Y-99337857D01*
X148042381Y-99242619D01*
X149042381Y-98433095D02*
X149042381Y-98242619D01*
X148994762Y-98147380D01*
X148947143Y-98099761D01*
X148804286Y-98004523D01*
X148613810Y-97956904D01*
X148232857Y-97956904D01*
X148137619Y-98004523D01*
X148090000Y-98052142D01*
X148042381Y-98147380D01*
X148042381Y-98337857D01*
X148090000Y-98433095D01*
X148137619Y-98480714D01*
X148232857Y-98528333D01*
X148470952Y-98528333D01*
X148566190Y-98480714D01*
X148613810Y-98433095D01*
X148661429Y-98337857D01*
X148661429Y-98147380D01*
X148613810Y-98052142D01*
X148566190Y-98004523D01*
X148470952Y-97956904D01*
X142497381Y-124944047D02*
X142021190Y-125277381D01*
X142497381Y-125515476D02*
X141497381Y-125515476D01*
X141497381Y-125134523D01*
X141545000Y-125039285D01*
X141592619Y-124991666D01*
X141687857Y-124944047D01*
X141830714Y-124944047D01*
X141925952Y-124991666D01*
X141973571Y-125039285D01*
X142021190Y-125134523D01*
X142021190Y-125515476D01*
X141592619Y-124563095D02*
X141545000Y-124515476D01*
X141497381Y-124420238D01*
X141497381Y-124182142D01*
X141545000Y-124086904D01*
X141592619Y-124039285D01*
X141687857Y-123991666D01*
X141783095Y-123991666D01*
X141925952Y-124039285D01*
X142497381Y-124610714D01*
X142497381Y-123991666D01*
X141497381Y-123372619D02*
X141497381Y-123277380D01*
X141545000Y-123182142D01*
X141592619Y-123134523D01*
X141687857Y-123086904D01*
X141878333Y-123039285D01*
X142116429Y-123039285D01*
X142306905Y-123086904D01*
X142402143Y-123134523D01*
X142449762Y-123182142D01*
X142497381Y-123277380D01*
X142497381Y-123372619D01*
X142449762Y-123467857D01*
X142402143Y-123515476D01*
X142306905Y-123563095D01*
X142116429Y-123610714D01*
X141878333Y-123610714D01*
X141687857Y-123563095D01*
X141592619Y-123515476D01*
X141545000Y-123467857D01*
X141497381Y-123372619D01*
X142497381Y-122086904D02*
X142497381Y-122658333D01*
X142497381Y-122372619D02*
X141497381Y-122372619D01*
X141640238Y-122467857D01*
X141735476Y-122563095D01*
X141783095Y-122658333D01*
X143025953Y-119832381D02*
X142692619Y-119356190D01*
X142454524Y-119832381D02*
X142454524Y-118832381D01*
X142835477Y-118832381D01*
X142930715Y-118880000D01*
X142978334Y-118927619D01*
X143025953Y-119022857D01*
X143025953Y-119165714D01*
X142978334Y-119260952D01*
X142930715Y-119308571D01*
X142835477Y-119356190D01*
X142454524Y-119356190D01*
X143406905Y-118927619D02*
X143454524Y-118880000D01*
X143549762Y-118832381D01*
X143787858Y-118832381D01*
X143883096Y-118880000D01*
X143930715Y-118927619D01*
X143978334Y-119022857D01*
X143978334Y-119118095D01*
X143930715Y-119260952D01*
X143359286Y-119832381D01*
X143978334Y-119832381D01*
X144597381Y-118832381D02*
X144692620Y-118832381D01*
X144787858Y-118880000D01*
X144835477Y-118927619D01*
X144883096Y-119022857D01*
X144930715Y-119213333D01*
X144930715Y-119451429D01*
X144883096Y-119641905D01*
X144835477Y-119737143D01*
X144787858Y-119784762D01*
X144692620Y-119832381D01*
X144597381Y-119832381D01*
X144502143Y-119784762D01*
X144454524Y-119737143D01*
X144406905Y-119641905D01*
X144359286Y-119451429D01*
X144359286Y-119213333D01*
X144406905Y-119022857D01*
X144454524Y-118927619D01*
X144502143Y-118880000D01*
X144597381Y-118832381D01*
X145264048Y-118832381D02*
X145883096Y-118832381D01*
X145549762Y-119213333D01*
X145692620Y-119213333D01*
X145787858Y-119260952D01*
X145835477Y-119308571D01*
X145883096Y-119403810D01*
X145883096Y-119641905D01*
X145835477Y-119737143D01*
X145787858Y-119784762D01*
X145692620Y-119832381D01*
X145406905Y-119832381D01*
X145311667Y-119784762D01*
X145264048Y-119737143D01*
X159202381Y-129389047D02*
X158726190Y-129722381D01*
X159202381Y-129960476D02*
X158202381Y-129960476D01*
X158202381Y-129579523D01*
X158250000Y-129484285D01*
X158297619Y-129436666D01*
X158392857Y-129389047D01*
X158535714Y-129389047D01*
X158630952Y-129436666D01*
X158678571Y-129484285D01*
X158726190Y-129579523D01*
X158726190Y-129960476D01*
X158297619Y-129008095D02*
X158250000Y-128960476D01*
X158202381Y-128865238D01*
X158202381Y-128627142D01*
X158250000Y-128531904D01*
X158297619Y-128484285D01*
X158392857Y-128436666D01*
X158488095Y-128436666D01*
X158630952Y-128484285D01*
X159202381Y-129055714D01*
X159202381Y-128436666D01*
X158202381Y-127817619D02*
X158202381Y-127722380D01*
X158250000Y-127627142D01*
X158297619Y-127579523D01*
X158392857Y-127531904D01*
X158583333Y-127484285D01*
X158821429Y-127484285D01*
X159011905Y-127531904D01*
X159107143Y-127579523D01*
X159154762Y-127627142D01*
X159202381Y-127722380D01*
X159202381Y-127817619D01*
X159154762Y-127912857D01*
X159107143Y-127960476D01*
X159011905Y-128008095D01*
X158821429Y-128055714D01*
X158583333Y-128055714D01*
X158392857Y-128008095D01*
X158297619Y-127960476D01*
X158250000Y-127912857D01*
X158202381Y-127817619D01*
X158535714Y-126627142D02*
X159202381Y-126627142D01*
X158154762Y-126865238D02*
X158869048Y-127103333D01*
X158869048Y-126484285D01*
X155725953Y-119832381D02*
X155392619Y-119356190D01*
X155154524Y-119832381D02*
X155154524Y-118832381D01*
X155535477Y-118832381D01*
X155630715Y-118880000D01*
X155678334Y-118927619D01*
X155725953Y-119022857D01*
X155725953Y-119165714D01*
X155678334Y-119260952D01*
X155630715Y-119308571D01*
X155535477Y-119356190D01*
X155154524Y-119356190D01*
X156106905Y-118927619D02*
X156154524Y-118880000D01*
X156249762Y-118832381D01*
X156487858Y-118832381D01*
X156583096Y-118880000D01*
X156630715Y-118927619D01*
X156678334Y-119022857D01*
X156678334Y-119118095D01*
X156630715Y-119260952D01*
X156059286Y-119832381D01*
X156678334Y-119832381D01*
X157297381Y-118832381D02*
X157392620Y-118832381D01*
X157487858Y-118880000D01*
X157535477Y-118927619D01*
X157583096Y-119022857D01*
X157630715Y-119213333D01*
X157630715Y-119451429D01*
X157583096Y-119641905D01*
X157535477Y-119737143D01*
X157487858Y-119784762D01*
X157392620Y-119832381D01*
X157297381Y-119832381D01*
X157202143Y-119784762D01*
X157154524Y-119737143D01*
X157106905Y-119641905D01*
X157059286Y-119451429D01*
X157059286Y-119213333D01*
X157106905Y-119022857D01*
X157154524Y-118927619D01*
X157202143Y-118880000D01*
X157297381Y-118832381D01*
X158487858Y-118832381D02*
X158297381Y-118832381D01*
X158202143Y-118880000D01*
X158154524Y-118927619D01*
X158059286Y-119070476D01*
X158011667Y-119260952D01*
X158011667Y-119641905D01*
X158059286Y-119737143D01*
X158106905Y-119784762D01*
X158202143Y-119832381D01*
X158392620Y-119832381D01*
X158487858Y-119784762D01*
X158535477Y-119737143D01*
X158583096Y-119641905D01*
X158583096Y-119403810D01*
X158535477Y-119308571D01*
X158487858Y-119260952D01*
X158392620Y-119213333D01*
X158202143Y-119213333D01*
X158106905Y-119260952D01*
X158059286Y-119308571D01*
X158011667Y-119403810D01*
X105560953Y-116022381D02*
X105227619Y-115546190D01*
X104989524Y-116022381D02*
X104989524Y-115022381D01*
X105370477Y-115022381D01*
X105465715Y-115070000D01*
X105513334Y-115117619D01*
X105560953Y-115212857D01*
X105560953Y-115355714D01*
X105513334Y-115450952D01*
X105465715Y-115498571D01*
X105370477Y-115546190D01*
X104989524Y-115546190D01*
X105941905Y-115117619D02*
X105989524Y-115070000D01*
X106084762Y-115022381D01*
X106322858Y-115022381D01*
X106418096Y-115070000D01*
X106465715Y-115117619D01*
X106513334Y-115212857D01*
X106513334Y-115308095D01*
X106465715Y-115450952D01*
X105894286Y-116022381D01*
X106513334Y-116022381D01*
X107132381Y-115022381D02*
X107227620Y-115022381D01*
X107322858Y-115070000D01*
X107370477Y-115117619D01*
X107418096Y-115212857D01*
X107465715Y-115403333D01*
X107465715Y-115641429D01*
X107418096Y-115831905D01*
X107370477Y-115927143D01*
X107322858Y-115974762D01*
X107227620Y-116022381D01*
X107132381Y-116022381D01*
X107037143Y-115974762D01*
X106989524Y-115927143D01*
X106941905Y-115831905D01*
X106894286Y-115641429D01*
X106894286Y-115403333D01*
X106941905Y-115212857D01*
X106989524Y-115117619D01*
X107037143Y-115070000D01*
X107132381Y-115022381D01*
X107799048Y-115022381D02*
X108465715Y-115022381D01*
X108037143Y-116022381D01*
X124082381Y-124944047D02*
X123606190Y-125277381D01*
X124082381Y-125515476D02*
X123082381Y-125515476D01*
X123082381Y-125134523D01*
X123130000Y-125039285D01*
X123177619Y-124991666D01*
X123272857Y-124944047D01*
X123415714Y-124944047D01*
X123510952Y-124991666D01*
X123558571Y-125039285D01*
X123606190Y-125134523D01*
X123606190Y-125515476D01*
X123177619Y-124563095D02*
X123130000Y-124515476D01*
X123082381Y-124420238D01*
X123082381Y-124182142D01*
X123130000Y-124086904D01*
X123177619Y-124039285D01*
X123272857Y-123991666D01*
X123368095Y-123991666D01*
X123510952Y-124039285D01*
X124082381Y-124610714D01*
X124082381Y-123991666D01*
X123082381Y-123372619D02*
X123082381Y-123277380D01*
X123130000Y-123182142D01*
X123177619Y-123134523D01*
X123272857Y-123086904D01*
X123463333Y-123039285D01*
X123701429Y-123039285D01*
X123891905Y-123086904D01*
X123987143Y-123134523D01*
X124034762Y-123182142D01*
X124082381Y-123277380D01*
X124082381Y-123372619D01*
X124034762Y-123467857D01*
X123987143Y-123515476D01*
X123891905Y-123563095D01*
X123701429Y-123610714D01*
X123463333Y-123610714D01*
X123272857Y-123563095D01*
X123177619Y-123515476D01*
X123130000Y-123467857D01*
X123082381Y-123372619D01*
X123510952Y-122467857D02*
X123463333Y-122563095D01*
X123415714Y-122610714D01*
X123320476Y-122658333D01*
X123272857Y-122658333D01*
X123177619Y-122610714D01*
X123130000Y-122563095D01*
X123082381Y-122467857D01*
X123082381Y-122277380D01*
X123130000Y-122182142D01*
X123177619Y-122134523D01*
X123272857Y-122086904D01*
X123320476Y-122086904D01*
X123415714Y-122134523D01*
X123463333Y-122182142D01*
X123510952Y-122277380D01*
X123510952Y-122467857D01*
X123558571Y-122563095D01*
X123606190Y-122610714D01*
X123701429Y-122658333D01*
X123891905Y-122658333D01*
X123987143Y-122610714D01*
X124034762Y-122563095D01*
X124082381Y-122467857D01*
X124082381Y-122277380D01*
X124034762Y-122182142D01*
X123987143Y-122134523D01*
X123891905Y-122086904D01*
X123701429Y-122086904D01*
X123606190Y-122134523D01*
X123558571Y-122182142D01*
X123510952Y-122277380D01*
X123975953Y-119832381D02*
X123642619Y-119356190D01*
X123404524Y-119832381D02*
X123404524Y-118832381D01*
X123785477Y-118832381D01*
X123880715Y-118880000D01*
X123928334Y-118927619D01*
X123975953Y-119022857D01*
X123975953Y-119165714D01*
X123928334Y-119260952D01*
X123880715Y-119308571D01*
X123785477Y-119356190D01*
X123404524Y-119356190D01*
X124356905Y-118927619D02*
X124404524Y-118880000D01*
X124499762Y-118832381D01*
X124737858Y-118832381D01*
X124833096Y-118880000D01*
X124880715Y-118927619D01*
X124928334Y-119022857D01*
X124928334Y-119118095D01*
X124880715Y-119260952D01*
X124309286Y-119832381D01*
X124928334Y-119832381D01*
X125547381Y-118832381D02*
X125642620Y-118832381D01*
X125737858Y-118880000D01*
X125785477Y-118927619D01*
X125833096Y-119022857D01*
X125880715Y-119213333D01*
X125880715Y-119451429D01*
X125833096Y-119641905D01*
X125785477Y-119737143D01*
X125737858Y-119784762D01*
X125642620Y-119832381D01*
X125547381Y-119832381D01*
X125452143Y-119784762D01*
X125404524Y-119737143D01*
X125356905Y-119641905D01*
X125309286Y-119451429D01*
X125309286Y-119213333D01*
X125356905Y-119022857D01*
X125404524Y-118927619D01*
X125452143Y-118880000D01*
X125547381Y-118832381D01*
X126356905Y-119832381D02*
X126547381Y-119832381D01*
X126642620Y-119784762D01*
X126690239Y-119737143D01*
X126785477Y-119594286D01*
X126833096Y-119403810D01*
X126833096Y-119022857D01*
X126785477Y-118927619D01*
X126737858Y-118880000D01*
X126642620Y-118832381D01*
X126452143Y-118832381D01*
X126356905Y-118880000D01*
X126309286Y-118927619D01*
X126261667Y-119022857D01*
X126261667Y-119260952D01*
X126309286Y-119356190D01*
X126356905Y-119403810D01*
X126452143Y-119451429D01*
X126642620Y-119451429D01*
X126737858Y-119403810D01*
X126785477Y-119356190D01*
X126833096Y-119260952D01*
X140982381Y-129389047D02*
X140506190Y-129722381D01*
X140982381Y-129960476D02*
X139982381Y-129960476D01*
X139982381Y-129579523D01*
X140030000Y-129484285D01*
X140077619Y-129436666D01*
X140172857Y-129389047D01*
X140315714Y-129389047D01*
X140410952Y-129436666D01*
X140458571Y-129484285D01*
X140506190Y-129579523D01*
X140506190Y-129960476D01*
X140077619Y-129008095D02*
X140030000Y-128960476D01*
X139982381Y-128865238D01*
X139982381Y-128627142D01*
X140030000Y-128531904D01*
X140077619Y-128484285D01*
X140172857Y-128436666D01*
X140268095Y-128436666D01*
X140410952Y-128484285D01*
X140982381Y-129055714D01*
X140982381Y-128436666D01*
X140982381Y-127484285D02*
X140982381Y-128055714D01*
X140982381Y-127770000D02*
X139982381Y-127770000D01*
X140125238Y-127865238D01*
X140220476Y-127960476D01*
X140268095Y-128055714D01*
X140982381Y-126531904D02*
X140982381Y-127103333D01*
X140982381Y-126817619D02*
X139982381Y-126817619D01*
X140125238Y-126912857D01*
X140220476Y-127008095D01*
X140268095Y-127103333D01*
X137310953Y-119832381D02*
X136977619Y-119356190D01*
X136739524Y-119832381D02*
X136739524Y-118832381D01*
X137120477Y-118832381D01*
X137215715Y-118880000D01*
X137263334Y-118927619D01*
X137310953Y-119022857D01*
X137310953Y-119165714D01*
X137263334Y-119260952D01*
X137215715Y-119308571D01*
X137120477Y-119356190D01*
X136739524Y-119356190D01*
X137691905Y-118927619D02*
X137739524Y-118880000D01*
X137834762Y-118832381D01*
X138072858Y-118832381D01*
X138168096Y-118880000D01*
X138215715Y-118927619D01*
X138263334Y-119022857D01*
X138263334Y-119118095D01*
X138215715Y-119260952D01*
X137644286Y-119832381D01*
X138263334Y-119832381D01*
X139215715Y-119832381D02*
X138644286Y-119832381D01*
X138930000Y-119832381D02*
X138930000Y-118832381D01*
X138834762Y-118975238D01*
X138739524Y-119070476D01*
X138644286Y-119118095D01*
X139596667Y-118927619D02*
X139644286Y-118880000D01*
X139739524Y-118832381D01*
X139977620Y-118832381D01*
X140072858Y-118880000D01*
X140120477Y-118927619D01*
X140168096Y-119022857D01*
X140168096Y-119118095D01*
X140120477Y-119260952D01*
X139549048Y-119832381D01*
X140168096Y-119832381D01*
X116355953Y-116022381D02*
X116022619Y-115546190D01*
X115784524Y-116022381D02*
X115784524Y-115022381D01*
X116165477Y-115022381D01*
X116260715Y-115070000D01*
X116308334Y-115117619D01*
X116355953Y-115212857D01*
X116355953Y-115355714D01*
X116308334Y-115450952D01*
X116260715Y-115498571D01*
X116165477Y-115546190D01*
X115784524Y-115546190D01*
X116736905Y-115117619D02*
X116784524Y-115070000D01*
X116879762Y-115022381D01*
X117117858Y-115022381D01*
X117213096Y-115070000D01*
X117260715Y-115117619D01*
X117308334Y-115212857D01*
X117308334Y-115308095D01*
X117260715Y-115450952D01*
X116689286Y-116022381D01*
X117308334Y-116022381D01*
X118260715Y-116022381D02*
X117689286Y-116022381D01*
X117975000Y-116022381D02*
X117975000Y-115022381D01*
X117879762Y-115165238D01*
X117784524Y-115260476D01*
X117689286Y-115308095D01*
X119117858Y-115355714D02*
X119117858Y-116022381D01*
X118879762Y-114974762D02*
X118641667Y-115689048D01*
X119260715Y-115689048D01*
X105667381Y-124944047D02*
X105191190Y-125277381D01*
X105667381Y-125515476D02*
X104667381Y-125515476D01*
X104667381Y-125134523D01*
X104715000Y-125039285D01*
X104762619Y-124991666D01*
X104857857Y-124944047D01*
X105000714Y-124944047D01*
X105095952Y-124991666D01*
X105143571Y-125039285D01*
X105191190Y-125134523D01*
X105191190Y-125515476D01*
X104762619Y-124563095D02*
X104715000Y-124515476D01*
X104667381Y-124420238D01*
X104667381Y-124182142D01*
X104715000Y-124086904D01*
X104762619Y-124039285D01*
X104857857Y-123991666D01*
X104953095Y-123991666D01*
X105095952Y-124039285D01*
X105667381Y-124610714D01*
X105667381Y-123991666D01*
X105667381Y-123039285D02*
X105667381Y-123610714D01*
X105667381Y-123325000D02*
X104667381Y-123325000D01*
X104810238Y-123420238D01*
X104905476Y-123515476D01*
X104953095Y-123610714D01*
X104667381Y-122134523D02*
X104667381Y-122610714D01*
X105143571Y-122658333D01*
X105095952Y-122610714D01*
X105048333Y-122515476D01*
X105048333Y-122277380D01*
X105095952Y-122182142D01*
X105143571Y-122134523D01*
X105238810Y-122086904D01*
X105476905Y-122086904D01*
X105572143Y-122134523D01*
X105619762Y-122182142D01*
X105667381Y-122277380D01*
X105667381Y-122515476D01*
X105619762Y-122610714D01*
X105572143Y-122658333D01*
X105560953Y-119832381D02*
X105227619Y-119356190D01*
X104989524Y-119832381D02*
X104989524Y-118832381D01*
X105370477Y-118832381D01*
X105465715Y-118880000D01*
X105513334Y-118927619D01*
X105560953Y-119022857D01*
X105560953Y-119165714D01*
X105513334Y-119260952D01*
X105465715Y-119308571D01*
X105370477Y-119356190D01*
X104989524Y-119356190D01*
X105941905Y-118927619D02*
X105989524Y-118880000D01*
X106084762Y-118832381D01*
X106322858Y-118832381D01*
X106418096Y-118880000D01*
X106465715Y-118927619D01*
X106513334Y-119022857D01*
X106513334Y-119118095D01*
X106465715Y-119260952D01*
X105894286Y-119832381D01*
X106513334Y-119832381D01*
X107465715Y-119832381D02*
X106894286Y-119832381D01*
X107180000Y-119832381D02*
X107180000Y-118832381D01*
X107084762Y-118975238D01*
X106989524Y-119070476D01*
X106894286Y-119118095D01*
X108322858Y-118832381D02*
X108132381Y-118832381D01*
X108037143Y-118880000D01*
X107989524Y-118927619D01*
X107894286Y-119070476D01*
X107846667Y-119260952D01*
X107846667Y-119641905D01*
X107894286Y-119737143D01*
X107941905Y-119784762D01*
X108037143Y-119832381D01*
X108227620Y-119832381D01*
X108322858Y-119784762D01*
X108370477Y-119737143D01*
X108418096Y-119641905D01*
X108418096Y-119403810D01*
X108370477Y-119308571D01*
X108322858Y-119260952D01*
X108227620Y-119213333D01*
X108037143Y-119213333D01*
X107941905Y-119260952D01*
X107894286Y-119308571D01*
X107846667Y-119403810D01*
X122567381Y-129389047D02*
X122091190Y-129722381D01*
X122567381Y-129960476D02*
X121567381Y-129960476D01*
X121567381Y-129579523D01*
X121615000Y-129484285D01*
X121662619Y-129436666D01*
X121757857Y-129389047D01*
X121900714Y-129389047D01*
X121995952Y-129436666D01*
X122043571Y-129484285D01*
X122091190Y-129579523D01*
X122091190Y-129960476D01*
X121662619Y-129008095D02*
X121615000Y-128960476D01*
X121567381Y-128865238D01*
X121567381Y-128627142D01*
X121615000Y-128531904D01*
X121662619Y-128484285D01*
X121757857Y-128436666D01*
X121853095Y-128436666D01*
X121995952Y-128484285D01*
X122567381Y-129055714D01*
X122567381Y-128436666D01*
X122567381Y-127484285D02*
X122567381Y-128055714D01*
X122567381Y-127770000D02*
X121567381Y-127770000D01*
X121710238Y-127865238D01*
X121805476Y-127960476D01*
X121853095Y-128055714D01*
X121567381Y-127150952D02*
X121567381Y-126484285D01*
X122567381Y-126912857D01*
X118895953Y-119832381D02*
X118562619Y-119356190D01*
X118324524Y-119832381D02*
X118324524Y-118832381D01*
X118705477Y-118832381D01*
X118800715Y-118880000D01*
X118848334Y-118927619D01*
X118895953Y-119022857D01*
X118895953Y-119165714D01*
X118848334Y-119260952D01*
X118800715Y-119308571D01*
X118705477Y-119356190D01*
X118324524Y-119356190D01*
X119276905Y-118927619D02*
X119324524Y-118880000D01*
X119419762Y-118832381D01*
X119657858Y-118832381D01*
X119753096Y-118880000D01*
X119800715Y-118927619D01*
X119848334Y-119022857D01*
X119848334Y-119118095D01*
X119800715Y-119260952D01*
X119229286Y-119832381D01*
X119848334Y-119832381D01*
X120800715Y-119832381D02*
X120229286Y-119832381D01*
X120515000Y-119832381D02*
X120515000Y-118832381D01*
X120419762Y-118975238D01*
X120324524Y-119070476D01*
X120229286Y-119118095D01*
X121372143Y-119260952D02*
X121276905Y-119213333D01*
X121229286Y-119165714D01*
X121181667Y-119070476D01*
X121181667Y-119022857D01*
X121229286Y-118927619D01*
X121276905Y-118880000D01*
X121372143Y-118832381D01*
X121562620Y-118832381D01*
X121657858Y-118880000D01*
X121705477Y-118927619D01*
X121753096Y-119022857D01*
X121753096Y-119070476D01*
X121705477Y-119165714D01*
X121657858Y-119213333D01*
X121562620Y-119260952D01*
X121372143Y-119260952D01*
X121276905Y-119308571D01*
X121229286Y-119356190D01*
X121181667Y-119451429D01*
X121181667Y-119641905D01*
X121229286Y-119737143D01*
X121276905Y-119784762D01*
X121372143Y-119832381D01*
X121562620Y-119832381D01*
X121657858Y-119784762D01*
X121705477Y-119737143D01*
X121753096Y-119641905D01*
X121753096Y-119451429D01*
X121705477Y-119356190D01*
X121657858Y-119308571D01*
X121562620Y-119260952D01*
X139890714Y-90257381D02*
X139890714Y-91066905D01*
X139938333Y-91162143D01*
X139985952Y-91209762D01*
X140081190Y-91257381D01*
X140271667Y-91257381D01*
X140366905Y-91209762D01*
X140414524Y-91162143D01*
X140462143Y-91066905D01*
X140462143Y-90257381D01*
X141462143Y-91257381D02*
X140890714Y-91257381D01*
X141176428Y-91257381D02*
X141176428Y-90257381D01*
X141081190Y-90400238D01*
X140985952Y-90495476D01*
X140890714Y-90543095D01*
X142081190Y-90257381D02*
X142176429Y-90257381D01*
X142271667Y-90305000D01*
X142319286Y-90352619D01*
X142366905Y-90447857D01*
X142414524Y-90638333D01*
X142414524Y-90876429D01*
X142366905Y-91066905D01*
X142319286Y-91162143D01*
X142271667Y-91209762D01*
X142176429Y-91257381D01*
X142081190Y-91257381D01*
X141985952Y-91209762D01*
X141938333Y-91162143D01*
X141890714Y-91066905D01*
X141843095Y-90876429D01*
X141843095Y-90638333D01*
X141890714Y-90447857D01*
X141938333Y-90352619D01*
X141985952Y-90305000D01*
X142081190Y-90257381D01*
X143366905Y-91257381D02*
X142795476Y-91257381D01*
X143081190Y-91257381D02*
X143081190Y-90257381D01*
X142985952Y-90400238D01*
X142890714Y-90495476D01*
X142795476Y-90543095D01*
X124650714Y-90257381D02*
X124650714Y-91066905D01*
X124698333Y-91162143D01*
X124745952Y-91209762D01*
X124841190Y-91257381D01*
X125031667Y-91257381D01*
X125126905Y-91209762D01*
X125174524Y-91162143D01*
X125222143Y-91066905D01*
X125222143Y-90257381D01*
X126222143Y-91257381D02*
X125650714Y-91257381D01*
X125936428Y-91257381D02*
X125936428Y-90257381D01*
X125841190Y-90400238D01*
X125745952Y-90495476D01*
X125650714Y-90543095D01*
X126841190Y-90257381D02*
X126936429Y-90257381D01*
X127031667Y-90305000D01*
X127079286Y-90352619D01*
X127126905Y-90447857D01*
X127174524Y-90638333D01*
X127174524Y-90876429D01*
X127126905Y-91066905D01*
X127079286Y-91162143D01*
X127031667Y-91209762D01*
X126936429Y-91257381D01*
X126841190Y-91257381D01*
X126745952Y-91209762D01*
X126698333Y-91162143D01*
X126650714Y-91066905D01*
X126603095Y-90876429D01*
X126603095Y-90638333D01*
X126650714Y-90447857D01*
X126698333Y-90352619D01*
X126745952Y-90305000D01*
X126841190Y-90257381D01*
X127555476Y-90352619D02*
X127603095Y-90305000D01*
X127698333Y-90257381D01*
X127936429Y-90257381D01*
X128031667Y-90305000D01*
X128079286Y-90352619D01*
X128126905Y-90447857D01*
X128126905Y-90543095D01*
X128079286Y-90685952D01*
X127507857Y-91257381D01*
X128126905Y-91257381D01*
X116133667Y-66381381D02*
X116133667Y-67095667D01*
X116086047Y-67238524D01*
X115990809Y-67333762D01*
X115847952Y-67381381D01*
X115752714Y-67381381D01*
X116609857Y-67381381D02*
X116609857Y-66381381D01*
X116990810Y-66381381D01*
X117086048Y-66429000D01*
X117133667Y-66476619D01*
X117181286Y-66571857D01*
X117181286Y-66714714D01*
X117133667Y-66809952D01*
X117086048Y-66857571D01*
X116990810Y-66905190D01*
X116609857Y-66905190D01*
X118133667Y-67381381D02*
X117562238Y-67381381D01*
X117847952Y-67381381D02*
X117847952Y-66381381D01*
X117752714Y-66524238D01*
X117657476Y-66619476D01*
X117562238Y-66667095D01*
X116133667Y-48982381D02*
X116133667Y-49696667D01*
X116086047Y-49839524D01*
X115990809Y-49934762D01*
X115847952Y-49982381D01*
X115752714Y-49982381D01*
X116609857Y-49982381D02*
X116609857Y-48982381D01*
X116990810Y-48982381D01*
X117086048Y-49030000D01*
X117133667Y-49077619D01*
X117181286Y-49172857D01*
X117181286Y-49315714D01*
X117133667Y-49410952D01*
X117086048Y-49458571D01*
X116990810Y-49506190D01*
X116609857Y-49506190D01*
X117562238Y-49077619D02*
X117609857Y-49030000D01*
X117705095Y-48982381D01*
X117943191Y-48982381D01*
X118038429Y-49030000D01*
X118086048Y-49077619D01*
X118133667Y-49172857D01*
X118133667Y-49268095D01*
X118086048Y-49410952D01*
X117514619Y-49982381D01*
X118133667Y-49982381D01*
X139033572Y-51248571D02*
X139033572Y-52462857D01*
X139105000Y-52605714D01*
X139176429Y-52677143D01*
X139319286Y-52748571D01*
X139605000Y-52748571D01*
X139747858Y-52677143D01*
X139819286Y-52605714D01*
X139890715Y-52462857D01*
X139890715Y-51248571D01*
X141390715Y-52748571D02*
X140533572Y-52748571D01*
X140962144Y-52748571D02*
X140962144Y-51248571D01*
X140819287Y-51462857D01*
X140676429Y-51605714D01*
X140533572Y-51677143D01*
X142319286Y-51248571D02*
X142462143Y-51248571D01*
X142605000Y-51320000D01*
X142676429Y-51391429D01*
X142747858Y-51534286D01*
X142819286Y-51820000D01*
X142819286Y-52177143D01*
X142747858Y-52462857D01*
X142676429Y-52605714D01*
X142605000Y-52677143D01*
X142462143Y-52748571D01*
X142319286Y-52748571D01*
X142176429Y-52677143D01*
X142105000Y-52605714D01*
X142033572Y-52462857D01*
X141962143Y-52177143D01*
X141962143Y-51820000D01*
X142033572Y-51534286D01*
X142105000Y-51391429D01*
X142176429Y-51320000D01*
X142319286Y-51248571D01*
X143319286Y-51248571D02*
X144247857Y-51248571D01*
X143747857Y-51820000D01*
X143962143Y-51820000D01*
X144105000Y-51891429D01*
X144176429Y-51962857D01*
X144247857Y-52105714D01*
X144247857Y-52462857D01*
X144176429Y-52605714D01*
X144105000Y-52677143D01*
X143962143Y-52748571D01*
X143533571Y-52748571D01*
X143390714Y-52677143D01*
X143319286Y-52605714D01*
%LPC*%
D15*
X155330000Y-58399000D03*
X157870000Y-58399000D03*
X157870000Y-56400020D03*
X155330000Y-56400020D03*
D16*
X150600520Y-53700000D03*
X162599480Y-53700000D03*
D17*
X113200000Y-47750000D03*
X101550000Y-47750000D03*
X113250000Y-54100000D03*
X101550000Y-54100000D03*
X113250000Y-60450000D03*
X101550000Y-60450000D03*
D18*
X110900000Y-137000000D03*
X113400000Y-137000000D03*
X115900000Y-137000000D03*
X110900000Y-134500000D03*
X113400000Y-134500000D03*
X115900000Y-134500000D03*
X129500000Y-137000000D03*
X132000000Y-137000000D03*
X134500000Y-137000000D03*
X129500000Y-134500000D03*
X132000000Y-134500000D03*
X134500000Y-134500000D03*
X148100000Y-137000000D03*
X150600000Y-137000000D03*
X153100000Y-137000000D03*
X148100000Y-134500000D03*
X150600000Y-134500000D03*
X153100000Y-134500000D03*
D19*
X133985000Y-63500000D03*
D20*
X133985000Y-66040000D03*
D21*
X147955000Y-117475000D03*
D22*
X150495000Y-117475000D03*
X153035000Y-117475000D03*
D21*
X129540000Y-117475000D03*
D22*
X132080000Y-117475000D03*
X134620000Y-117475000D03*
D23*
X159385000Y-64135000D03*
X154305000Y-64135000D03*
D24*
X110615000Y-125095000D03*
X110615000Y-126365000D03*
X110615000Y-127635000D03*
X110615000Y-128905000D03*
X116715000Y-125095000D03*
X116715000Y-126365000D03*
X116715000Y-127635000D03*
X116715000Y-128905000D03*
X112520000Y-105410000D03*
X112520000Y-106680000D03*
X112520000Y-107950000D03*
X112520000Y-109220000D03*
X118620000Y-105410000D03*
X118620000Y-106680000D03*
X118620000Y-107950000D03*
X118620000Y-109220000D03*
X129030000Y-125095000D03*
X129030000Y-126365000D03*
X129030000Y-127635000D03*
X129030000Y-128905000D03*
X135130000Y-125095000D03*
X135130000Y-126365000D03*
X135130000Y-127635000D03*
X135130000Y-128905000D03*
X101725000Y-105410000D03*
X101725000Y-106680000D03*
X101725000Y-107950000D03*
X101725000Y-109220000D03*
X107825000Y-105410000D03*
X107825000Y-106680000D03*
X107825000Y-107950000D03*
X107825000Y-109220000D03*
X147445000Y-125095000D03*
X147445000Y-126365000D03*
X147445000Y-127635000D03*
X147445000Y-128905000D03*
X153545000Y-125095000D03*
X153545000Y-126365000D03*
X153545000Y-127635000D03*
X153545000Y-128905000D03*
D25*
X161660840Y-74693780D03*
X161660840Y-75493880D03*
X161660840Y-76293980D03*
X161660840Y-77094080D03*
X161660840Y-77894180D03*
X161660840Y-78694280D03*
X161660840Y-79494380D03*
X161660840Y-80294480D03*
X152095200Y-80289400D03*
X152095200Y-74676000D03*
X152095200Y-75488800D03*
X152095200Y-76301600D03*
X152095200Y-77089000D03*
X152095200Y-77901800D03*
X152095200Y-78689200D03*
X152095200Y-79502000D03*
D26*
X159669480Y-82296000D03*
X158871920Y-82296000D03*
X158069280Y-82296000D03*
X157271720Y-82296000D03*
X156469080Y-82296000D03*
X155671520Y-82296000D03*
X154868880Y-82296000D03*
X154071320Y-82296000D03*
X159664400Y-72694800D03*
X158877000Y-72694800D03*
X158064200Y-72694800D03*
X157276800Y-72694800D03*
X156489400Y-72694800D03*
X155676600Y-72694800D03*
X154863800Y-72694800D03*
X154051000Y-72694800D03*
D27*
X114935000Y-101060000D03*
X114935000Y-97060000D03*
X112395000Y-101060000D03*
X112395000Y-97060000D03*
X104140000Y-100425000D03*
X104140000Y-96425000D03*
X101600000Y-100425000D03*
X101600000Y-96425000D03*
D28*
X139065000Y-66675000D03*
X139065000Y-71755000D03*
X139065000Y-81915000D03*
X139065000Y-86995000D03*
D29*
X133985000Y-80645000D03*
D30*
X133985000Y-88265000D03*
D29*
X133985000Y-69850000D03*
D30*
X133985000Y-77470000D03*
D31*
X153035000Y-104564180D03*
X153035000Y-110065820D03*
X160655000Y-104564180D03*
X160655000Y-110065820D03*
D32*
X126365000Y-86995000D03*
X126365000Y-81915000D03*
X115570000Y-86995000D03*
X115570000Y-81915000D03*
X104775000Y-86995000D03*
X104775000Y-81915000D03*
D33*
X147320000Y-112125000D03*
X147320000Y-110125000D03*
X137160000Y-112125000D03*
X137160000Y-110125000D03*
D32*
X115570000Y-76200000D03*
X115570000Y-71120000D03*
X126365000Y-76200000D03*
X126365000Y-71120000D03*
X104775000Y-76200000D03*
X104775000Y-71120000D03*
D34*
X159655000Y-67945000D03*
X161655000Y-67945000D03*
X154035000Y-67945000D03*
X152035000Y-67945000D03*
X131810000Y-90170000D03*
X129810000Y-90170000D03*
D33*
X132715000Y-110125000D03*
X132715000Y-112125000D03*
D34*
X139335000Y-59055000D03*
X141335000Y-59055000D03*
X146574000Y-73406000D03*
X148574000Y-73406000D03*
D33*
X162560000Y-85995000D03*
X162560000Y-87995000D03*
X143383000Y-78121000D03*
X143383000Y-80121000D03*
X154940000Y-85995000D03*
X154940000Y-87995000D03*
X158750000Y-85995000D03*
X158750000Y-87995000D03*
X160655000Y-85995000D03*
X160655000Y-87995000D03*
X159385000Y-100695000D03*
X159385000Y-98695000D03*
X154305000Y-100695000D03*
X154305000Y-98695000D03*
X156845000Y-122825000D03*
X156845000Y-124825000D03*
X106680000Y-99965000D03*
X106680000Y-101965000D03*
D34*
X105680000Y-113665000D03*
X107680000Y-113665000D03*
X148955000Y-122555000D03*
X146955000Y-122555000D03*
D33*
X144145000Y-129270000D03*
X144145000Y-127270000D03*
X101600000Y-114030000D03*
X101600000Y-112030000D03*
D34*
X152035000Y-122555000D03*
X154035000Y-122555000D03*
D33*
X138430000Y-122825000D03*
X138430000Y-124825000D03*
X117475000Y-100600000D03*
X117475000Y-102600000D03*
D34*
X116475000Y-113665000D03*
X118475000Y-113665000D03*
X130540000Y-122555000D03*
X128540000Y-122555000D03*
D33*
X125730000Y-129270000D03*
X125730000Y-127270000D03*
X112395000Y-114030000D03*
X112395000Y-112030000D03*
D34*
X133620000Y-122555000D03*
X135620000Y-122555000D03*
D33*
X120015000Y-122825000D03*
X120015000Y-124825000D03*
D34*
X112125000Y-122555000D03*
X110125000Y-122555000D03*
D33*
X107315000Y-129270000D03*
X107315000Y-127270000D03*
D34*
X115205000Y-122555000D03*
X117205000Y-122555000D03*
D35*
X157795000Y-67945000D03*
X155895000Y-67945000D03*
X153985000Y-69850000D03*
X152085000Y-69850000D03*
X146624000Y-75438000D03*
X148524000Y-75438000D03*
X148524000Y-77470000D03*
X146624000Y-77470000D03*
X148524000Y-79502000D03*
X146624000Y-79502000D03*
D36*
X159385000Y-96835000D03*
X159385000Y-94935000D03*
X154305000Y-96835000D03*
X154305000Y-94935000D03*
X161925000Y-100645000D03*
X161925000Y-98745000D03*
X151765000Y-100645000D03*
X151765000Y-98745000D03*
X144145000Y-124775000D03*
X144145000Y-122875000D03*
D35*
X148905000Y-120650000D03*
X147005000Y-120650000D03*
D36*
X156845000Y-127320000D03*
X156845000Y-129220000D03*
D35*
X152085000Y-120650000D03*
X153985000Y-120650000D03*
X107630000Y-111760000D03*
X105730000Y-111760000D03*
D36*
X125730000Y-124775000D03*
X125730000Y-122875000D03*
D35*
X130490000Y-120650000D03*
X128590000Y-120650000D03*
D36*
X138430000Y-127320000D03*
X138430000Y-129220000D03*
D35*
X133670000Y-120650000D03*
X135570000Y-120650000D03*
X118425000Y-111760000D03*
X116525000Y-111760000D03*
D36*
X107315000Y-124775000D03*
X107315000Y-122875000D03*
D35*
X112075000Y-120650000D03*
X110175000Y-120650000D03*
D36*
X120015000Y-127320000D03*
X120015000Y-129220000D03*
D35*
X115255000Y-120650000D03*
X117155000Y-120650000D03*
D37*
X144780000Y-113030000D03*
D38*
X139700000Y-113030000D03*
X142240000Y-113030000D03*
D39*
X142240000Y-96520000D03*
D37*
X130175000Y-113030000D03*
D38*
X125095000Y-113030000D03*
X127635000Y-113030000D03*
D39*
X127635000Y-96520000D03*
D40*
X116967000Y-64770000D03*
D41*
X116967000Y-62230000D03*
X116967000Y-59690000D03*
D40*
X116967000Y-56642000D03*
D41*
X116967000Y-54102000D03*
X116967000Y-51562000D03*
D15*
X141800000Y-53900000D03*
X144300000Y-53900000D03*
X139300000Y-53900000D03*
D42*
X141800000Y-50000000D03*
X146400000Y-56000000D03*
X137200000Y-56000000D03*
D43*
G36*
X97073000Y-142673000D02*
X94927000Y-142673000D01*
X94927000Y-43327000D01*
X97073000Y-43327000D01*
X97073000Y-142673000D01*
X97073000Y-142673000D01*
G37*
X97073000Y-142673000D02*
X94927000Y-142673000D01*
X94927000Y-43327000D01*
X97073000Y-43327000D01*
X97073000Y-142673000D01*
G36*
X169073000Y-142673000D02*
X166927000Y-142673000D01*
X166927000Y-43327000D01*
X169073000Y-43327000D01*
X169073000Y-142673000D01*
X169073000Y-142673000D01*
G37*
X169073000Y-142673000D02*
X166927000Y-142673000D01*
X166927000Y-43327000D01*
X169073000Y-43327000D01*
X169073000Y-142673000D01*
M02*
