G04 #@! TF.FileFunction,Copper,L2,Bot,Signal*
%FSLAX46Y46*%
G04 Gerber Fmt 4.6, Leading zero omitted, Abs format (unit mm)*
G04 Created by KiCad (PCBNEW 4.0.0-rc2-stable) date 17.11.2015 23:45:42*
%MOMM*%
G01*
G04 APERTURE LIST*
%ADD10C,0.100000*%
%ADD11C,1.524000*%
%ADD12C,3.500000*%
%ADD13C,3.000000*%
%ADD14C,1.700000*%
%ADD15R,2.032000X2.032000*%
%ADD16O,2.032000X2.032000*%
%ADD17R,1.727200X2.032000*%
%ADD18O,1.727200X2.032000*%
%ADD19C,1.422400*%
%ADD20C,3.810000*%
%ADD21R,1.397000X1.397000*%
%ADD22C,1.397000*%
%ADD23C,1.501140*%
%ADD24R,1.778000X1.778000*%
%ADD25C,1.778000*%
%ADD26R,8.890000X8.890000*%
%ADD27R,2.032000X1.727200*%
%ADD28O,2.032000X1.727200*%
%ADD29C,2.100000*%
%ADD30C,0.889000*%
%ADD31C,1.270000*%
%ADD32C,0.381000*%
%ADD33C,0.635000*%
%ADD34C,0.254000*%
G04 APERTURE END LIST*
D10*
D11*
X155330000Y-58399000D03*
X157870000Y-58399000D03*
X157870000Y-56400020D03*
X155330000Y-56400020D03*
D12*
X150600520Y-53700000D03*
X162599480Y-53700000D03*
D13*
X113200000Y-47750000D03*
X101550000Y-47750000D03*
X113250000Y-54100000D03*
X101550000Y-54100000D03*
X113250000Y-60450000D03*
X101550000Y-60450000D03*
D14*
X110900000Y-137000000D03*
X113400000Y-137000000D03*
X115900000Y-137000000D03*
X110900000Y-134500000D03*
X113400000Y-134500000D03*
X115900000Y-134500000D03*
X129500000Y-137000000D03*
X132000000Y-137000000D03*
X134500000Y-137000000D03*
X129500000Y-134500000D03*
X132000000Y-134500000D03*
X134500000Y-134500000D03*
X148100000Y-137000000D03*
X150600000Y-137000000D03*
X153100000Y-137000000D03*
X148100000Y-134500000D03*
X150600000Y-134500000D03*
X153100000Y-134500000D03*
D15*
X133985000Y-63500000D03*
D16*
X133985000Y-66040000D03*
D17*
X147955000Y-117475000D03*
D18*
X150495000Y-117475000D03*
X153035000Y-117475000D03*
D17*
X129540000Y-117475000D03*
D18*
X132080000Y-117475000D03*
X134620000Y-117475000D03*
D19*
X159385000Y-64135000D03*
X154305000Y-64135000D03*
D20*
X139065000Y-66675000D03*
X139065000Y-71755000D03*
X139065000Y-81915000D03*
X139065000Y-86995000D03*
D21*
X133985000Y-80645000D03*
D22*
X133985000Y-88265000D03*
D21*
X133985000Y-69850000D03*
D22*
X133985000Y-77470000D03*
D23*
X126365000Y-86995000D03*
X126365000Y-81915000D03*
X115570000Y-86995000D03*
X115570000Y-81915000D03*
X104775000Y-86995000D03*
X104775000Y-81915000D03*
X115570000Y-76200000D03*
X115570000Y-71120000D03*
X126365000Y-76200000D03*
X126365000Y-71120000D03*
X104775000Y-76200000D03*
X104775000Y-71120000D03*
D24*
X144780000Y-113030000D03*
D25*
X139700000Y-113030000D03*
X142240000Y-113030000D03*
D26*
X142240000Y-96520000D03*
D24*
X130175000Y-113030000D03*
D25*
X125095000Y-113030000D03*
X127635000Y-113030000D03*
D26*
X127635000Y-96520000D03*
D27*
X116967000Y-64770000D03*
D28*
X116967000Y-62230000D03*
X116967000Y-59690000D03*
D27*
X116967000Y-56642000D03*
D28*
X116967000Y-54102000D03*
X116967000Y-51562000D03*
D11*
X141800000Y-53900000D03*
X144300000Y-53900000D03*
X139300000Y-53900000D03*
D29*
X141800000Y-50000000D03*
X146400000Y-56000000D03*
X137200000Y-56000000D03*
D30*
X135890000Y-105410000D03*
X135890000Y-100203000D03*
X140462000Y-121158000D03*
X144780000Y-119761000D03*
X129540000Y-132334000D03*
X133206502Y-132461000D03*
X158369000Y-102362000D03*
X156210000Y-100203000D03*
X118600000Y-139700000D03*
X137200000Y-139700000D03*
X155800000Y-139700000D03*
X100838000Y-63119000D03*
X105664000Y-115189000D03*
X108966000Y-120650000D03*
X118364000Y-120650000D03*
X115189000Y-113665000D03*
X102489000Y-64770000D03*
X150114000Y-72390000D03*
X150114000Y-74676000D03*
X143383000Y-81407000D03*
X146558000Y-71755000D03*
X154051000Y-77089000D03*
X150749000Y-67945000D03*
X162941000Y-67945000D03*
X154051000Y-80264000D03*
X154559000Y-84391500D03*
X159067500Y-84455000D03*
X154940000Y-89281000D03*
X158750000Y-89281000D03*
X160655000Y-89281000D03*
X162560000Y-89281000D03*
X152781000Y-94996000D03*
X161036000Y-94996000D03*
X161925000Y-97536000D03*
X151765000Y-97536000D03*
X147320000Y-108839000D03*
X137160000Y-108839000D03*
X132715000Y-108839000D03*
X101600000Y-115443000D03*
X104521000Y-110617000D03*
X114046000Y-114046000D03*
X115189000Y-111760000D03*
X144145000Y-121666000D03*
X156845000Y-121412000D03*
X156845000Y-130429000D03*
X144145000Y-130556000D03*
X138430000Y-121539000D03*
X138430000Y-130302000D03*
X125730000Y-130556000D03*
X125730000Y-121793000D03*
X120015000Y-121539000D03*
X120015000Y-130429000D03*
X107315000Y-130556000D03*
X107315000Y-121793000D03*
X106680000Y-98679000D03*
X119126000Y-100584000D03*
X139065000Y-61595000D03*
X137795000Y-60325000D03*
X136525000Y-61595000D03*
X135255000Y-60325000D03*
X136525000Y-59055000D03*
X137668000Y-62865000D03*
X164084000Y-78740000D03*
X161671000Y-81407000D03*
X133350000Y-90170000D03*
D31*
X135890000Y-105410000D02*
X135890000Y-100203000D01*
X140462000Y-121158000D02*
X141859000Y-119761000D01*
X141859000Y-119761000D02*
X144780000Y-119761000D01*
X133079502Y-132334000D02*
X129540000Y-132334000D01*
X133206502Y-132461000D02*
X133079502Y-132334000D01*
D32*
X156210000Y-100203000D02*
X158369000Y-102362000D01*
D33*
X115900000Y-137000000D02*
X118600000Y-139700000D01*
X134500000Y-137000000D02*
X137200000Y-139700000D01*
X153100000Y-137000000D02*
X155800000Y-139700000D01*
X100838000Y-63119000D02*
X113030000Y-63119000D01*
X113030000Y-63119000D02*
X113538000Y-63119000D01*
X113538000Y-63119000D02*
X116967000Y-59690000D01*
X105664000Y-115189000D02*
X105664000Y-117348000D01*
X105664000Y-117348000D02*
X108966000Y-120650000D01*
X115189000Y-117475000D02*
X118364000Y-120650000D01*
X115189000Y-113665000D02*
X115189000Y-117475000D01*
X102489000Y-64770000D02*
X116967000Y-64770000D01*
D32*
X150114000Y-74676000D02*
X150114000Y-72390000D01*
D33*
X101550000Y-60450000D02*
X113250000Y-60450000D01*
X101550000Y-54100000D02*
X113250000Y-54100000D01*
X148100000Y-137000000D02*
X148100000Y-137051000D01*
X129500000Y-137000000D02*
X129507000Y-137000000D01*
D32*
X154559000Y-84391500D02*
X154559000Y-84518500D01*
D33*
X137033000Y-63500000D02*
X133985000Y-63500000D01*
X139065000Y-61595000D02*
X137795000Y-60325000D01*
X136525000Y-61595000D02*
X135255000Y-60325000D01*
X137668000Y-62865000D02*
X137033000Y-63500000D01*
D34*
G36*
X134273000Y-58600000D02*
X134283006Y-58649410D01*
X134310197Y-58689803D01*
X135196447Y-59576053D01*
X135238461Y-59603916D01*
X135288004Y-59613238D01*
X135337272Y-59602550D01*
X135360067Y-59589594D01*
X135710067Y-59339594D01*
X135744458Y-59302733D01*
X135761799Y-59255396D01*
X135759356Y-59205042D01*
X135726053Y-59146447D01*
X135204965Y-58625359D01*
X154186802Y-58625359D01*
X154360446Y-59045612D01*
X154681697Y-59367423D01*
X155101646Y-59541801D01*
X155556359Y-59542198D01*
X155976612Y-59368554D01*
X156298423Y-59047303D01*
X156472801Y-58627354D01*
X156473198Y-58172641D01*
X156299554Y-57752388D01*
X156085397Y-57537858D01*
X156130608Y-57380233D01*
X155330000Y-56579625D01*
X154529392Y-57380233D01*
X154574644Y-57538001D01*
X154361577Y-57750697D01*
X154187199Y-58170646D01*
X154186802Y-58625359D01*
X135204965Y-58625359D01*
X134927000Y-58347394D01*
X134927000Y-56283395D01*
X135768752Y-56283395D01*
X135986150Y-56809537D01*
X136388345Y-57212435D01*
X136914108Y-57430751D01*
X137483395Y-57431248D01*
X138009537Y-57213850D01*
X138412435Y-56811655D01*
X138630751Y-56285892D01*
X138630753Y-56283395D01*
X144968752Y-56283395D01*
X145186150Y-56809537D01*
X145588345Y-57212435D01*
X146114108Y-57430751D01*
X146683395Y-57431248D01*
X147209537Y-57213850D01*
X147612435Y-56811655D01*
X147830751Y-56285892D01*
X147830832Y-56192322D01*
X153920856Y-56192322D01*
X153948638Y-56747388D01*
X154107603Y-57131163D01*
X154349787Y-57200628D01*
X155150395Y-56400020D01*
X155509605Y-56400020D01*
X156310213Y-57200628D01*
X156552397Y-57131163D01*
X156729852Y-56633762D01*
X156900446Y-57046632D01*
X157221697Y-57368443D01*
X157296178Y-57399370D01*
X157223388Y-57429446D01*
X156901577Y-57750697D01*
X156727199Y-58170646D01*
X156726802Y-58625359D01*
X156900446Y-59045612D01*
X157221697Y-59367423D01*
X157641646Y-59541801D01*
X158096359Y-59542198D01*
X158516612Y-59368554D01*
X158838423Y-59047303D01*
X159012801Y-58627354D01*
X159013198Y-58172641D01*
X158839554Y-57752388D01*
X158518303Y-57430577D01*
X158443822Y-57399650D01*
X158516612Y-57369574D01*
X158838423Y-57048323D01*
X159012801Y-56628374D01*
X159013198Y-56173661D01*
X158839554Y-55753408D01*
X158518303Y-55431597D01*
X158098354Y-55257219D01*
X157643641Y-55256822D01*
X157223388Y-55430466D01*
X156901577Y-55751717D01*
X156727199Y-56171666D01*
X156727030Y-56365680D01*
X156711362Y-56052652D01*
X156552397Y-55668877D01*
X156310213Y-55599412D01*
X155509605Y-56400020D01*
X155150395Y-56400020D01*
X154349787Y-55599412D01*
X154107603Y-55668877D01*
X153920856Y-56192322D01*
X147830832Y-56192322D01*
X147831248Y-55716605D01*
X147613850Y-55190463D01*
X147211655Y-54787565D01*
X146685892Y-54569249D01*
X146116605Y-54568752D01*
X145590463Y-54786150D01*
X145187565Y-55188345D01*
X144969249Y-55714108D01*
X144968752Y-56283395D01*
X138630753Y-56283395D01*
X138631248Y-55716605D01*
X138413850Y-55190463D01*
X138104142Y-54880213D01*
X138499392Y-54880213D01*
X138568857Y-55122397D01*
X139092302Y-55309144D01*
X139647368Y-55281362D01*
X140031143Y-55122397D01*
X140100608Y-54880213D01*
X139300000Y-54079605D01*
X138499392Y-54880213D01*
X138104142Y-54880213D01*
X138011655Y-54787565D01*
X137485892Y-54569249D01*
X136916605Y-54568752D01*
X136390463Y-54786150D01*
X135987565Y-55188345D01*
X135769249Y-55714108D01*
X135768752Y-56283395D01*
X134927000Y-56283395D01*
X134927000Y-53692302D01*
X137890856Y-53692302D01*
X137918638Y-54247368D01*
X138077603Y-54631143D01*
X138319787Y-54700608D01*
X139120395Y-53900000D01*
X139479605Y-53900000D01*
X140280213Y-54700608D01*
X140522397Y-54631143D01*
X140681318Y-54185693D01*
X140830446Y-54546612D01*
X141151697Y-54868423D01*
X141571646Y-55042801D01*
X142026359Y-55043198D01*
X142446612Y-54869554D01*
X142768423Y-54548303D01*
X142942801Y-54128354D01*
X142942802Y-54126359D01*
X143156802Y-54126359D01*
X143330446Y-54546612D01*
X143651697Y-54868423D01*
X144071646Y-55042801D01*
X144526359Y-55043198D01*
X144946612Y-54869554D01*
X145268423Y-54548303D01*
X145442801Y-54128354D01*
X145442806Y-54122022D01*
X148469151Y-54122022D01*
X148792893Y-54905538D01*
X149391829Y-55505521D01*
X150174778Y-55830630D01*
X151022542Y-55831369D01*
X151806058Y-55507627D01*
X151894031Y-55419807D01*
X154529392Y-55419807D01*
X155330000Y-56220415D01*
X156130608Y-55419807D01*
X156061143Y-55177623D01*
X155537698Y-54990876D01*
X154982632Y-55018658D01*
X154598857Y-55177623D01*
X154529392Y-55419807D01*
X151894031Y-55419807D01*
X152406041Y-54908691D01*
X152731150Y-54125742D01*
X152731889Y-53277978D01*
X152408147Y-52494462D01*
X151809211Y-51894479D01*
X151026262Y-51569370D01*
X150178498Y-51568631D01*
X149394982Y-51892373D01*
X148794999Y-52491309D01*
X148469890Y-53274258D01*
X148469151Y-54122022D01*
X145442806Y-54122022D01*
X145443198Y-53673641D01*
X145269554Y-53253388D01*
X144948303Y-52931577D01*
X144528354Y-52757199D01*
X144073641Y-52756802D01*
X143653388Y-52930446D01*
X143331577Y-53251697D01*
X143157199Y-53671646D01*
X143156802Y-54126359D01*
X142942802Y-54126359D01*
X142943198Y-53673641D01*
X142769554Y-53253388D01*
X142448303Y-52931577D01*
X142028354Y-52757199D01*
X141573641Y-52756802D01*
X141153388Y-52930446D01*
X140831577Y-53251697D01*
X140684079Y-53606912D01*
X140681362Y-53552632D01*
X140522397Y-53168857D01*
X140280213Y-53099392D01*
X139479605Y-53900000D01*
X139120395Y-53900000D01*
X138319787Y-53099392D01*
X138077603Y-53168857D01*
X137890856Y-53692302D01*
X134927000Y-53692302D01*
X134927000Y-52919787D01*
X138499392Y-52919787D01*
X139300000Y-53720395D01*
X140100608Y-52919787D01*
X140031143Y-52677603D01*
X139507698Y-52490856D01*
X138952632Y-52518638D01*
X138568857Y-52677603D01*
X138499392Y-52919787D01*
X134927000Y-52919787D01*
X134927000Y-50283395D01*
X140368752Y-50283395D01*
X140586150Y-50809537D01*
X140988345Y-51212435D01*
X141514108Y-51430751D01*
X142083395Y-51431248D01*
X142609537Y-51213850D01*
X143012435Y-50811655D01*
X143230751Y-50285892D01*
X143231248Y-49716605D01*
X143013850Y-49190463D01*
X142611655Y-48787565D01*
X142085892Y-48569249D01*
X141516605Y-48568752D01*
X140990463Y-48786150D01*
X140587565Y-49188345D01*
X140369249Y-49714108D01*
X140368752Y-50283395D01*
X134927000Y-50283395D01*
X134927000Y-43727000D01*
X164673000Y-43727000D01*
X164673000Y-53137973D01*
X164407107Y-52494462D01*
X163808171Y-51894479D01*
X163025222Y-51569370D01*
X162177458Y-51568631D01*
X161393942Y-51892373D01*
X160793959Y-52491309D01*
X160468850Y-53274258D01*
X160468111Y-54122022D01*
X160791853Y-54905538D01*
X161390789Y-55505521D01*
X162173738Y-55830630D01*
X163021502Y-55831369D01*
X163805018Y-55507627D01*
X164405001Y-54908691D01*
X164673000Y-54263278D01*
X164673000Y-82073000D01*
X141727000Y-82073000D01*
X141727000Y-72553482D01*
X149288357Y-72553482D01*
X149413767Y-72856998D01*
X149542500Y-72985956D01*
X149542500Y-74080087D01*
X149414583Y-74207781D01*
X149288643Y-74511077D01*
X149288357Y-74839482D01*
X149413767Y-75142998D01*
X149645781Y-75375417D01*
X149949077Y-75501357D01*
X150277482Y-75501643D01*
X150580998Y-75376233D01*
X150813417Y-75144219D01*
X150939357Y-74840923D01*
X150939643Y-74512518D01*
X150814233Y-74209002D01*
X150685500Y-74080044D01*
X150685500Y-72985913D01*
X150813417Y-72858219D01*
X150939357Y-72554923D01*
X150939643Y-72226518D01*
X150814233Y-71923002D01*
X150582219Y-71690583D01*
X150278923Y-71564643D01*
X149950518Y-71564357D01*
X149647002Y-71689767D01*
X149414583Y-71921781D01*
X149288643Y-72225077D01*
X149288357Y-72553482D01*
X141727000Y-72553482D01*
X141727000Y-65200000D01*
X141716994Y-65150590D01*
X141689803Y-65110197D01*
X140930905Y-64351299D01*
X153212611Y-64351299D01*
X153378538Y-64752873D01*
X153685511Y-65060382D01*
X154086795Y-65227010D01*
X154521299Y-65227389D01*
X154922873Y-65061462D01*
X155230382Y-64754489D01*
X155397010Y-64353205D01*
X155397011Y-64351299D01*
X158292611Y-64351299D01*
X158458538Y-64752873D01*
X158765511Y-65060382D01*
X159166795Y-65227010D01*
X159601299Y-65227389D01*
X160002873Y-65061462D01*
X160310382Y-64754489D01*
X160477010Y-64353205D01*
X160477389Y-63918701D01*
X160311462Y-63517127D01*
X160004489Y-63209618D01*
X159603205Y-63042990D01*
X159168701Y-63042611D01*
X158767127Y-63208538D01*
X158459618Y-63515511D01*
X158292990Y-63916795D01*
X158292611Y-64351299D01*
X155397011Y-64351299D01*
X155397389Y-63918701D01*
X155231462Y-63517127D01*
X154924489Y-63209618D01*
X154523205Y-63042990D01*
X154088701Y-63042611D01*
X153687127Y-63208538D01*
X153379618Y-63515511D01*
X153212990Y-63916795D01*
X153212611Y-64351299D01*
X140930905Y-64351299D01*
X139254803Y-62675197D01*
X139212789Y-62647334D01*
X139163246Y-62638012D01*
X139113978Y-62648700D01*
X139075197Y-62675197D01*
X138775197Y-62975197D01*
X138747334Y-63017211D01*
X138738012Y-63066754D01*
X138748700Y-63116022D01*
X138775197Y-63154803D01*
X140356377Y-64735983D01*
X139521708Y-64389398D01*
X138612281Y-64388604D01*
X137771777Y-64735894D01*
X137128154Y-65378395D01*
X136779398Y-66218292D01*
X136778604Y-67127719D01*
X137125894Y-67968223D01*
X137768395Y-68611846D01*
X138608292Y-68960602D01*
X139517719Y-68961396D01*
X140358223Y-68614106D01*
X141001846Y-67971605D01*
X141073000Y-67800247D01*
X141073000Y-70628513D01*
X141004106Y-70461777D01*
X140361605Y-69818154D01*
X139521708Y-69469398D01*
X138612281Y-69468604D01*
X137771777Y-69815894D01*
X137128154Y-70458395D01*
X136779398Y-71298292D01*
X136778604Y-72207719D01*
X137125894Y-73048223D01*
X137768395Y-73691846D01*
X138608292Y-74040602D01*
X139517719Y-74041396D01*
X140358223Y-73694106D01*
X141001846Y-73051605D01*
X141073000Y-72880247D01*
X141073000Y-80788513D01*
X141004106Y-80621777D01*
X140361605Y-79978154D01*
X139521708Y-79629398D01*
X138612281Y-79628604D01*
X137771777Y-79975894D01*
X137128154Y-80618395D01*
X136779398Y-81458292D01*
X136778604Y-82367719D01*
X137125894Y-83208223D01*
X137768395Y-83851846D01*
X138608292Y-84200602D01*
X139517719Y-84201396D01*
X140358223Y-83854106D01*
X141001846Y-83211605D01*
X141203072Y-82727000D01*
X168673000Y-82727000D01*
X168673000Y-142273000D01*
X95327000Y-142273000D01*
X95327000Y-138043958D01*
X110035647Y-138043958D01*
X110115920Y-138295259D01*
X110671279Y-138496718D01*
X111261458Y-138470315D01*
X111684080Y-138295259D01*
X111764353Y-138043958D01*
X110900000Y-137179605D01*
X110035647Y-138043958D01*
X95327000Y-138043958D01*
X95327000Y-136771279D01*
X109403282Y-136771279D01*
X109429685Y-137361458D01*
X109604741Y-137784080D01*
X109856042Y-137864353D01*
X110720395Y-137000000D01*
X111079605Y-137000000D01*
X111943958Y-137864353D01*
X112195259Y-137784080D01*
X112287250Y-137530490D01*
X112355800Y-137696395D01*
X112701784Y-138042983D01*
X113154065Y-138230786D01*
X113643787Y-138231213D01*
X114096395Y-138044200D01*
X114442983Y-137698216D01*
X114630786Y-137245935D01*
X114630787Y-137243787D01*
X114668787Y-137243787D01*
X114855800Y-137696395D01*
X115201784Y-138042983D01*
X115654065Y-138230786D01*
X116143385Y-138231213D01*
X117774358Y-139862186D01*
X117774357Y-139863482D01*
X117899767Y-140166998D01*
X118131781Y-140399417D01*
X118435077Y-140525357D01*
X118763482Y-140525643D01*
X119066998Y-140400233D01*
X119299417Y-140168219D01*
X119425357Y-139864923D01*
X119425643Y-139536518D01*
X119300233Y-139233002D01*
X119068219Y-139000583D01*
X118764923Y-138874643D01*
X118762469Y-138874641D01*
X117931786Y-138043958D01*
X128635647Y-138043958D01*
X128715920Y-138295259D01*
X129271279Y-138496718D01*
X129861458Y-138470315D01*
X130284080Y-138295259D01*
X130364353Y-138043958D01*
X129500000Y-137179605D01*
X128635647Y-138043958D01*
X117931786Y-138043958D01*
X117130789Y-137242961D01*
X117131199Y-136771279D01*
X128003282Y-136771279D01*
X128029685Y-137361458D01*
X128204741Y-137784080D01*
X128456042Y-137864353D01*
X129320395Y-137000000D01*
X129679605Y-137000000D01*
X130543958Y-137864353D01*
X130795259Y-137784080D01*
X130887250Y-137530490D01*
X130955800Y-137696395D01*
X131301784Y-138042983D01*
X131754065Y-138230786D01*
X132243787Y-138231213D01*
X132696395Y-138044200D01*
X133042983Y-137698216D01*
X133230786Y-137245935D01*
X133230787Y-137243787D01*
X133268787Y-137243787D01*
X133455800Y-137696395D01*
X133801784Y-138042983D01*
X134254065Y-138230786D01*
X134743385Y-138231213D01*
X136374358Y-139862186D01*
X136374357Y-139863482D01*
X136499767Y-140166998D01*
X136731781Y-140399417D01*
X137035077Y-140525357D01*
X137363482Y-140525643D01*
X137666998Y-140400233D01*
X137899417Y-140168219D01*
X138025357Y-139864923D01*
X138025643Y-139536518D01*
X137900233Y-139233002D01*
X137668219Y-139000583D01*
X137364923Y-138874643D01*
X137362469Y-138874641D01*
X136531786Y-138043958D01*
X147235647Y-138043958D01*
X147315920Y-138295259D01*
X147871279Y-138496718D01*
X148461458Y-138470315D01*
X148884080Y-138295259D01*
X148964353Y-138043958D01*
X148100000Y-137179605D01*
X147235647Y-138043958D01*
X136531786Y-138043958D01*
X135730789Y-137242961D01*
X135731199Y-136771279D01*
X146603282Y-136771279D01*
X146629685Y-137361458D01*
X146804741Y-137784080D01*
X147056042Y-137864353D01*
X147920395Y-137000000D01*
X148279605Y-137000000D01*
X149143958Y-137864353D01*
X149395259Y-137784080D01*
X149487250Y-137530490D01*
X149555800Y-137696395D01*
X149901784Y-138042983D01*
X150354065Y-138230786D01*
X150843787Y-138231213D01*
X151296395Y-138044200D01*
X151642983Y-137698216D01*
X151830786Y-137245935D01*
X151830787Y-137243787D01*
X151868787Y-137243787D01*
X152055800Y-137696395D01*
X152401784Y-138042983D01*
X152854065Y-138230786D01*
X153343385Y-138231213D01*
X154974358Y-139862186D01*
X154974357Y-139863482D01*
X155099767Y-140166998D01*
X155331781Y-140399417D01*
X155635077Y-140525357D01*
X155963482Y-140525643D01*
X156266998Y-140400233D01*
X156499417Y-140168219D01*
X156625357Y-139864923D01*
X156625643Y-139536518D01*
X156500233Y-139233002D01*
X156268219Y-139000583D01*
X155964923Y-138874643D01*
X155962469Y-138874641D01*
X154330789Y-137242961D01*
X154331213Y-136756213D01*
X154144200Y-136303605D01*
X153798216Y-135957017D01*
X153345935Y-135769214D01*
X152856213Y-135768787D01*
X152403605Y-135955800D01*
X152057017Y-136301784D01*
X151869214Y-136754065D01*
X151868787Y-137243787D01*
X151830787Y-137243787D01*
X151831213Y-136756213D01*
X151644200Y-136303605D01*
X151298216Y-135957017D01*
X150845935Y-135769214D01*
X150356213Y-135768787D01*
X149903605Y-135955800D01*
X149557017Y-136301784D01*
X149493843Y-136453923D01*
X149395259Y-136215920D01*
X149143958Y-136135647D01*
X148279605Y-137000000D01*
X147920395Y-137000000D01*
X147056042Y-136135647D01*
X146804741Y-136215920D01*
X146603282Y-136771279D01*
X135731199Y-136771279D01*
X135731213Y-136756213D01*
X135544200Y-136303605D01*
X135198216Y-135957017D01*
X134745935Y-135769214D01*
X134256213Y-135768787D01*
X133803605Y-135955800D01*
X133457017Y-136301784D01*
X133269214Y-136754065D01*
X133268787Y-137243787D01*
X133230787Y-137243787D01*
X133231213Y-136756213D01*
X133044200Y-136303605D01*
X132698216Y-135957017D01*
X132245935Y-135769214D01*
X131756213Y-135768787D01*
X131303605Y-135955800D01*
X130957017Y-136301784D01*
X130893843Y-136453923D01*
X130795259Y-136215920D01*
X130543958Y-136135647D01*
X129679605Y-137000000D01*
X129320395Y-137000000D01*
X128456042Y-136135647D01*
X128204741Y-136215920D01*
X128003282Y-136771279D01*
X117131199Y-136771279D01*
X117131213Y-136756213D01*
X116944200Y-136303605D01*
X116598216Y-135957017D01*
X116145935Y-135769214D01*
X115656213Y-135768787D01*
X115203605Y-135955800D01*
X114857017Y-136301784D01*
X114669214Y-136754065D01*
X114668787Y-137243787D01*
X114630787Y-137243787D01*
X114631213Y-136756213D01*
X114444200Y-136303605D01*
X114098216Y-135957017D01*
X113645935Y-135769214D01*
X113156213Y-135768787D01*
X112703605Y-135955800D01*
X112357017Y-136301784D01*
X112293843Y-136453923D01*
X112195259Y-136215920D01*
X111943958Y-136135647D01*
X111079605Y-137000000D01*
X110720395Y-137000000D01*
X109856042Y-136135647D01*
X109604741Y-136215920D01*
X109403282Y-136771279D01*
X95327000Y-136771279D01*
X95327000Y-135543958D01*
X110035647Y-135543958D01*
X110101463Y-135750000D01*
X110035647Y-135956042D01*
X110900000Y-136820395D01*
X111764353Y-135956042D01*
X111698537Y-135750000D01*
X111764353Y-135543958D01*
X110900000Y-134679605D01*
X110035647Y-135543958D01*
X95327000Y-135543958D01*
X95327000Y-134271279D01*
X109403282Y-134271279D01*
X109429685Y-134861458D01*
X109604741Y-135284080D01*
X109856042Y-135364353D01*
X110720395Y-134500000D01*
X111079605Y-134500000D01*
X111943958Y-135364353D01*
X112195259Y-135284080D01*
X112287250Y-135030490D01*
X112355800Y-135196395D01*
X112701784Y-135542983D01*
X113154065Y-135730786D01*
X113643787Y-135731213D01*
X114096395Y-135544200D01*
X114442983Y-135198216D01*
X114630786Y-134745935D01*
X114630787Y-134743787D01*
X114668787Y-134743787D01*
X114855800Y-135196395D01*
X115201784Y-135542983D01*
X115654065Y-135730786D01*
X116143787Y-135731213D01*
X116596395Y-135544200D01*
X116596637Y-135543958D01*
X128635647Y-135543958D01*
X128701463Y-135750000D01*
X128635647Y-135956042D01*
X129500000Y-136820395D01*
X130364353Y-135956042D01*
X130298537Y-135750000D01*
X130364353Y-135543958D01*
X129500000Y-134679605D01*
X128635647Y-135543958D01*
X116596637Y-135543958D01*
X116942983Y-135198216D01*
X117130786Y-134745935D01*
X117131199Y-134271279D01*
X128003282Y-134271279D01*
X128029685Y-134861458D01*
X128204741Y-135284080D01*
X128456042Y-135364353D01*
X129320395Y-134500000D01*
X128456042Y-133635647D01*
X128204741Y-133715920D01*
X128003282Y-134271279D01*
X117131199Y-134271279D01*
X117131213Y-134256213D01*
X116944200Y-133803605D01*
X116598216Y-133457017D01*
X116145935Y-133269214D01*
X115656213Y-133268787D01*
X115203605Y-133455800D01*
X114857017Y-133801784D01*
X114669214Y-134254065D01*
X114668787Y-134743787D01*
X114630787Y-134743787D01*
X114631213Y-134256213D01*
X114444200Y-133803605D01*
X114098216Y-133457017D01*
X113645935Y-133269214D01*
X113156213Y-133268787D01*
X112703605Y-133455800D01*
X112357017Y-133801784D01*
X112293843Y-133953923D01*
X112195259Y-133715920D01*
X111943958Y-133635647D01*
X111079605Y-134500000D01*
X110720395Y-134500000D01*
X109856042Y-133635647D01*
X109604741Y-133715920D01*
X109403282Y-134271279D01*
X95327000Y-134271279D01*
X95327000Y-133456042D01*
X110035647Y-133456042D01*
X110900000Y-134320395D01*
X111764353Y-133456042D01*
X111684080Y-133204741D01*
X111128721Y-133003282D01*
X110538542Y-133029685D01*
X110115920Y-133204741D01*
X110035647Y-133456042D01*
X95327000Y-133456042D01*
X95327000Y-132334000D01*
X128524000Y-132334000D01*
X128601338Y-132722806D01*
X128821580Y-133052420D01*
X128921872Y-133119433D01*
X128715920Y-133204741D01*
X128635647Y-133456042D01*
X129500000Y-134320395D01*
X130364353Y-133456042D01*
X130330480Y-133350000D01*
X131559662Y-133350000D01*
X131303605Y-133455800D01*
X130957017Y-133801784D01*
X130893843Y-133953923D01*
X130795259Y-133715920D01*
X130543958Y-133635647D01*
X129679605Y-134500000D01*
X130543958Y-135364353D01*
X130795259Y-135284080D01*
X130887250Y-135030490D01*
X130955800Y-135196395D01*
X131301784Y-135542983D01*
X131754065Y-135730786D01*
X132243787Y-135731213D01*
X132696395Y-135544200D01*
X133042983Y-135198216D01*
X133230786Y-134745935D01*
X133230787Y-134743787D01*
X133268787Y-134743787D01*
X133455800Y-135196395D01*
X133801784Y-135542983D01*
X134254065Y-135730786D01*
X134743787Y-135731213D01*
X135196395Y-135544200D01*
X135196637Y-135543958D01*
X147235647Y-135543958D01*
X147301463Y-135750000D01*
X147235647Y-135956042D01*
X148100000Y-136820395D01*
X148964353Y-135956042D01*
X148898537Y-135750000D01*
X148964353Y-135543958D01*
X148100000Y-134679605D01*
X147235647Y-135543958D01*
X135196637Y-135543958D01*
X135542983Y-135198216D01*
X135730786Y-134745935D01*
X135731199Y-134271279D01*
X146603282Y-134271279D01*
X146629685Y-134861458D01*
X146804741Y-135284080D01*
X147056042Y-135364353D01*
X147920395Y-134500000D01*
X148279605Y-134500000D01*
X149143958Y-135364353D01*
X149395259Y-135284080D01*
X149487250Y-135030490D01*
X149555800Y-135196395D01*
X149901784Y-135542983D01*
X150354065Y-135730786D01*
X150843787Y-135731213D01*
X151296395Y-135544200D01*
X151642983Y-135198216D01*
X151830786Y-134745935D01*
X151830787Y-134743787D01*
X151868787Y-134743787D01*
X152055800Y-135196395D01*
X152401784Y-135542983D01*
X152854065Y-135730786D01*
X153343787Y-135731213D01*
X153796395Y-135544200D01*
X154142983Y-135198216D01*
X154330786Y-134745935D01*
X154331213Y-134256213D01*
X154144200Y-133803605D01*
X153798216Y-133457017D01*
X153345935Y-133269214D01*
X152856213Y-133268787D01*
X152403605Y-133455800D01*
X152057017Y-133801784D01*
X151869214Y-134254065D01*
X151868787Y-134743787D01*
X151830787Y-134743787D01*
X151831213Y-134256213D01*
X151644200Y-133803605D01*
X151298216Y-133457017D01*
X150845935Y-133269214D01*
X150356213Y-133268787D01*
X149903605Y-133455800D01*
X149557017Y-133801784D01*
X149493843Y-133953923D01*
X149395259Y-133715920D01*
X149143958Y-133635647D01*
X148279605Y-134500000D01*
X147920395Y-134500000D01*
X147056042Y-133635647D01*
X146804741Y-133715920D01*
X146603282Y-134271279D01*
X135731199Y-134271279D01*
X135731213Y-134256213D01*
X135544200Y-133803605D01*
X135198216Y-133457017D01*
X135195868Y-133456042D01*
X147235647Y-133456042D01*
X148100000Y-134320395D01*
X148964353Y-133456042D01*
X148884080Y-133204741D01*
X148328721Y-133003282D01*
X147738542Y-133029685D01*
X147315920Y-133204741D01*
X147235647Y-133456042D01*
X135195868Y-133456042D01*
X134745935Y-133269214D01*
X134256213Y-133268787D01*
X133803605Y-133455800D01*
X133457017Y-133801784D01*
X133269214Y-134254065D01*
X133268787Y-134743787D01*
X133230787Y-134743787D01*
X133231213Y-134256213D01*
X133044200Y-133803605D01*
X132698216Y-133457017D01*
X132440490Y-133350000D01*
X132743371Y-133350000D01*
X132817695Y-133399662D01*
X133206502Y-133476999D01*
X133595309Y-133399662D01*
X133924922Y-133179420D01*
X134145164Y-132849807D01*
X134222501Y-132461000D01*
X134145164Y-132072193D01*
X133924922Y-131742579D01*
X133797922Y-131615580D01*
X133468309Y-131395338D01*
X133403802Y-131382507D01*
X133079502Y-131318000D01*
X129540000Y-131318000D01*
X129151194Y-131395338D01*
X128821580Y-131615580D01*
X128601338Y-131945194D01*
X128524000Y-132334000D01*
X95327000Y-132334000D01*
X95327000Y-115352482D01*
X104838357Y-115352482D01*
X104963767Y-115655998D01*
X104965500Y-115657734D01*
X104965500Y-117348000D01*
X105018670Y-117615305D01*
X105170086Y-117841914D01*
X108140358Y-120812186D01*
X108140357Y-120813482D01*
X108265767Y-121116998D01*
X108497781Y-121349417D01*
X108801077Y-121475357D01*
X109129482Y-121475643D01*
X109432998Y-121350233D01*
X109665417Y-121118219D01*
X109791357Y-120814923D01*
X109791643Y-120486518D01*
X109666233Y-120183002D01*
X109434219Y-119950583D01*
X109130923Y-119824643D01*
X109128469Y-119824641D01*
X106362500Y-117058672D01*
X106362500Y-115658134D01*
X106363417Y-115657219D01*
X106489357Y-115353923D01*
X106489643Y-115025518D01*
X106364233Y-114722002D01*
X106132219Y-114489583D01*
X105828923Y-114363643D01*
X105500518Y-114363357D01*
X105197002Y-114488767D01*
X104964583Y-114720781D01*
X104838643Y-115024077D01*
X104838357Y-115352482D01*
X95327000Y-115352482D01*
X95327000Y-113828482D01*
X114363357Y-113828482D01*
X114488767Y-114131998D01*
X114490500Y-114133734D01*
X114490500Y-117475000D01*
X114543670Y-117742305D01*
X114695086Y-117968914D01*
X117538358Y-120812186D01*
X117538357Y-120813482D01*
X117663767Y-121116998D01*
X117895781Y-121349417D01*
X118199077Y-121475357D01*
X118527482Y-121475643D01*
X118830998Y-121350233D01*
X119023566Y-121158000D01*
X139446001Y-121158000D01*
X139523338Y-121546807D01*
X139743580Y-121876420D01*
X140073193Y-122096662D01*
X140462000Y-122173999D01*
X140850807Y-122096662D01*
X141180420Y-121876420D01*
X142279841Y-120777000D01*
X144780000Y-120777000D01*
X145168806Y-120699662D01*
X145498420Y-120479420D01*
X145718662Y-120149806D01*
X145796000Y-119761000D01*
X145718662Y-119372194D01*
X145498420Y-119042580D01*
X145168806Y-118822338D01*
X144780000Y-118745000D01*
X141859000Y-118745000D01*
X141470194Y-118822338D01*
X141384699Y-118879464D01*
X141140579Y-119042580D01*
X139743580Y-120439580D01*
X139523338Y-120769193D01*
X139446001Y-121158000D01*
X119023566Y-121158000D01*
X119063417Y-121118219D01*
X119189357Y-120814923D01*
X119189643Y-120486518D01*
X119064233Y-120183002D01*
X118832219Y-119950583D01*
X118528923Y-119824643D01*
X118526469Y-119824641D01*
X115887500Y-117185672D01*
X115887500Y-116459000D01*
X128287936Y-116459000D01*
X128287936Y-118491000D01*
X128314503Y-118632190D01*
X128397946Y-118761865D01*
X128525266Y-118848859D01*
X128676400Y-118879464D01*
X130403600Y-118879464D01*
X130544790Y-118852897D01*
X130674465Y-118769454D01*
X130761459Y-118642134D01*
X130792064Y-118491000D01*
X130792064Y-118393817D01*
X131177964Y-118825732D01*
X131705209Y-119079709D01*
X131720974Y-119082358D01*
X131953000Y-118961217D01*
X131953000Y-117602000D01*
X131933000Y-117602000D01*
X131933000Y-117348000D01*
X131953000Y-117348000D01*
X131953000Y-115988783D01*
X132207000Y-115988783D01*
X132207000Y-117348000D01*
X132227000Y-117348000D01*
X132227000Y-117602000D01*
X132207000Y-117602000D01*
X132207000Y-118961217D01*
X132439026Y-119082358D01*
X132454791Y-119079709D01*
X132982036Y-118825732D01*
X133371954Y-118389320D01*
X133467296Y-118116757D01*
X133470140Y-118131057D01*
X133739935Y-118534834D01*
X134143712Y-118804629D01*
X134620000Y-118899369D01*
X135096288Y-118804629D01*
X135500065Y-118534834D01*
X135769860Y-118131057D01*
X135864600Y-117654769D01*
X135864600Y-117295231D01*
X135769860Y-116818943D01*
X135529354Y-116459000D01*
X146702936Y-116459000D01*
X146702936Y-118491000D01*
X146729503Y-118632190D01*
X146812946Y-118761865D01*
X146940266Y-118848859D01*
X147091400Y-118879464D01*
X148818600Y-118879464D01*
X148959790Y-118852897D01*
X149089465Y-118769454D01*
X149176459Y-118642134D01*
X149207064Y-118491000D01*
X149207064Y-118393817D01*
X149592964Y-118825732D01*
X150120209Y-119079709D01*
X150135974Y-119082358D01*
X150368000Y-118961217D01*
X150368000Y-117602000D01*
X150348000Y-117602000D01*
X150348000Y-117348000D01*
X150368000Y-117348000D01*
X150368000Y-115988783D01*
X150622000Y-115988783D01*
X150622000Y-117348000D01*
X150642000Y-117348000D01*
X150642000Y-117602000D01*
X150622000Y-117602000D01*
X150622000Y-118961217D01*
X150854026Y-119082358D01*
X150869791Y-119079709D01*
X151397036Y-118825732D01*
X151786954Y-118389320D01*
X151882296Y-118116757D01*
X151885140Y-118131057D01*
X152154935Y-118534834D01*
X152558712Y-118804629D01*
X153035000Y-118899369D01*
X153511288Y-118804629D01*
X153915065Y-118534834D01*
X154184860Y-118131057D01*
X154279600Y-117654769D01*
X154279600Y-117295231D01*
X154184860Y-116818943D01*
X153915065Y-116415166D01*
X153511288Y-116145371D01*
X153035000Y-116050631D01*
X152558712Y-116145371D01*
X152154935Y-116415166D01*
X151885140Y-116818943D01*
X151882296Y-116833243D01*
X151786954Y-116560680D01*
X151397036Y-116124268D01*
X150869791Y-115870291D01*
X150854026Y-115867642D01*
X150622000Y-115988783D01*
X150368000Y-115988783D01*
X150135974Y-115867642D01*
X150120209Y-115870291D01*
X149592964Y-116124268D01*
X149207064Y-116556183D01*
X149207064Y-116459000D01*
X149180497Y-116317810D01*
X149097054Y-116188135D01*
X148969734Y-116101141D01*
X148818600Y-116070536D01*
X147091400Y-116070536D01*
X146950210Y-116097103D01*
X146820535Y-116180546D01*
X146733541Y-116307866D01*
X146702936Y-116459000D01*
X135529354Y-116459000D01*
X135500065Y-116415166D01*
X135096288Y-116145371D01*
X134620000Y-116050631D01*
X134143712Y-116145371D01*
X133739935Y-116415166D01*
X133470140Y-116818943D01*
X133467296Y-116833243D01*
X133371954Y-116560680D01*
X132982036Y-116124268D01*
X132454791Y-115870291D01*
X132439026Y-115867642D01*
X132207000Y-115988783D01*
X131953000Y-115988783D01*
X131720974Y-115867642D01*
X131705209Y-115870291D01*
X131177964Y-116124268D01*
X130792064Y-116556183D01*
X130792064Y-116459000D01*
X130765497Y-116317810D01*
X130682054Y-116188135D01*
X130554734Y-116101141D01*
X130403600Y-116070536D01*
X128676400Y-116070536D01*
X128535210Y-116097103D01*
X128405535Y-116180546D01*
X128318541Y-116307866D01*
X128287936Y-116459000D01*
X115887500Y-116459000D01*
X115887500Y-114134134D01*
X115888417Y-114133219D01*
X115901298Y-114102196D01*
X124202409Y-114102196D01*
X124287467Y-114357539D01*
X124856965Y-114565516D01*
X125462700Y-114539723D01*
X125902533Y-114357539D01*
X125987591Y-114102196D01*
X125095000Y-113209605D01*
X124202409Y-114102196D01*
X115901298Y-114102196D01*
X116014357Y-113829923D01*
X116014643Y-113501518D01*
X115889233Y-113198002D01*
X115657219Y-112965583D01*
X115353923Y-112839643D01*
X115025518Y-112839357D01*
X114722002Y-112964767D01*
X114489583Y-113196781D01*
X114363643Y-113500077D01*
X114363357Y-113828482D01*
X95327000Y-113828482D01*
X95327000Y-112791965D01*
X123559484Y-112791965D01*
X123585277Y-113397700D01*
X123767461Y-113837533D01*
X124022804Y-113922591D01*
X124915395Y-113030000D01*
X125274605Y-113030000D01*
X126167196Y-113922591D01*
X126422539Y-113837533D01*
X126503229Y-113616583D01*
X126557718Y-113748458D01*
X126914663Y-114106026D01*
X127381273Y-114299779D01*
X127886510Y-114300220D01*
X128353458Y-114107282D01*
X128711026Y-113750337D01*
X128897536Y-113301170D01*
X128897536Y-113919000D01*
X128924103Y-114060190D01*
X129007546Y-114189865D01*
X129134866Y-114276859D01*
X129286000Y-114307464D01*
X131064000Y-114307464D01*
X131205190Y-114280897D01*
X131334865Y-114197454D01*
X131421859Y-114070134D01*
X131452464Y-113919000D01*
X131452464Y-113281510D01*
X138429780Y-113281510D01*
X138622718Y-113748458D01*
X138979663Y-114106026D01*
X139446273Y-114299779D01*
X139951510Y-114300220D01*
X140418458Y-114107282D01*
X140423552Y-114102196D01*
X141347409Y-114102196D01*
X141432467Y-114357539D01*
X142001965Y-114565516D01*
X142607700Y-114539723D01*
X143047533Y-114357539D01*
X143132591Y-114102196D01*
X142240000Y-113209605D01*
X141347409Y-114102196D01*
X140423552Y-114102196D01*
X140776026Y-113750337D01*
X140826247Y-113629392D01*
X140912461Y-113837533D01*
X141167804Y-113922591D01*
X142060395Y-113030000D01*
X142419605Y-113030000D01*
X143312196Y-113922591D01*
X143502536Y-113859186D01*
X143502536Y-113919000D01*
X143529103Y-114060190D01*
X143612546Y-114189865D01*
X143739866Y-114276859D01*
X143891000Y-114307464D01*
X145669000Y-114307464D01*
X145810190Y-114280897D01*
X145939865Y-114197454D01*
X146026859Y-114070134D01*
X146057464Y-113919000D01*
X146057464Y-112141000D01*
X146030897Y-111999810D01*
X145947454Y-111870135D01*
X145820134Y-111783141D01*
X145669000Y-111752536D01*
X143891000Y-111752536D01*
X143749810Y-111779103D01*
X143620135Y-111862546D01*
X143533141Y-111989866D01*
X143502536Y-112141000D01*
X143502536Y-112200814D01*
X143312196Y-112137409D01*
X142419605Y-113030000D01*
X142060395Y-113030000D01*
X141167804Y-112137409D01*
X140912461Y-112222467D01*
X140831771Y-112443417D01*
X140777282Y-112311542D01*
X140424161Y-111957804D01*
X141347409Y-111957804D01*
X142240000Y-112850395D01*
X143132591Y-111957804D01*
X143047533Y-111702461D01*
X142478035Y-111494484D01*
X141872300Y-111520277D01*
X141432467Y-111702461D01*
X141347409Y-111957804D01*
X140424161Y-111957804D01*
X140420337Y-111953974D01*
X139953727Y-111760221D01*
X139448490Y-111759780D01*
X138981542Y-111952718D01*
X138623974Y-112309663D01*
X138430221Y-112776273D01*
X138429780Y-113281510D01*
X131452464Y-113281510D01*
X131452464Y-112141000D01*
X131425897Y-111999810D01*
X131342454Y-111870135D01*
X131215134Y-111783141D01*
X131064000Y-111752536D01*
X129286000Y-111752536D01*
X129144810Y-111779103D01*
X129015135Y-111862546D01*
X128928141Y-111989866D01*
X128897536Y-112141000D01*
X128897536Y-112759893D01*
X128712282Y-112311542D01*
X128355337Y-111953974D01*
X127888727Y-111760221D01*
X127383490Y-111759780D01*
X126916542Y-111952718D01*
X126558974Y-112309663D01*
X126508753Y-112430608D01*
X126422539Y-112222467D01*
X126167196Y-112137409D01*
X125274605Y-113030000D01*
X124915395Y-113030000D01*
X124022804Y-112137409D01*
X123767461Y-112222467D01*
X123559484Y-112791965D01*
X95327000Y-112791965D01*
X95327000Y-111957804D01*
X124202409Y-111957804D01*
X125095000Y-112850395D01*
X125987591Y-111957804D01*
X125902533Y-111702461D01*
X125333035Y-111494484D01*
X124727300Y-111520277D01*
X124287467Y-111702461D01*
X124202409Y-111957804D01*
X95327000Y-111957804D01*
X95327000Y-92075000D01*
X122801536Y-92075000D01*
X122801536Y-100965000D01*
X122828103Y-101106190D01*
X122911546Y-101235865D01*
X123038866Y-101322859D01*
X123190000Y-101353464D01*
X132080000Y-101353464D01*
X132221190Y-101326897D01*
X132350865Y-101243454D01*
X132437859Y-101116134D01*
X132468464Y-100965000D01*
X132468464Y-100203000D01*
X134874000Y-100203000D01*
X134874000Y-105410000D01*
X134951338Y-105798806D01*
X135171580Y-106128420D01*
X135501194Y-106348662D01*
X135890000Y-106426000D01*
X136278806Y-106348662D01*
X136608420Y-106128420D01*
X136828662Y-105798806D01*
X136906000Y-105410000D01*
X136906000Y-100203000D01*
X136828662Y-99814194D01*
X136608420Y-99484580D01*
X136278806Y-99264338D01*
X135890000Y-99187000D01*
X135501194Y-99264338D01*
X135171580Y-99484580D01*
X134951338Y-99814194D01*
X134874000Y-100203000D01*
X132468464Y-100203000D01*
X132468464Y-96805750D01*
X137160000Y-96805750D01*
X137160000Y-101091309D01*
X137256673Y-101324698D01*
X137435301Y-101503327D01*
X137668690Y-101600000D01*
X141954250Y-101600000D01*
X142113000Y-101441250D01*
X142113000Y-96647000D01*
X142367000Y-96647000D01*
X142367000Y-101441250D01*
X142525750Y-101600000D01*
X146811310Y-101600000D01*
X147044699Y-101503327D01*
X147223327Y-101324698D01*
X147320000Y-101091309D01*
X147320000Y-100366482D01*
X155384357Y-100366482D01*
X155509767Y-100669998D01*
X155741781Y-100902417D01*
X156045077Y-101028357D01*
X156227292Y-101028516D01*
X157543514Y-102344738D01*
X157543357Y-102525482D01*
X157668767Y-102828998D01*
X157900781Y-103061417D01*
X158204077Y-103187357D01*
X158532482Y-103187643D01*
X158835998Y-103062233D01*
X159068417Y-102830219D01*
X159194357Y-102526923D01*
X159194643Y-102198518D01*
X159069233Y-101895002D01*
X158837219Y-101662583D01*
X158533923Y-101536643D01*
X158351708Y-101536484D01*
X157035486Y-100220262D01*
X157035643Y-100039518D01*
X156910233Y-99736002D01*
X156678219Y-99503583D01*
X156374923Y-99377643D01*
X156046518Y-99377357D01*
X155743002Y-99502767D01*
X155510583Y-99734781D01*
X155384643Y-100038077D01*
X155384357Y-100366482D01*
X147320000Y-100366482D01*
X147320000Y-96805750D01*
X147161250Y-96647000D01*
X142367000Y-96647000D01*
X142113000Y-96647000D01*
X137318750Y-96647000D01*
X137160000Y-96805750D01*
X132468464Y-96805750D01*
X132468464Y-92075000D01*
X132444698Y-91948691D01*
X137160000Y-91948691D01*
X137160000Y-96234250D01*
X137318750Y-96393000D01*
X142113000Y-96393000D01*
X142113000Y-91598750D01*
X142367000Y-91598750D01*
X142367000Y-96393000D01*
X147161250Y-96393000D01*
X147320000Y-96234250D01*
X147320000Y-91948691D01*
X147223327Y-91715302D01*
X147044699Y-91536673D01*
X146811310Y-91440000D01*
X142525750Y-91440000D01*
X142367000Y-91598750D01*
X142113000Y-91598750D01*
X141954250Y-91440000D01*
X137668690Y-91440000D01*
X137435301Y-91536673D01*
X137256673Y-91715302D01*
X137160000Y-91948691D01*
X132444698Y-91948691D01*
X132441897Y-91933810D01*
X132358454Y-91804135D01*
X132231134Y-91717141D01*
X132080000Y-91686536D01*
X123190000Y-91686536D01*
X123048810Y-91713103D01*
X122919135Y-91796546D01*
X122832141Y-91923866D01*
X122801536Y-92075000D01*
X95327000Y-92075000D01*
X95327000Y-88478784D01*
X132905313Y-88478784D01*
X133069311Y-88875689D01*
X133372714Y-89179622D01*
X133769332Y-89344313D01*
X134198784Y-89344687D01*
X134595689Y-89180689D01*
X134899622Y-88877286D01*
X135064313Y-88480668D01*
X135064687Y-88051216D01*
X134900689Y-87654311D01*
X134694458Y-87447719D01*
X136778604Y-87447719D01*
X137125894Y-88288223D01*
X137768395Y-88931846D01*
X138608292Y-89280602D01*
X139517719Y-89281396D01*
X140358223Y-88934106D01*
X141001846Y-88291605D01*
X141350602Y-87451708D01*
X141351396Y-86542281D01*
X141004106Y-85701777D01*
X140361605Y-85058154D01*
X139521708Y-84709398D01*
X138612281Y-84708604D01*
X137771777Y-85055894D01*
X137128154Y-85698395D01*
X136779398Y-86538292D01*
X136778604Y-87447719D01*
X134694458Y-87447719D01*
X134597286Y-87350378D01*
X134200668Y-87185687D01*
X133771216Y-87185313D01*
X133374311Y-87349311D01*
X133070378Y-87652714D01*
X132905687Y-88049332D01*
X132905313Y-88478784D01*
X95327000Y-88478784D01*
X95327000Y-87219096D01*
X103643234Y-87219096D01*
X103815142Y-87635146D01*
X104133180Y-87953739D01*
X104548929Y-88126373D01*
X104999096Y-88126766D01*
X105415146Y-87954858D01*
X105733739Y-87636820D01*
X105906373Y-87221071D01*
X105906374Y-87219096D01*
X114438234Y-87219096D01*
X114610142Y-87635146D01*
X114928180Y-87953739D01*
X115343929Y-88126373D01*
X115794096Y-88126766D01*
X116210146Y-87954858D01*
X116528739Y-87636820D01*
X116701373Y-87221071D01*
X116701374Y-87219096D01*
X125233234Y-87219096D01*
X125405142Y-87635146D01*
X125723180Y-87953739D01*
X126138929Y-88126373D01*
X126589096Y-88126766D01*
X127005146Y-87954858D01*
X127323739Y-87636820D01*
X127496373Y-87221071D01*
X127496766Y-86770904D01*
X127324858Y-86354854D01*
X127006820Y-86036261D01*
X126591071Y-85863627D01*
X126140904Y-85863234D01*
X125724854Y-86035142D01*
X125406261Y-86353180D01*
X125233627Y-86768929D01*
X125233234Y-87219096D01*
X116701374Y-87219096D01*
X116701766Y-86770904D01*
X116529858Y-86354854D01*
X116211820Y-86036261D01*
X115796071Y-85863627D01*
X115345904Y-85863234D01*
X114929854Y-86035142D01*
X114611261Y-86353180D01*
X114438627Y-86768929D01*
X114438234Y-87219096D01*
X105906374Y-87219096D01*
X105906766Y-86770904D01*
X105734858Y-86354854D01*
X105416820Y-86036261D01*
X105001071Y-85863627D01*
X104550904Y-85863234D01*
X104134854Y-86035142D01*
X103816261Y-86353180D01*
X103643627Y-86768929D01*
X103643234Y-87219096D01*
X95327000Y-87219096D01*
X95327000Y-82886930D01*
X103982675Y-82886930D01*
X104050735Y-83127931D01*
X104570034Y-83312767D01*
X105120538Y-83284805D01*
X105499265Y-83127931D01*
X105567325Y-82886930D01*
X114777675Y-82886930D01*
X114845735Y-83127931D01*
X115365034Y-83312767D01*
X115915538Y-83284805D01*
X116294265Y-83127931D01*
X116362325Y-82886930D01*
X125572675Y-82886930D01*
X125640735Y-83127931D01*
X126160034Y-83312767D01*
X126710538Y-83284805D01*
X127089265Y-83127931D01*
X127157325Y-82886930D01*
X126365000Y-82094605D01*
X125572675Y-82886930D01*
X116362325Y-82886930D01*
X115570000Y-82094605D01*
X114777675Y-82886930D01*
X105567325Y-82886930D01*
X104775000Y-82094605D01*
X103982675Y-82886930D01*
X95327000Y-82886930D01*
X95327000Y-81710034D01*
X103377233Y-81710034D01*
X103405195Y-82260538D01*
X103562069Y-82639265D01*
X103803070Y-82707325D01*
X104595395Y-81915000D01*
X104954605Y-81915000D01*
X105746930Y-82707325D01*
X105987931Y-82639265D01*
X106172767Y-82119966D01*
X106151946Y-81710034D01*
X114172233Y-81710034D01*
X114200195Y-82260538D01*
X114357069Y-82639265D01*
X114598070Y-82707325D01*
X115390395Y-81915000D01*
X115749605Y-81915000D01*
X116541930Y-82707325D01*
X116782931Y-82639265D01*
X116967767Y-82119966D01*
X116946946Y-81710034D01*
X124967233Y-81710034D01*
X124995195Y-82260538D01*
X125152069Y-82639265D01*
X125393070Y-82707325D01*
X126185395Y-81915000D01*
X126544605Y-81915000D01*
X127336930Y-82707325D01*
X127577931Y-82639265D01*
X127762767Y-82119966D01*
X127734805Y-81569462D01*
X127577931Y-81190735D01*
X127336930Y-81122675D01*
X126544605Y-81915000D01*
X126185395Y-81915000D01*
X125393070Y-81122675D01*
X125152069Y-81190735D01*
X124967233Y-81710034D01*
X116946946Y-81710034D01*
X116939805Y-81569462D01*
X116782931Y-81190735D01*
X116541930Y-81122675D01*
X115749605Y-81915000D01*
X115390395Y-81915000D01*
X114598070Y-81122675D01*
X114357069Y-81190735D01*
X114172233Y-81710034D01*
X106151946Y-81710034D01*
X106144805Y-81569462D01*
X105987931Y-81190735D01*
X105746930Y-81122675D01*
X104954605Y-81915000D01*
X104595395Y-81915000D01*
X103803070Y-81122675D01*
X103562069Y-81190735D01*
X103377233Y-81710034D01*
X95327000Y-81710034D01*
X95327000Y-80943070D01*
X103982675Y-80943070D01*
X104775000Y-81735395D01*
X105567325Y-80943070D01*
X114777675Y-80943070D01*
X115570000Y-81735395D01*
X116362325Y-80943070D01*
X125572675Y-80943070D01*
X126365000Y-81735395D01*
X127157325Y-80943070D01*
X127089265Y-80702069D01*
X126569966Y-80517233D01*
X126019462Y-80545195D01*
X125640735Y-80702069D01*
X125572675Y-80943070D01*
X116362325Y-80943070D01*
X116294265Y-80702069D01*
X115774966Y-80517233D01*
X115224462Y-80545195D01*
X114845735Y-80702069D01*
X114777675Y-80943070D01*
X105567325Y-80943070D01*
X105499265Y-80702069D01*
X104979966Y-80517233D01*
X104429462Y-80545195D01*
X104050735Y-80702069D01*
X103982675Y-80943070D01*
X95327000Y-80943070D01*
X95327000Y-79946500D01*
X132898036Y-79946500D01*
X132898036Y-81343500D01*
X132924603Y-81484690D01*
X133008046Y-81614365D01*
X133135366Y-81701359D01*
X133286500Y-81731964D01*
X134683500Y-81731964D01*
X134824690Y-81705397D01*
X134954365Y-81621954D01*
X135041359Y-81494634D01*
X135071964Y-81343500D01*
X135071964Y-79946500D01*
X135045397Y-79805310D01*
X134961954Y-79675635D01*
X134834634Y-79588641D01*
X134683500Y-79558036D01*
X133286500Y-79558036D01*
X133145310Y-79584603D01*
X133015635Y-79668046D01*
X132928641Y-79795366D01*
X132898036Y-79946500D01*
X95327000Y-79946500D01*
X95327000Y-77683784D01*
X132905313Y-77683784D01*
X133069311Y-78080689D01*
X133372714Y-78384622D01*
X133769332Y-78549313D01*
X134198784Y-78549687D01*
X134595689Y-78385689D01*
X134899622Y-78082286D01*
X135064313Y-77685668D01*
X135064687Y-77256216D01*
X134900689Y-76859311D01*
X134597286Y-76555378D01*
X134200668Y-76390687D01*
X133771216Y-76390313D01*
X133374311Y-76554311D01*
X133070378Y-76857714D01*
X132905687Y-77254332D01*
X132905313Y-77683784D01*
X95327000Y-77683784D01*
X95327000Y-77171930D01*
X103982675Y-77171930D01*
X104050735Y-77412931D01*
X104570034Y-77597767D01*
X105120538Y-77569805D01*
X105499265Y-77412931D01*
X105567325Y-77171930D01*
X114777675Y-77171930D01*
X114845735Y-77412931D01*
X115365034Y-77597767D01*
X115915538Y-77569805D01*
X116294265Y-77412931D01*
X116362325Y-77171930D01*
X125572675Y-77171930D01*
X125640735Y-77412931D01*
X126160034Y-77597767D01*
X126710538Y-77569805D01*
X127089265Y-77412931D01*
X127157325Y-77171930D01*
X126365000Y-76379605D01*
X125572675Y-77171930D01*
X116362325Y-77171930D01*
X115570000Y-76379605D01*
X114777675Y-77171930D01*
X105567325Y-77171930D01*
X104775000Y-76379605D01*
X103982675Y-77171930D01*
X95327000Y-77171930D01*
X95327000Y-75995034D01*
X103377233Y-75995034D01*
X103405195Y-76545538D01*
X103562069Y-76924265D01*
X103803070Y-76992325D01*
X104595395Y-76200000D01*
X104954605Y-76200000D01*
X105746930Y-76992325D01*
X105987931Y-76924265D01*
X106172767Y-76404966D01*
X106151946Y-75995034D01*
X114172233Y-75995034D01*
X114200195Y-76545538D01*
X114357069Y-76924265D01*
X114598070Y-76992325D01*
X115390395Y-76200000D01*
X115749605Y-76200000D01*
X116541930Y-76992325D01*
X116782931Y-76924265D01*
X116967767Y-76404966D01*
X116946946Y-75995034D01*
X124967233Y-75995034D01*
X124995195Y-76545538D01*
X125152069Y-76924265D01*
X125393070Y-76992325D01*
X126185395Y-76200000D01*
X126544605Y-76200000D01*
X127336930Y-76992325D01*
X127577931Y-76924265D01*
X127762767Y-76404966D01*
X127734805Y-75854462D01*
X127577931Y-75475735D01*
X127336930Y-75407675D01*
X126544605Y-76200000D01*
X126185395Y-76200000D01*
X125393070Y-75407675D01*
X125152069Y-75475735D01*
X124967233Y-75995034D01*
X116946946Y-75995034D01*
X116939805Y-75854462D01*
X116782931Y-75475735D01*
X116541930Y-75407675D01*
X115749605Y-76200000D01*
X115390395Y-76200000D01*
X114598070Y-75407675D01*
X114357069Y-75475735D01*
X114172233Y-75995034D01*
X106151946Y-75995034D01*
X106144805Y-75854462D01*
X105987931Y-75475735D01*
X105746930Y-75407675D01*
X104954605Y-76200000D01*
X104595395Y-76200000D01*
X103803070Y-75407675D01*
X103562069Y-75475735D01*
X103377233Y-75995034D01*
X95327000Y-75995034D01*
X95327000Y-75228070D01*
X103982675Y-75228070D01*
X104775000Y-76020395D01*
X105567325Y-75228070D01*
X114777675Y-75228070D01*
X115570000Y-76020395D01*
X116362325Y-75228070D01*
X125572675Y-75228070D01*
X126365000Y-76020395D01*
X127157325Y-75228070D01*
X127089265Y-74987069D01*
X126569966Y-74802233D01*
X126019462Y-74830195D01*
X125640735Y-74987069D01*
X125572675Y-75228070D01*
X116362325Y-75228070D01*
X116294265Y-74987069D01*
X115774966Y-74802233D01*
X115224462Y-74830195D01*
X114845735Y-74987069D01*
X114777675Y-75228070D01*
X105567325Y-75228070D01*
X105499265Y-74987069D01*
X104979966Y-74802233D01*
X104429462Y-74830195D01*
X104050735Y-74987069D01*
X103982675Y-75228070D01*
X95327000Y-75228070D01*
X95327000Y-71344096D01*
X103643234Y-71344096D01*
X103815142Y-71760146D01*
X104133180Y-72078739D01*
X104548929Y-72251373D01*
X104999096Y-72251766D01*
X105415146Y-72079858D01*
X105733739Y-71761820D01*
X105906373Y-71346071D01*
X105906374Y-71344096D01*
X114438234Y-71344096D01*
X114610142Y-71760146D01*
X114928180Y-72078739D01*
X115343929Y-72251373D01*
X115794096Y-72251766D01*
X116210146Y-72079858D01*
X116528739Y-71761820D01*
X116701373Y-71346071D01*
X116701374Y-71344096D01*
X125233234Y-71344096D01*
X125405142Y-71760146D01*
X125723180Y-72078739D01*
X126138929Y-72251373D01*
X126589096Y-72251766D01*
X127005146Y-72079858D01*
X127323739Y-71761820D01*
X127496373Y-71346071D01*
X127496766Y-70895904D01*
X127324858Y-70479854D01*
X127006820Y-70161261D01*
X126591071Y-69988627D01*
X126140904Y-69988234D01*
X125724854Y-70160142D01*
X125406261Y-70478180D01*
X125233627Y-70893929D01*
X125233234Y-71344096D01*
X116701374Y-71344096D01*
X116701766Y-70895904D01*
X116529858Y-70479854D01*
X116211820Y-70161261D01*
X115796071Y-69988627D01*
X115345904Y-69988234D01*
X114929854Y-70160142D01*
X114611261Y-70478180D01*
X114438627Y-70893929D01*
X114438234Y-71344096D01*
X105906374Y-71344096D01*
X105906766Y-70895904D01*
X105734858Y-70479854D01*
X105416820Y-70161261D01*
X105001071Y-69988627D01*
X104550904Y-69988234D01*
X104134854Y-70160142D01*
X103816261Y-70478180D01*
X103643627Y-70893929D01*
X103643234Y-71344096D01*
X95327000Y-71344096D01*
X95327000Y-69151500D01*
X132898036Y-69151500D01*
X132898036Y-70548500D01*
X132924603Y-70689690D01*
X133008046Y-70819365D01*
X133135366Y-70906359D01*
X133286500Y-70936964D01*
X134683500Y-70936964D01*
X134824690Y-70910397D01*
X134954365Y-70826954D01*
X135041359Y-70699634D01*
X135071964Y-70548500D01*
X135071964Y-69151500D01*
X135045397Y-69010310D01*
X134961954Y-68880635D01*
X134834634Y-68793641D01*
X134683500Y-68763036D01*
X133286500Y-68763036D01*
X133145310Y-68789603D01*
X133015635Y-68873046D01*
X132928641Y-69000366D01*
X132898036Y-69151500D01*
X95327000Y-69151500D01*
X95327000Y-64933482D01*
X101663357Y-64933482D01*
X101788767Y-65236998D01*
X102020781Y-65469417D01*
X102324077Y-65595357D01*
X102652482Y-65595643D01*
X102955998Y-65470233D01*
X102957734Y-65468500D01*
X115562536Y-65468500D01*
X115562536Y-65633600D01*
X115589103Y-65774790D01*
X115672546Y-65904465D01*
X115799866Y-65991459D01*
X115951000Y-66022064D01*
X117983000Y-66022064D01*
X118124190Y-65995497D01*
X118253865Y-65912054D01*
X118340859Y-65784734D01*
X118371464Y-65633600D01*
X118371464Y-63906400D01*
X118348762Y-63785750D01*
X132334000Y-63785750D01*
X132334000Y-64642309D01*
X132430673Y-64875698D01*
X132609301Y-65054327D01*
X132842690Y-65151000D01*
X132912850Y-65151000D01*
X132694340Y-65478022D01*
X132588000Y-66012631D01*
X132588000Y-66067369D01*
X132694340Y-66601978D01*
X132997172Y-67055197D01*
X133450391Y-67358029D01*
X133985000Y-67464369D01*
X134519609Y-67358029D01*
X134972828Y-67055197D01*
X135275660Y-66601978D01*
X135382000Y-66067369D01*
X135382000Y-66012631D01*
X135275660Y-65478022D01*
X135057150Y-65151000D01*
X135127310Y-65151000D01*
X135360699Y-65054327D01*
X135539327Y-64875698D01*
X135636000Y-64642309D01*
X135636000Y-63785750D01*
X135477250Y-63627000D01*
X134112000Y-63627000D01*
X134112000Y-63647000D01*
X133858000Y-63647000D01*
X133858000Y-63627000D01*
X132492750Y-63627000D01*
X132334000Y-63785750D01*
X118348762Y-63785750D01*
X118344897Y-63765210D01*
X118261454Y-63635535D01*
X118134134Y-63548541D01*
X117983000Y-63517936D01*
X115951000Y-63517936D01*
X115809810Y-63544503D01*
X115680135Y-63627946D01*
X115593141Y-63755266D01*
X115562536Y-63906400D01*
X115562536Y-64071500D01*
X102958134Y-64071500D01*
X102957219Y-64070583D01*
X102653923Y-63944643D01*
X102325518Y-63944357D01*
X102022002Y-64069767D01*
X101789583Y-64301781D01*
X101663643Y-64605077D01*
X101663357Y-64933482D01*
X95327000Y-64933482D01*
X95327000Y-60822513D01*
X99668674Y-60822513D01*
X99954436Y-61514109D01*
X100483108Y-62043704D01*
X101174204Y-62330673D01*
X101922513Y-62331326D01*
X102614109Y-62045564D01*
X103143704Y-61516892D01*
X103296674Y-61148500D01*
X111503369Y-61148500D01*
X111654436Y-61514109D01*
X112183108Y-62043704D01*
X112874204Y-62330673D01*
X113338094Y-62331078D01*
X113248672Y-62420500D01*
X101307134Y-62420500D01*
X101306219Y-62419583D01*
X101002923Y-62293643D01*
X100674518Y-62293357D01*
X100371002Y-62418767D01*
X100138583Y-62650781D01*
X100012643Y-62954077D01*
X100012357Y-63282482D01*
X100137767Y-63585998D01*
X100369781Y-63818417D01*
X100673077Y-63944357D01*
X101001482Y-63944643D01*
X101304998Y-63819233D01*
X101306734Y-63817500D01*
X113538000Y-63817500D01*
X113805305Y-63764330D01*
X114031914Y-63612914D01*
X115574365Y-62070463D01*
X115542631Y-62230000D01*
X115637371Y-62706288D01*
X115907166Y-63110065D01*
X116310943Y-63379860D01*
X116787231Y-63474600D01*
X117146769Y-63474600D01*
X117623057Y-63379860D01*
X118026834Y-63110065D01*
X118296629Y-62706288D01*
X118365969Y-62357691D01*
X132334000Y-62357691D01*
X132334000Y-63214250D01*
X132492750Y-63373000D01*
X133858000Y-63373000D01*
X133858000Y-62007750D01*
X134112000Y-62007750D01*
X134112000Y-63373000D01*
X135477250Y-63373000D01*
X135636000Y-63214250D01*
X135636000Y-62357691D01*
X135539327Y-62124302D01*
X135360699Y-61945673D01*
X135127310Y-61849000D01*
X134270750Y-61849000D01*
X134112000Y-62007750D01*
X133858000Y-62007750D01*
X133699250Y-61849000D01*
X132842690Y-61849000D01*
X132609301Y-61945673D01*
X132430673Y-62124302D01*
X132334000Y-62357691D01*
X118365969Y-62357691D01*
X118391369Y-62230000D01*
X118296629Y-61753712D01*
X118026834Y-61349935D01*
X117623057Y-61080140D01*
X117146769Y-60985400D01*
X116787231Y-60985400D01*
X116627694Y-61017134D01*
X116723004Y-60921824D01*
X116787231Y-60934600D01*
X117146769Y-60934600D01*
X117623057Y-60839860D01*
X118026834Y-60570065D01*
X118296629Y-60166288D01*
X118391369Y-59690000D01*
X118296629Y-59213712D01*
X118026834Y-58809935D01*
X117623057Y-58540140D01*
X117146769Y-58445400D01*
X116787231Y-58445400D01*
X116310943Y-58540140D01*
X115907166Y-58809935D01*
X115637371Y-59213712D01*
X115542631Y-59690000D01*
X115615058Y-60054114D01*
X115130924Y-60538248D01*
X115131326Y-60077487D01*
X114845564Y-59385891D01*
X114316892Y-58856296D01*
X113625796Y-58569327D01*
X112877487Y-58568674D01*
X112185891Y-58854436D01*
X111656296Y-59383108D01*
X111503326Y-59751500D01*
X103296631Y-59751500D01*
X103145564Y-59385891D01*
X102616892Y-58856296D01*
X101925796Y-58569327D01*
X101177487Y-58568674D01*
X100485891Y-58854436D01*
X99956296Y-59383108D01*
X99669327Y-60074204D01*
X99668674Y-60822513D01*
X95327000Y-60822513D01*
X95327000Y-54472513D01*
X99668674Y-54472513D01*
X99954436Y-55164109D01*
X100483108Y-55693704D01*
X101174204Y-55980673D01*
X101922513Y-55981326D01*
X102614109Y-55695564D01*
X103143704Y-55166892D01*
X103296674Y-54798500D01*
X111503369Y-54798500D01*
X111654436Y-55164109D01*
X112183108Y-55693704D01*
X112874204Y-55980673D01*
X113622513Y-55981326D01*
X114113630Y-55778400D01*
X115562536Y-55778400D01*
X115562536Y-57505600D01*
X115589103Y-57646790D01*
X115672546Y-57776465D01*
X115799866Y-57863459D01*
X115951000Y-57894064D01*
X117983000Y-57894064D01*
X118124190Y-57867497D01*
X118253865Y-57784054D01*
X118340859Y-57656734D01*
X118371464Y-57505600D01*
X118371464Y-55778400D01*
X118344897Y-55637210D01*
X118261454Y-55507535D01*
X118134134Y-55420541D01*
X117983000Y-55389936D01*
X115951000Y-55389936D01*
X115809810Y-55416503D01*
X115680135Y-55499946D01*
X115593141Y-55627266D01*
X115562536Y-55778400D01*
X114113630Y-55778400D01*
X114314109Y-55695564D01*
X114843704Y-55166892D01*
X115130673Y-54475796D01*
X115130999Y-54102000D01*
X115542631Y-54102000D01*
X115637371Y-54578288D01*
X115907166Y-54982065D01*
X116310943Y-55251860D01*
X116787231Y-55346600D01*
X117146769Y-55346600D01*
X117623057Y-55251860D01*
X118026834Y-54982065D01*
X118296629Y-54578288D01*
X118391369Y-54102000D01*
X118296629Y-53625712D01*
X118026834Y-53221935D01*
X117623057Y-52952140D01*
X117146769Y-52857400D01*
X116787231Y-52857400D01*
X116310943Y-52952140D01*
X115907166Y-53221935D01*
X115637371Y-53625712D01*
X115542631Y-54102000D01*
X115130999Y-54102000D01*
X115131326Y-53727487D01*
X114845564Y-53035891D01*
X114316892Y-52506296D01*
X113625796Y-52219327D01*
X112877487Y-52218674D01*
X112185891Y-52504436D01*
X111656296Y-53033108D01*
X111503326Y-53401500D01*
X103296631Y-53401500D01*
X103145564Y-53035891D01*
X102616892Y-52506296D01*
X101925796Y-52219327D01*
X101177487Y-52218674D01*
X100485891Y-52504436D01*
X99956296Y-53033108D01*
X99669327Y-53724204D01*
X99668674Y-54472513D01*
X95327000Y-54472513D01*
X95327000Y-51562000D01*
X115542631Y-51562000D01*
X115637371Y-52038288D01*
X115907166Y-52442065D01*
X116310943Y-52711860D01*
X116787231Y-52806600D01*
X117146769Y-52806600D01*
X117623057Y-52711860D01*
X118026834Y-52442065D01*
X118296629Y-52038288D01*
X118391369Y-51562000D01*
X118296629Y-51085712D01*
X118026834Y-50681935D01*
X117623057Y-50412140D01*
X117146769Y-50317400D01*
X116787231Y-50317400D01*
X116310943Y-50412140D01*
X115907166Y-50681935D01*
X115637371Y-51085712D01*
X115542631Y-51562000D01*
X95327000Y-51562000D01*
X95327000Y-49263970D01*
X100215635Y-49263970D01*
X100375418Y-49582739D01*
X101166187Y-49892723D01*
X102015387Y-49876497D01*
X102724582Y-49582739D01*
X102884365Y-49263970D01*
X111865635Y-49263970D01*
X112025418Y-49582739D01*
X112816187Y-49892723D01*
X113665387Y-49876497D01*
X114374582Y-49582739D01*
X114534365Y-49263970D01*
X113200000Y-47929605D01*
X111865635Y-49263970D01*
X102884365Y-49263970D01*
X101550000Y-47929605D01*
X100215635Y-49263970D01*
X95327000Y-49263970D01*
X95327000Y-47366187D01*
X99407277Y-47366187D01*
X99423503Y-48215387D01*
X99717261Y-48924582D01*
X100036030Y-49084365D01*
X101370395Y-47750000D01*
X101729605Y-47750000D01*
X103063970Y-49084365D01*
X103382739Y-48924582D01*
X103692723Y-48133813D01*
X103678056Y-47366187D01*
X111057277Y-47366187D01*
X111073503Y-48215387D01*
X111367261Y-48924582D01*
X111686030Y-49084365D01*
X113020395Y-47750000D01*
X113379605Y-47750000D01*
X114713970Y-49084365D01*
X115032739Y-48924582D01*
X115342723Y-48133813D01*
X115326497Y-47284613D01*
X115032739Y-46575418D01*
X114713970Y-46415635D01*
X113379605Y-47750000D01*
X113020395Y-47750000D01*
X111686030Y-46415635D01*
X111367261Y-46575418D01*
X111057277Y-47366187D01*
X103678056Y-47366187D01*
X103676497Y-47284613D01*
X103382739Y-46575418D01*
X103063970Y-46415635D01*
X101729605Y-47750000D01*
X101370395Y-47750000D01*
X100036030Y-46415635D01*
X99717261Y-46575418D01*
X99407277Y-47366187D01*
X95327000Y-47366187D01*
X95327000Y-46236030D01*
X100215635Y-46236030D01*
X101550000Y-47570395D01*
X102884365Y-46236030D01*
X111865635Y-46236030D01*
X113200000Y-47570395D01*
X114534365Y-46236030D01*
X114374582Y-45917261D01*
X113583813Y-45607277D01*
X112734613Y-45623503D01*
X112025418Y-45917261D01*
X111865635Y-46236030D01*
X102884365Y-46236030D01*
X102724582Y-45917261D01*
X101933813Y-45607277D01*
X101084613Y-45623503D01*
X100375418Y-45917261D01*
X100215635Y-46236030D01*
X95327000Y-46236030D01*
X95327000Y-43727000D01*
X134273000Y-43727000D01*
X134273000Y-58600000D01*
X134273000Y-58600000D01*
G37*
X134273000Y-58600000D02*
X134283006Y-58649410D01*
X134310197Y-58689803D01*
X135196447Y-59576053D01*
X135238461Y-59603916D01*
X135288004Y-59613238D01*
X135337272Y-59602550D01*
X135360067Y-59589594D01*
X135710067Y-59339594D01*
X135744458Y-59302733D01*
X135761799Y-59255396D01*
X135759356Y-59205042D01*
X135726053Y-59146447D01*
X135204965Y-58625359D01*
X154186802Y-58625359D01*
X154360446Y-59045612D01*
X154681697Y-59367423D01*
X155101646Y-59541801D01*
X155556359Y-59542198D01*
X155976612Y-59368554D01*
X156298423Y-59047303D01*
X156472801Y-58627354D01*
X156473198Y-58172641D01*
X156299554Y-57752388D01*
X156085397Y-57537858D01*
X156130608Y-57380233D01*
X155330000Y-56579625D01*
X154529392Y-57380233D01*
X154574644Y-57538001D01*
X154361577Y-57750697D01*
X154187199Y-58170646D01*
X154186802Y-58625359D01*
X135204965Y-58625359D01*
X134927000Y-58347394D01*
X134927000Y-56283395D01*
X135768752Y-56283395D01*
X135986150Y-56809537D01*
X136388345Y-57212435D01*
X136914108Y-57430751D01*
X137483395Y-57431248D01*
X138009537Y-57213850D01*
X138412435Y-56811655D01*
X138630751Y-56285892D01*
X138630753Y-56283395D01*
X144968752Y-56283395D01*
X145186150Y-56809537D01*
X145588345Y-57212435D01*
X146114108Y-57430751D01*
X146683395Y-57431248D01*
X147209537Y-57213850D01*
X147612435Y-56811655D01*
X147830751Y-56285892D01*
X147830832Y-56192322D01*
X153920856Y-56192322D01*
X153948638Y-56747388D01*
X154107603Y-57131163D01*
X154349787Y-57200628D01*
X155150395Y-56400020D01*
X155509605Y-56400020D01*
X156310213Y-57200628D01*
X156552397Y-57131163D01*
X156729852Y-56633762D01*
X156900446Y-57046632D01*
X157221697Y-57368443D01*
X157296178Y-57399370D01*
X157223388Y-57429446D01*
X156901577Y-57750697D01*
X156727199Y-58170646D01*
X156726802Y-58625359D01*
X156900446Y-59045612D01*
X157221697Y-59367423D01*
X157641646Y-59541801D01*
X158096359Y-59542198D01*
X158516612Y-59368554D01*
X158838423Y-59047303D01*
X159012801Y-58627354D01*
X159013198Y-58172641D01*
X158839554Y-57752388D01*
X158518303Y-57430577D01*
X158443822Y-57399650D01*
X158516612Y-57369574D01*
X158838423Y-57048323D01*
X159012801Y-56628374D01*
X159013198Y-56173661D01*
X158839554Y-55753408D01*
X158518303Y-55431597D01*
X158098354Y-55257219D01*
X157643641Y-55256822D01*
X157223388Y-55430466D01*
X156901577Y-55751717D01*
X156727199Y-56171666D01*
X156727030Y-56365680D01*
X156711362Y-56052652D01*
X156552397Y-55668877D01*
X156310213Y-55599412D01*
X155509605Y-56400020D01*
X155150395Y-56400020D01*
X154349787Y-55599412D01*
X154107603Y-55668877D01*
X153920856Y-56192322D01*
X147830832Y-56192322D01*
X147831248Y-55716605D01*
X147613850Y-55190463D01*
X147211655Y-54787565D01*
X146685892Y-54569249D01*
X146116605Y-54568752D01*
X145590463Y-54786150D01*
X145187565Y-55188345D01*
X144969249Y-55714108D01*
X144968752Y-56283395D01*
X138630753Y-56283395D01*
X138631248Y-55716605D01*
X138413850Y-55190463D01*
X138104142Y-54880213D01*
X138499392Y-54880213D01*
X138568857Y-55122397D01*
X139092302Y-55309144D01*
X139647368Y-55281362D01*
X140031143Y-55122397D01*
X140100608Y-54880213D01*
X139300000Y-54079605D01*
X138499392Y-54880213D01*
X138104142Y-54880213D01*
X138011655Y-54787565D01*
X137485892Y-54569249D01*
X136916605Y-54568752D01*
X136390463Y-54786150D01*
X135987565Y-55188345D01*
X135769249Y-55714108D01*
X135768752Y-56283395D01*
X134927000Y-56283395D01*
X134927000Y-53692302D01*
X137890856Y-53692302D01*
X137918638Y-54247368D01*
X138077603Y-54631143D01*
X138319787Y-54700608D01*
X139120395Y-53900000D01*
X139479605Y-53900000D01*
X140280213Y-54700608D01*
X140522397Y-54631143D01*
X140681318Y-54185693D01*
X140830446Y-54546612D01*
X141151697Y-54868423D01*
X141571646Y-55042801D01*
X142026359Y-55043198D01*
X142446612Y-54869554D01*
X142768423Y-54548303D01*
X142942801Y-54128354D01*
X142942802Y-54126359D01*
X143156802Y-54126359D01*
X143330446Y-54546612D01*
X143651697Y-54868423D01*
X144071646Y-55042801D01*
X144526359Y-55043198D01*
X144946612Y-54869554D01*
X145268423Y-54548303D01*
X145442801Y-54128354D01*
X145442806Y-54122022D01*
X148469151Y-54122022D01*
X148792893Y-54905538D01*
X149391829Y-55505521D01*
X150174778Y-55830630D01*
X151022542Y-55831369D01*
X151806058Y-55507627D01*
X151894031Y-55419807D01*
X154529392Y-55419807D01*
X155330000Y-56220415D01*
X156130608Y-55419807D01*
X156061143Y-55177623D01*
X155537698Y-54990876D01*
X154982632Y-55018658D01*
X154598857Y-55177623D01*
X154529392Y-55419807D01*
X151894031Y-55419807D01*
X152406041Y-54908691D01*
X152731150Y-54125742D01*
X152731889Y-53277978D01*
X152408147Y-52494462D01*
X151809211Y-51894479D01*
X151026262Y-51569370D01*
X150178498Y-51568631D01*
X149394982Y-51892373D01*
X148794999Y-52491309D01*
X148469890Y-53274258D01*
X148469151Y-54122022D01*
X145442806Y-54122022D01*
X145443198Y-53673641D01*
X145269554Y-53253388D01*
X144948303Y-52931577D01*
X144528354Y-52757199D01*
X144073641Y-52756802D01*
X143653388Y-52930446D01*
X143331577Y-53251697D01*
X143157199Y-53671646D01*
X143156802Y-54126359D01*
X142942802Y-54126359D01*
X142943198Y-53673641D01*
X142769554Y-53253388D01*
X142448303Y-52931577D01*
X142028354Y-52757199D01*
X141573641Y-52756802D01*
X141153388Y-52930446D01*
X140831577Y-53251697D01*
X140684079Y-53606912D01*
X140681362Y-53552632D01*
X140522397Y-53168857D01*
X140280213Y-53099392D01*
X139479605Y-53900000D01*
X139120395Y-53900000D01*
X138319787Y-53099392D01*
X138077603Y-53168857D01*
X137890856Y-53692302D01*
X134927000Y-53692302D01*
X134927000Y-52919787D01*
X138499392Y-52919787D01*
X139300000Y-53720395D01*
X140100608Y-52919787D01*
X140031143Y-52677603D01*
X139507698Y-52490856D01*
X138952632Y-52518638D01*
X138568857Y-52677603D01*
X138499392Y-52919787D01*
X134927000Y-52919787D01*
X134927000Y-50283395D01*
X140368752Y-50283395D01*
X140586150Y-50809537D01*
X140988345Y-51212435D01*
X141514108Y-51430751D01*
X142083395Y-51431248D01*
X142609537Y-51213850D01*
X143012435Y-50811655D01*
X143230751Y-50285892D01*
X143231248Y-49716605D01*
X143013850Y-49190463D01*
X142611655Y-48787565D01*
X142085892Y-48569249D01*
X141516605Y-48568752D01*
X140990463Y-48786150D01*
X140587565Y-49188345D01*
X140369249Y-49714108D01*
X140368752Y-50283395D01*
X134927000Y-50283395D01*
X134927000Y-43727000D01*
X164673000Y-43727000D01*
X164673000Y-53137973D01*
X164407107Y-52494462D01*
X163808171Y-51894479D01*
X163025222Y-51569370D01*
X162177458Y-51568631D01*
X161393942Y-51892373D01*
X160793959Y-52491309D01*
X160468850Y-53274258D01*
X160468111Y-54122022D01*
X160791853Y-54905538D01*
X161390789Y-55505521D01*
X162173738Y-55830630D01*
X163021502Y-55831369D01*
X163805018Y-55507627D01*
X164405001Y-54908691D01*
X164673000Y-54263278D01*
X164673000Y-82073000D01*
X141727000Y-82073000D01*
X141727000Y-72553482D01*
X149288357Y-72553482D01*
X149413767Y-72856998D01*
X149542500Y-72985956D01*
X149542500Y-74080087D01*
X149414583Y-74207781D01*
X149288643Y-74511077D01*
X149288357Y-74839482D01*
X149413767Y-75142998D01*
X149645781Y-75375417D01*
X149949077Y-75501357D01*
X150277482Y-75501643D01*
X150580998Y-75376233D01*
X150813417Y-75144219D01*
X150939357Y-74840923D01*
X150939643Y-74512518D01*
X150814233Y-74209002D01*
X150685500Y-74080044D01*
X150685500Y-72985913D01*
X150813417Y-72858219D01*
X150939357Y-72554923D01*
X150939643Y-72226518D01*
X150814233Y-71923002D01*
X150582219Y-71690583D01*
X150278923Y-71564643D01*
X149950518Y-71564357D01*
X149647002Y-71689767D01*
X149414583Y-71921781D01*
X149288643Y-72225077D01*
X149288357Y-72553482D01*
X141727000Y-72553482D01*
X141727000Y-65200000D01*
X141716994Y-65150590D01*
X141689803Y-65110197D01*
X140930905Y-64351299D01*
X153212611Y-64351299D01*
X153378538Y-64752873D01*
X153685511Y-65060382D01*
X154086795Y-65227010D01*
X154521299Y-65227389D01*
X154922873Y-65061462D01*
X155230382Y-64754489D01*
X155397010Y-64353205D01*
X155397011Y-64351299D01*
X158292611Y-64351299D01*
X158458538Y-64752873D01*
X158765511Y-65060382D01*
X159166795Y-65227010D01*
X159601299Y-65227389D01*
X160002873Y-65061462D01*
X160310382Y-64754489D01*
X160477010Y-64353205D01*
X160477389Y-63918701D01*
X160311462Y-63517127D01*
X160004489Y-63209618D01*
X159603205Y-63042990D01*
X159168701Y-63042611D01*
X158767127Y-63208538D01*
X158459618Y-63515511D01*
X158292990Y-63916795D01*
X158292611Y-64351299D01*
X155397011Y-64351299D01*
X155397389Y-63918701D01*
X155231462Y-63517127D01*
X154924489Y-63209618D01*
X154523205Y-63042990D01*
X154088701Y-63042611D01*
X153687127Y-63208538D01*
X153379618Y-63515511D01*
X153212990Y-63916795D01*
X153212611Y-64351299D01*
X140930905Y-64351299D01*
X139254803Y-62675197D01*
X139212789Y-62647334D01*
X139163246Y-62638012D01*
X139113978Y-62648700D01*
X139075197Y-62675197D01*
X138775197Y-62975197D01*
X138747334Y-63017211D01*
X138738012Y-63066754D01*
X138748700Y-63116022D01*
X138775197Y-63154803D01*
X140356377Y-64735983D01*
X139521708Y-64389398D01*
X138612281Y-64388604D01*
X137771777Y-64735894D01*
X137128154Y-65378395D01*
X136779398Y-66218292D01*
X136778604Y-67127719D01*
X137125894Y-67968223D01*
X137768395Y-68611846D01*
X138608292Y-68960602D01*
X139517719Y-68961396D01*
X140358223Y-68614106D01*
X141001846Y-67971605D01*
X141073000Y-67800247D01*
X141073000Y-70628513D01*
X141004106Y-70461777D01*
X140361605Y-69818154D01*
X139521708Y-69469398D01*
X138612281Y-69468604D01*
X137771777Y-69815894D01*
X137128154Y-70458395D01*
X136779398Y-71298292D01*
X136778604Y-72207719D01*
X137125894Y-73048223D01*
X137768395Y-73691846D01*
X138608292Y-74040602D01*
X139517719Y-74041396D01*
X140358223Y-73694106D01*
X141001846Y-73051605D01*
X141073000Y-72880247D01*
X141073000Y-80788513D01*
X141004106Y-80621777D01*
X140361605Y-79978154D01*
X139521708Y-79629398D01*
X138612281Y-79628604D01*
X137771777Y-79975894D01*
X137128154Y-80618395D01*
X136779398Y-81458292D01*
X136778604Y-82367719D01*
X137125894Y-83208223D01*
X137768395Y-83851846D01*
X138608292Y-84200602D01*
X139517719Y-84201396D01*
X140358223Y-83854106D01*
X141001846Y-83211605D01*
X141203072Y-82727000D01*
X168673000Y-82727000D01*
X168673000Y-142273000D01*
X95327000Y-142273000D01*
X95327000Y-138043958D01*
X110035647Y-138043958D01*
X110115920Y-138295259D01*
X110671279Y-138496718D01*
X111261458Y-138470315D01*
X111684080Y-138295259D01*
X111764353Y-138043958D01*
X110900000Y-137179605D01*
X110035647Y-138043958D01*
X95327000Y-138043958D01*
X95327000Y-136771279D01*
X109403282Y-136771279D01*
X109429685Y-137361458D01*
X109604741Y-137784080D01*
X109856042Y-137864353D01*
X110720395Y-137000000D01*
X111079605Y-137000000D01*
X111943958Y-137864353D01*
X112195259Y-137784080D01*
X112287250Y-137530490D01*
X112355800Y-137696395D01*
X112701784Y-138042983D01*
X113154065Y-138230786D01*
X113643787Y-138231213D01*
X114096395Y-138044200D01*
X114442983Y-137698216D01*
X114630786Y-137245935D01*
X114630787Y-137243787D01*
X114668787Y-137243787D01*
X114855800Y-137696395D01*
X115201784Y-138042983D01*
X115654065Y-138230786D01*
X116143385Y-138231213D01*
X117774358Y-139862186D01*
X117774357Y-139863482D01*
X117899767Y-140166998D01*
X118131781Y-140399417D01*
X118435077Y-140525357D01*
X118763482Y-140525643D01*
X119066998Y-140400233D01*
X119299417Y-140168219D01*
X119425357Y-139864923D01*
X119425643Y-139536518D01*
X119300233Y-139233002D01*
X119068219Y-139000583D01*
X118764923Y-138874643D01*
X118762469Y-138874641D01*
X117931786Y-138043958D01*
X128635647Y-138043958D01*
X128715920Y-138295259D01*
X129271279Y-138496718D01*
X129861458Y-138470315D01*
X130284080Y-138295259D01*
X130364353Y-138043958D01*
X129500000Y-137179605D01*
X128635647Y-138043958D01*
X117931786Y-138043958D01*
X117130789Y-137242961D01*
X117131199Y-136771279D01*
X128003282Y-136771279D01*
X128029685Y-137361458D01*
X128204741Y-137784080D01*
X128456042Y-137864353D01*
X129320395Y-137000000D01*
X129679605Y-137000000D01*
X130543958Y-137864353D01*
X130795259Y-137784080D01*
X130887250Y-137530490D01*
X130955800Y-137696395D01*
X131301784Y-138042983D01*
X131754065Y-138230786D01*
X132243787Y-138231213D01*
X132696395Y-138044200D01*
X133042983Y-137698216D01*
X133230786Y-137245935D01*
X133230787Y-137243787D01*
X133268787Y-137243787D01*
X133455800Y-137696395D01*
X133801784Y-138042983D01*
X134254065Y-138230786D01*
X134743385Y-138231213D01*
X136374358Y-139862186D01*
X136374357Y-139863482D01*
X136499767Y-140166998D01*
X136731781Y-140399417D01*
X137035077Y-140525357D01*
X137363482Y-140525643D01*
X137666998Y-140400233D01*
X137899417Y-140168219D01*
X138025357Y-139864923D01*
X138025643Y-139536518D01*
X137900233Y-139233002D01*
X137668219Y-139000583D01*
X137364923Y-138874643D01*
X137362469Y-138874641D01*
X136531786Y-138043958D01*
X147235647Y-138043958D01*
X147315920Y-138295259D01*
X147871279Y-138496718D01*
X148461458Y-138470315D01*
X148884080Y-138295259D01*
X148964353Y-138043958D01*
X148100000Y-137179605D01*
X147235647Y-138043958D01*
X136531786Y-138043958D01*
X135730789Y-137242961D01*
X135731199Y-136771279D01*
X146603282Y-136771279D01*
X146629685Y-137361458D01*
X146804741Y-137784080D01*
X147056042Y-137864353D01*
X147920395Y-137000000D01*
X148279605Y-137000000D01*
X149143958Y-137864353D01*
X149395259Y-137784080D01*
X149487250Y-137530490D01*
X149555800Y-137696395D01*
X149901784Y-138042983D01*
X150354065Y-138230786D01*
X150843787Y-138231213D01*
X151296395Y-138044200D01*
X151642983Y-137698216D01*
X151830786Y-137245935D01*
X151830787Y-137243787D01*
X151868787Y-137243787D01*
X152055800Y-137696395D01*
X152401784Y-138042983D01*
X152854065Y-138230786D01*
X153343385Y-138231213D01*
X154974358Y-139862186D01*
X154974357Y-139863482D01*
X155099767Y-140166998D01*
X155331781Y-140399417D01*
X155635077Y-140525357D01*
X155963482Y-140525643D01*
X156266998Y-140400233D01*
X156499417Y-140168219D01*
X156625357Y-139864923D01*
X156625643Y-139536518D01*
X156500233Y-139233002D01*
X156268219Y-139000583D01*
X155964923Y-138874643D01*
X155962469Y-138874641D01*
X154330789Y-137242961D01*
X154331213Y-136756213D01*
X154144200Y-136303605D01*
X153798216Y-135957017D01*
X153345935Y-135769214D01*
X152856213Y-135768787D01*
X152403605Y-135955800D01*
X152057017Y-136301784D01*
X151869214Y-136754065D01*
X151868787Y-137243787D01*
X151830787Y-137243787D01*
X151831213Y-136756213D01*
X151644200Y-136303605D01*
X151298216Y-135957017D01*
X150845935Y-135769214D01*
X150356213Y-135768787D01*
X149903605Y-135955800D01*
X149557017Y-136301784D01*
X149493843Y-136453923D01*
X149395259Y-136215920D01*
X149143958Y-136135647D01*
X148279605Y-137000000D01*
X147920395Y-137000000D01*
X147056042Y-136135647D01*
X146804741Y-136215920D01*
X146603282Y-136771279D01*
X135731199Y-136771279D01*
X135731213Y-136756213D01*
X135544200Y-136303605D01*
X135198216Y-135957017D01*
X134745935Y-135769214D01*
X134256213Y-135768787D01*
X133803605Y-135955800D01*
X133457017Y-136301784D01*
X133269214Y-136754065D01*
X133268787Y-137243787D01*
X133230787Y-137243787D01*
X133231213Y-136756213D01*
X133044200Y-136303605D01*
X132698216Y-135957017D01*
X132245935Y-135769214D01*
X131756213Y-135768787D01*
X131303605Y-135955800D01*
X130957017Y-136301784D01*
X130893843Y-136453923D01*
X130795259Y-136215920D01*
X130543958Y-136135647D01*
X129679605Y-137000000D01*
X129320395Y-137000000D01*
X128456042Y-136135647D01*
X128204741Y-136215920D01*
X128003282Y-136771279D01*
X117131199Y-136771279D01*
X117131213Y-136756213D01*
X116944200Y-136303605D01*
X116598216Y-135957017D01*
X116145935Y-135769214D01*
X115656213Y-135768787D01*
X115203605Y-135955800D01*
X114857017Y-136301784D01*
X114669214Y-136754065D01*
X114668787Y-137243787D01*
X114630787Y-137243787D01*
X114631213Y-136756213D01*
X114444200Y-136303605D01*
X114098216Y-135957017D01*
X113645935Y-135769214D01*
X113156213Y-135768787D01*
X112703605Y-135955800D01*
X112357017Y-136301784D01*
X112293843Y-136453923D01*
X112195259Y-136215920D01*
X111943958Y-136135647D01*
X111079605Y-137000000D01*
X110720395Y-137000000D01*
X109856042Y-136135647D01*
X109604741Y-136215920D01*
X109403282Y-136771279D01*
X95327000Y-136771279D01*
X95327000Y-135543958D01*
X110035647Y-135543958D01*
X110101463Y-135750000D01*
X110035647Y-135956042D01*
X110900000Y-136820395D01*
X111764353Y-135956042D01*
X111698537Y-135750000D01*
X111764353Y-135543958D01*
X110900000Y-134679605D01*
X110035647Y-135543958D01*
X95327000Y-135543958D01*
X95327000Y-134271279D01*
X109403282Y-134271279D01*
X109429685Y-134861458D01*
X109604741Y-135284080D01*
X109856042Y-135364353D01*
X110720395Y-134500000D01*
X111079605Y-134500000D01*
X111943958Y-135364353D01*
X112195259Y-135284080D01*
X112287250Y-135030490D01*
X112355800Y-135196395D01*
X112701784Y-135542983D01*
X113154065Y-135730786D01*
X113643787Y-135731213D01*
X114096395Y-135544200D01*
X114442983Y-135198216D01*
X114630786Y-134745935D01*
X114630787Y-134743787D01*
X114668787Y-134743787D01*
X114855800Y-135196395D01*
X115201784Y-135542983D01*
X115654065Y-135730786D01*
X116143787Y-135731213D01*
X116596395Y-135544200D01*
X116596637Y-135543958D01*
X128635647Y-135543958D01*
X128701463Y-135750000D01*
X128635647Y-135956042D01*
X129500000Y-136820395D01*
X130364353Y-135956042D01*
X130298537Y-135750000D01*
X130364353Y-135543958D01*
X129500000Y-134679605D01*
X128635647Y-135543958D01*
X116596637Y-135543958D01*
X116942983Y-135198216D01*
X117130786Y-134745935D01*
X117131199Y-134271279D01*
X128003282Y-134271279D01*
X128029685Y-134861458D01*
X128204741Y-135284080D01*
X128456042Y-135364353D01*
X129320395Y-134500000D01*
X128456042Y-133635647D01*
X128204741Y-133715920D01*
X128003282Y-134271279D01*
X117131199Y-134271279D01*
X117131213Y-134256213D01*
X116944200Y-133803605D01*
X116598216Y-133457017D01*
X116145935Y-133269214D01*
X115656213Y-133268787D01*
X115203605Y-133455800D01*
X114857017Y-133801784D01*
X114669214Y-134254065D01*
X114668787Y-134743787D01*
X114630787Y-134743787D01*
X114631213Y-134256213D01*
X114444200Y-133803605D01*
X114098216Y-133457017D01*
X113645935Y-133269214D01*
X113156213Y-133268787D01*
X112703605Y-133455800D01*
X112357017Y-133801784D01*
X112293843Y-133953923D01*
X112195259Y-133715920D01*
X111943958Y-133635647D01*
X111079605Y-134500000D01*
X110720395Y-134500000D01*
X109856042Y-133635647D01*
X109604741Y-133715920D01*
X109403282Y-134271279D01*
X95327000Y-134271279D01*
X95327000Y-133456042D01*
X110035647Y-133456042D01*
X110900000Y-134320395D01*
X111764353Y-133456042D01*
X111684080Y-133204741D01*
X111128721Y-133003282D01*
X110538542Y-133029685D01*
X110115920Y-133204741D01*
X110035647Y-133456042D01*
X95327000Y-133456042D01*
X95327000Y-132334000D01*
X128524000Y-132334000D01*
X128601338Y-132722806D01*
X128821580Y-133052420D01*
X128921872Y-133119433D01*
X128715920Y-133204741D01*
X128635647Y-133456042D01*
X129500000Y-134320395D01*
X130364353Y-133456042D01*
X130330480Y-133350000D01*
X131559662Y-133350000D01*
X131303605Y-133455800D01*
X130957017Y-133801784D01*
X130893843Y-133953923D01*
X130795259Y-133715920D01*
X130543958Y-133635647D01*
X129679605Y-134500000D01*
X130543958Y-135364353D01*
X130795259Y-135284080D01*
X130887250Y-135030490D01*
X130955800Y-135196395D01*
X131301784Y-135542983D01*
X131754065Y-135730786D01*
X132243787Y-135731213D01*
X132696395Y-135544200D01*
X133042983Y-135198216D01*
X133230786Y-134745935D01*
X133230787Y-134743787D01*
X133268787Y-134743787D01*
X133455800Y-135196395D01*
X133801784Y-135542983D01*
X134254065Y-135730786D01*
X134743787Y-135731213D01*
X135196395Y-135544200D01*
X135196637Y-135543958D01*
X147235647Y-135543958D01*
X147301463Y-135750000D01*
X147235647Y-135956042D01*
X148100000Y-136820395D01*
X148964353Y-135956042D01*
X148898537Y-135750000D01*
X148964353Y-135543958D01*
X148100000Y-134679605D01*
X147235647Y-135543958D01*
X135196637Y-135543958D01*
X135542983Y-135198216D01*
X135730786Y-134745935D01*
X135731199Y-134271279D01*
X146603282Y-134271279D01*
X146629685Y-134861458D01*
X146804741Y-135284080D01*
X147056042Y-135364353D01*
X147920395Y-134500000D01*
X148279605Y-134500000D01*
X149143958Y-135364353D01*
X149395259Y-135284080D01*
X149487250Y-135030490D01*
X149555800Y-135196395D01*
X149901784Y-135542983D01*
X150354065Y-135730786D01*
X150843787Y-135731213D01*
X151296395Y-135544200D01*
X151642983Y-135198216D01*
X151830786Y-134745935D01*
X151830787Y-134743787D01*
X151868787Y-134743787D01*
X152055800Y-135196395D01*
X152401784Y-135542983D01*
X152854065Y-135730786D01*
X153343787Y-135731213D01*
X153796395Y-135544200D01*
X154142983Y-135198216D01*
X154330786Y-134745935D01*
X154331213Y-134256213D01*
X154144200Y-133803605D01*
X153798216Y-133457017D01*
X153345935Y-133269214D01*
X152856213Y-133268787D01*
X152403605Y-133455800D01*
X152057017Y-133801784D01*
X151869214Y-134254065D01*
X151868787Y-134743787D01*
X151830787Y-134743787D01*
X151831213Y-134256213D01*
X151644200Y-133803605D01*
X151298216Y-133457017D01*
X150845935Y-133269214D01*
X150356213Y-133268787D01*
X149903605Y-133455800D01*
X149557017Y-133801784D01*
X149493843Y-133953923D01*
X149395259Y-133715920D01*
X149143958Y-133635647D01*
X148279605Y-134500000D01*
X147920395Y-134500000D01*
X147056042Y-133635647D01*
X146804741Y-133715920D01*
X146603282Y-134271279D01*
X135731199Y-134271279D01*
X135731213Y-134256213D01*
X135544200Y-133803605D01*
X135198216Y-133457017D01*
X135195868Y-133456042D01*
X147235647Y-133456042D01*
X148100000Y-134320395D01*
X148964353Y-133456042D01*
X148884080Y-133204741D01*
X148328721Y-133003282D01*
X147738542Y-133029685D01*
X147315920Y-133204741D01*
X147235647Y-133456042D01*
X135195868Y-133456042D01*
X134745935Y-133269214D01*
X134256213Y-133268787D01*
X133803605Y-133455800D01*
X133457017Y-133801784D01*
X133269214Y-134254065D01*
X133268787Y-134743787D01*
X133230787Y-134743787D01*
X133231213Y-134256213D01*
X133044200Y-133803605D01*
X132698216Y-133457017D01*
X132440490Y-133350000D01*
X132743371Y-133350000D01*
X132817695Y-133399662D01*
X133206502Y-133476999D01*
X133595309Y-133399662D01*
X133924922Y-133179420D01*
X134145164Y-132849807D01*
X134222501Y-132461000D01*
X134145164Y-132072193D01*
X133924922Y-131742579D01*
X133797922Y-131615580D01*
X133468309Y-131395338D01*
X133403802Y-131382507D01*
X133079502Y-131318000D01*
X129540000Y-131318000D01*
X129151194Y-131395338D01*
X128821580Y-131615580D01*
X128601338Y-131945194D01*
X128524000Y-132334000D01*
X95327000Y-132334000D01*
X95327000Y-115352482D01*
X104838357Y-115352482D01*
X104963767Y-115655998D01*
X104965500Y-115657734D01*
X104965500Y-117348000D01*
X105018670Y-117615305D01*
X105170086Y-117841914D01*
X108140358Y-120812186D01*
X108140357Y-120813482D01*
X108265767Y-121116998D01*
X108497781Y-121349417D01*
X108801077Y-121475357D01*
X109129482Y-121475643D01*
X109432998Y-121350233D01*
X109665417Y-121118219D01*
X109791357Y-120814923D01*
X109791643Y-120486518D01*
X109666233Y-120183002D01*
X109434219Y-119950583D01*
X109130923Y-119824643D01*
X109128469Y-119824641D01*
X106362500Y-117058672D01*
X106362500Y-115658134D01*
X106363417Y-115657219D01*
X106489357Y-115353923D01*
X106489643Y-115025518D01*
X106364233Y-114722002D01*
X106132219Y-114489583D01*
X105828923Y-114363643D01*
X105500518Y-114363357D01*
X105197002Y-114488767D01*
X104964583Y-114720781D01*
X104838643Y-115024077D01*
X104838357Y-115352482D01*
X95327000Y-115352482D01*
X95327000Y-113828482D01*
X114363357Y-113828482D01*
X114488767Y-114131998D01*
X114490500Y-114133734D01*
X114490500Y-117475000D01*
X114543670Y-117742305D01*
X114695086Y-117968914D01*
X117538358Y-120812186D01*
X117538357Y-120813482D01*
X117663767Y-121116998D01*
X117895781Y-121349417D01*
X118199077Y-121475357D01*
X118527482Y-121475643D01*
X118830998Y-121350233D01*
X119023566Y-121158000D01*
X139446001Y-121158000D01*
X139523338Y-121546807D01*
X139743580Y-121876420D01*
X140073193Y-122096662D01*
X140462000Y-122173999D01*
X140850807Y-122096662D01*
X141180420Y-121876420D01*
X142279841Y-120777000D01*
X144780000Y-120777000D01*
X145168806Y-120699662D01*
X145498420Y-120479420D01*
X145718662Y-120149806D01*
X145796000Y-119761000D01*
X145718662Y-119372194D01*
X145498420Y-119042580D01*
X145168806Y-118822338D01*
X144780000Y-118745000D01*
X141859000Y-118745000D01*
X141470194Y-118822338D01*
X141384699Y-118879464D01*
X141140579Y-119042580D01*
X139743580Y-120439580D01*
X139523338Y-120769193D01*
X139446001Y-121158000D01*
X119023566Y-121158000D01*
X119063417Y-121118219D01*
X119189357Y-120814923D01*
X119189643Y-120486518D01*
X119064233Y-120183002D01*
X118832219Y-119950583D01*
X118528923Y-119824643D01*
X118526469Y-119824641D01*
X115887500Y-117185672D01*
X115887500Y-116459000D01*
X128287936Y-116459000D01*
X128287936Y-118491000D01*
X128314503Y-118632190D01*
X128397946Y-118761865D01*
X128525266Y-118848859D01*
X128676400Y-118879464D01*
X130403600Y-118879464D01*
X130544790Y-118852897D01*
X130674465Y-118769454D01*
X130761459Y-118642134D01*
X130792064Y-118491000D01*
X130792064Y-118393817D01*
X131177964Y-118825732D01*
X131705209Y-119079709D01*
X131720974Y-119082358D01*
X131953000Y-118961217D01*
X131953000Y-117602000D01*
X131933000Y-117602000D01*
X131933000Y-117348000D01*
X131953000Y-117348000D01*
X131953000Y-115988783D01*
X132207000Y-115988783D01*
X132207000Y-117348000D01*
X132227000Y-117348000D01*
X132227000Y-117602000D01*
X132207000Y-117602000D01*
X132207000Y-118961217D01*
X132439026Y-119082358D01*
X132454791Y-119079709D01*
X132982036Y-118825732D01*
X133371954Y-118389320D01*
X133467296Y-118116757D01*
X133470140Y-118131057D01*
X133739935Y-118534834D01*
X134143712Y-118804629D01*
X134620000Y-118899369D01*
X135096288Y-118804629D01*
X135500065Y-118534834D01*
X135769860Y-118131057D01*
X135864600Y-117654769D01*
X135864600Y-117295231D01*
X135769860Y-116818943D01*
X135529354Y-116459000D01*
X146702936Y-116459000D01*
X146702936Y-118491000D01*
X146729503Y-118632190D01*
X146812946Y-118761865D01*
X146940266Y-118848859D01*
X147091400Y-118879464D01*
X148818600Y-118879464D01*
X148959790Y-118852897D01*
X149089465Y-118769454D01*
X149176459Y-118642134D01*
X149207064Y-118491000D01*
X149207064Y-118393817D01*
X149592964Y-118825732D01*
X150120209Y-119079709D01*
X150135974Y-119082358D01*
X150368000Y-118961217D01*
X150368000Y-117602000D01*
X150348000Y-117602000D01*
X150348000Y-117348000D01*
X150368000Y-117348000D01*
X150368000Y-115988783D01*
X150622000Y-115988783D01*
X150622000Y-117348000D01*
X150642000Y-117348000D01*
X150642000Y-117602000D01*
X150622000Y-117602000D01*
X150622000Y-118961217D01*
X150854026Y-119082358D01*
X150869791Y-119079709D01*
X151397036Y-118825732D01*
X151786954Y-118389320D01*
X151882296Y-118116757D01*
X151885140Y-118131057D01*
X152154935Y-118534834D01*
X152558712Y-118804629D01*
X153035000Y-118899369D01*
X153511288Y-118804629D01*
X153915065Y-118534834D01*
X154184860Y-118131057D01*
X154279600Y-117654769D01*
X154279600Y-117295231D01*
X154184860Y-116818943D01*
X153915065Y-116415166D01*
X153511288Y-116145371D01*
X153035000Y-116050631D01*
X152558712Y-116145371D01*
X152154935Y-116415166D01*
X151885140Y-116818943D01*
X151882296Y-116833243D01*
X151786954Y-116560680D01*
X151397036Y-116124268D01*
X150869791Y-115870291D01*
X150854026Y-115867642D01*
X150622000Y-115988783D01*
X150368000Y-115988783D01*
X150135974Y-115867642D01*
X150120209Y-115870291D01*
X149592964Y-116124268D01*
X149207064Y-116556183D01*
X149207064Y-116459000D01*
X149180497Y-116317810D01*
X149097054Y-116188135D01*
X148969734Y-116101141D01*
X148818600Y-116070536D01*
X147091400Y-116070536D01*
X146950210Y-116097103D01*
X146820535Y-116180546D01*
X146733541Y-116307866D01*
X146702936Y-116459000D01*
X135529354Y-116459000D01*
X135500065Y-116415166D01*
X135096288Y-116145371D01*
X134620000Y-116050631D01*
X134143712Y-116145371D01*
X133739935Y-116415166D01*
X133470140Y-116818943D01*
X133467296Y-116833243D01*
X133371954Y-116560680D01*
X132982036Y-116124268D01*
X132454791Y-115870291D01*
X132439026Y-115867642D01*
X132207000Y-115988783D01*
X131953000Y-115988783D01*
X131720974Y-115867642D01*
X131705209Y-115870291D01*
X131177964Y-116124268D01*
X130792064Y-116556183D01*
X130792064Y-116459000D01*
X130765497Y-116317810D01*
X130682054Y-116188135D01*
X130554734Y-116101141D01*
X130403600Y-116070536D01*
X128676400Y-116070536D01*
X128535210Y-116097103D01*
X128405535Y-116180546D01*
X128318541Y-116307866D01*
X128287936Y-116459000D01*
X115887500Y-116459000D01*
X115887500Y-114134134D01*
X115888417Y-114133219D01*
X115901298Y-114102196D01*
X124202409Y-114102196D01*
X124287467Y-114357539D01*
X124856965Y-114565516D01*
X125462700Y-114539723D01*
X125902533Y-114357539D01*
X125987591Y-114102196D01*
X125095000Y-113209605D01*
X124202409Y-114102196D01*
X115901298Y-114102196D01*
X116014357Y-113829923D01*
X116014643Y-113501518D01*
X115889233Y-113198002D01*
X115657219Y-112965583D01*
X115353923Y-112839643D01*
X115025518Y-112839357D01*
X114722002Y-112964767D01*
X114489583Y-113196781D01*
X114363643Y-113500077D01*
X114363357Y-113828482D01*
X95327000Y-113828482D01*
X95327000Y-112791965D01*
X123559484Y-112791965D01*
X123585277Y-113397700D01*
X123767461Y-113837533D01*
X124022804Y-113922591D01*
X124915395Y-113030000D01*
X125274605Y-113030000D01*
X126167196Y-113922591D01*
X126422539Y-113837533D01*
X126503229Y-113616583D01*
X126557718Y-113748458D01*
X126914663Y-114106026D01*
X127381273Y-114299779D01*
X127886510Y-114300220D01*
X128353458Y-114107282D01*
X128711026Y-113750337D01*
X128897536Y-113301170D01*
X128897536Y-113919000D01*
X128924103Y-114060190D01*
X129007546Y-114189865D01*
X129134866Y-114276859D01*
X129286000Y-114307464D01*
X131064000Y-114307464D01*
X131205190Y-114280897D01*
X131334865Y-114197454D01*
X131421859Y-114070134D01*
X131452464Y-113919000D01*
X131452464Y-113281510D01*
X138429780Y-113281510D01*
X138622718Y-113748458D01*
X138979663Y-114106026D01*
X139446273Y-114299779D01*
X139951510Y-114300220D01*
X140418458Y-114107282D01*
X140423552Y-114102196D01*
X141347409Y-114102196D01*
X141432467Y-114357539D01*
X142001965Y-114565516D01*
X142607700Y-114539723D01*
X143047533Y-114357539D01*
X143132591Y-114102196D01*
X142240000Y-113209605D01*
X141347409Y-114102196D01*
X140423552Y-114102196D01*
X140776026Y-113750337D01*
X140826247Y-113629392D01*
X140912461Y-113837533D01*
X141167804Y-113922591D01*
X142060395Y-113030000D01*
X142419605Y-113030000D01*
X143312196Y-113922591D01*
X143502536Y-113859186D01*
X143502536Y-113919000D01*
X143529103Y-114060190D01*
X143612546Y-114189865D01*
X143739866Y-114276859D01*
X143891000Y-114307464D01*
X145669000Y-114307464D01*
X145810190Y-114280897D01*
X145939865Y-114197454D01*
X146026859Y-114070134D01*
X146057464Y-113919000D01*
X146057464Y-112141000D01*
X146030897Y-111999810D01*
X145947454Y-111870135D01*
X145820134Y-111783141D01*
X145669000Y-111752536D01*
X143891000Y-111752536D01*
X143749810Y-111779103D01*
X143620135Y-111862546D01*
X143533141Y-111989866D01*
X143502536Y-112141000D01*
X143502536Y-112200814D01*
X143312196Y-112137409D01*
X142419605Y-113030000D01*
X142060395Y-113030000D01*
X141167804Y-112137409D01*
X140912461Y-112222467D01*
X140831771Y-112443417D01*
X140777282Y-112311542D01*
X140424161Y-111957804D01*
X141347409Y-111957804D01*
X142240000Y-112850395D01*
X143132591Y-111957804D01*
X143047533Y-111702461D01*
X142478035Y-111494484D01*
X141872300Y-111520277D01*
X141432467Y-111702461D01*
X141347409Y-111957804D01*
X140424161Y-111957804D01*
X140420337Y-111953974D01*
X139953727Y-111760221D01*
X139448490Y-111759780D01*
X138981542Y-111952718D01*
X138623974Y-112309663D01*
X138430221Y-112776273D01*
X138429780Y-113281510D01*
X131452464Y-113281510D01*
X131452464Y-112141000D01*
X131425897Y-111999810D01*
X131342454Y-111870135D01*
X131215134Y-111783141D01*
X131064000Y-111752536D01*
X129286000Y-111752536D01*
X129144810Y-111779103D01*
X129015135Y-111862546D01*
X128928141Y-111989866D01*
X128897536Y-112141000D01*
X128897536Y-112759893D01*
X128712282Y-112311542D01*
X128355337Y-111953974D01*
X127888727Y-111760221D01*
X127383490Y-111759780D01*
X126916542Y-111952718D01*
X126558974Y-112309663D01*
X126508753Y-112430608D01*
X126422539Y-112222467D01*
X126167196Y-112137409D01*
X125274605Y-113030000D01*
X124915395Y-113030000D01*
X124022804Y-112137409D01*
X123767461Y-112222467D01*
X123559484Y-112791965D01*
X95327000Y-112791965D01*
X95327000Y-111957804D01*
X124202409Y-111957804D01*
X125095000Y-112850395D01*
X125987591Y-111957804D01*
X125902533Y-111702461D01*
X125333035Y-111494484D01*
X124727300Y-111520277D01*
X124287467Y-111702461D01*
X124202409Y-111957804D01*
X95327000Y-111957804D01*
X95327000Y-92075000D01*
X122801536Y-92075000D01*
X122801536Y-100965000D01*
X122828103Y-101106190D01*
X122911546Y-101235865D01*
X123038866Y-101322859D01*
X123190000Y-101353464D01*
X132080000Y-101353464D01*
X132221190Y-101326897D01*
X132350865Y-101243454D01*
X132437859Y-101116134D01*
X132468464Y-100965000D01*
X132468464Y-100203000D01*
X134874000Y-100203000D01*
X134874000Y-105410000D01*
X134951338Y-105798806D01*
X135171580Y-106128420D01*
X135501194Y-106348662D01*
X135890000Y-106426000D01*
X136278806Y-106348662D01*
X136608420Y-106128420D01*
X136828662Y-105798806D01*
X136906000Y-105410000D01*
X136906000Y-100203000D01*
X136828662Y-99814194D01*
X136608420Y-99484580D01*
X136278806Y-99264338D01*
X135890000Y-99187000D01*
X135501194Y-99264338D01*
X135171580Y-99484580D01*
X134951338Y-99814194D01*
X134874000Y-100203000D01*
X132468464Y-100203000D01*
X132468464Y-96805750D01*
X137160000Y-96805750D01*
X137160000Y-101091309D01*
X137256673Y-101324698D01*
X137435301Y-101503327D01*
X137668690Y-101600000D01*
X141954250Y-101600000D01*
X142113000Y-101441250D01*
X142113000Y-96647000D01*
X142367000Y-96647000D01*
X142367000Y-101441250D01*
X142525750Y-101600000D01*
X146811310Y-101600000D01*
X147044699Y-101503327D01*
X147223327Y-101324698D01*
X147320000Y-101091309D01*
X147320000Y-100366482D01*
X155384357Y-100366482D01*
X155509767Y-100669998D01*
X155741781Y-100902417D01*
X156045077Y-101028357D01*
X156227292Y-101028516D01*
X157543514Y-102344738D01*
X157543357Y-102525482D01*
X157668767Y-102828998D01*
X157900781Y-103061417D01*
X158204077Y-103187357D01*
X158532482Y-103187643D01*
X158835998Y-103062233D01*
X159068417Y-102830219D01*
X159194357Y-102526923D01*
X159194643Y-102198518D01*
X159069233Y-101895002D01*
X158837219Y-101662583D01*
X158533923Y-101536643D01*
X158351708Y-101536484D01*
X157035486Y-100220262D01*
X157035643Y-100039518D01*
X156910233Y-99736002D01*
X156678219Y-99503583D01*
X156374923Y-99377643D01*
X156046518Y-99377357D01*
X155743002Y-99502767D01*
X155510583Y-99734781D01*
X155384643Y-100038077D01*
X155384357Y-100366482D01*
X147320000Y-100366482D01*
X147320000Y-96805750D01*
X147161250Y-96647000D01*
X142367000Y-96647000D01*
X142113000Y-96647000D01*
X137318750Y-96647000D01*
X137160000Y-96805750D01*
X132468464Y-96805750D01*
X132468464Y-92075000D01*
X132444698Y-91948691D01*
X137160000Y-91948691D01*
X137160000Y-96234250D01*
X137318750Y-96393000D01*
X142113000Y-96393000D01*
X142113000Y-91598750D01*
X142367000Y-91598750D01*
X142367000Y-96393000D01*
X147161250Y-96393000D01*
X147320000Y-96234250D01*
X147320000Y-91948691D01*
X147223327Y-91715302D01*
X147044699Y-91536673D01*
X146811310Y-91440000D01*
X142525750Y-91440000D01*
X142367000Y-91598750D01*
X142113000Y-91598750D01*
X141954250Y-91440000D01*
X137668690Y-91440000D01*
X137435301Y-91536673D01*
X137256673Y-91715302D01*
X137160000Y-91948691D01*
X132444698Y-91948691D01*
X132441897Y-91933810D01*
X132358454Y-91804135D01*
X132231134Y-91717141D01*
X132080000Y-91686536D01*
X123190000Y-91686536D01*
X123048810Y-91713103D01*
X122919135Y-91796546D01*
X122832141Y-91923866D01*
X122801536Y-92075000D01*
X95327000Y-92075000D01*
X95327000Y-88478784D01*
X132905313Y-88478784D01*
X133069311Y-88875689D01*
X133372714Y-89179622D01*
X133769332Y-89344313D01*
X134198784Y-89344687D01*
X134595689Y-89180689D01*
X134899622Y-88877286D01*
X135064313Y-88480668D01*
X135064687Y-88051216D01*
X134900689Y-87654311D01*
X134694458Y-87447719D01*
X136778604Y-87447719D01*
X137125894Y-88288223D01*
X137768395Y-88931846D01*
X138608292Y-89280602D01*
X139517719Y-89281396D01*
X140358223Y-88934106D01*
X141001846Y-88291605D01*
X141350602Y-87451708D01*
X141351396Y-86542281D01*
X141004106Y-85701777D01*
X140361605Y-85058154D01*
X139521708Y-84709398D01*
X138612281Y-84708604D01*
X137771777Y-85055894D01*
X137128154Y-85698395D01*
X136779398Y-86538292D01*
X136778604Y-87447719D01*
X134694458Y-87447719D01*
X134597286Y-87350378D01*
X134200668Y-87185687D01*
X133771216Y-87185313D01*
X133374311Y-87349311D01*
X133070378Y-87652714D01*
X132905687Y-88049332D01*
X132905313Y-88478784D01*
X95327000Y-88478784D01*
X95327000Y-87219096D01*
X103643234Y-87219096D01*
X103815142Y-87635146D01*
X104133180Y-87953739D01*
X104548929Y-88126373D01*
X104999096Y-88126766D01*
X105415146Y-87954858D01*
X105733739Y-87636820D01*
X105906373Y-87221071D01*
X105906374Y-87219096D01*
X114438234Y-87219096D01*
X114610142Y-87635146D01*
X114928180Y-87953739D01*
X115343929Y-88126373D01*
X115794096Y-88126766D01*
X116210146Y-87954858D01*
X116528739Y-87636820D01*
X116701373Y-87221071D01*
X116701374Y-87219096D01*
X125233234Y-87219096D01*
X125405142Y-87635146D01*
X125723180Y-87953739D01*
X126138929Y-88126373D01*
X126589096Y-88126766D01*
X127005146Y-87954858D01*
X127323739Y-87636820D01*
X127496373Y-87221071D01*
X127496766Y-86770904D01*
X127324858Y-86354854D01*
X127006820Y-86036261D01*
X126591071Y-85863627D01*
X126140904Y-85863234D01*
X125724854Y-86035142D01*
X125406261Y-86353180D01*
X125233627Y-86768929D01*
X125233234Y-87219096D01*
X116701374Y-87219096D01*
X116701766Y-86770904D01*
X116529858Y-86354854D01*
X116211820Y-86036261D01*
X115796071Y-85863627D01*
X115345904Y-85863234D01*
X114929854Y-86035142D01*
X114611261Y-86353180D01*
X114438627Y-86768929D01*
X114438234Y-87219096D01*
X105906374Y-87219096D01*
X105906766Y-86770904D01*
X105734858Y-86354854D01*
X105416820Y-86036261D01*
X105001071Y-85863627D01*
X104550904Y-85863234D01*
X104134854Y-86035142D01*
X103816261Y-86353180D01*
X103643627Y-86768929D01*
X103643234Y-87219096D01*
X95327000Y-87219096D01*
X95327000Y-82886930D01*
X103982675Y-82886930D01*
X104050735Y-83127931D01*
X104570034Y-83312767D01*
X105120538Y-83284805D01*
X105499265Y-83127931D01*
X105567325Y-82886930D01*
X114777675Y-82886930D01*
X114845735Y-83127931D01*
X115365034Y-83312767D01*
X115915538Y-83284805D01*
X116294265Y-83127931D01*
X116362325Y-82886930D01*
X125572675Y-82886930D01*
X125640735Y-83127931D01*
X126160034Y-83312767D01*
X126710538Y-83284805D01*
X127089265Y-83127931D01*
X127157325Y-82886930D01*
X126365000Y-82094605D01*
X125572675Y-82886930D01*
X116362325Y-82886930D01*
X115570000Y-82094605D01*
X114777675Y-82886930D01*
X105567325Y-82886930D01*
X104775000Y-82094605D01*
X103982675Y-82886930D01*
X95327000Y-82886930D01*
X95327000Y-81710034D01*
X103377233Y-81710034D01*
X103405195Y-82260538D01*
X103562069Y-82639265D01*
X103803070Y-82707325D01*
X104595395Y-81915000D01*
X104954605Y-81915000D01*
X105746930Y-82707325D01*
X105987931Y-82639265D01*
X106172767Y-82119966D01*
X106151946Y-81710034D01*
X114172233Y-81710034D01*
X114200195Y-82260538D01*
X114357069Y-82639265D01*
X114598070Y-82707325D01*
X115390395Y-81915000D01*
X115749605Y-81915000D01*
X116541930Y-82707325D01*
X116782931Y-82639265D01*
X116967767Y-82119966D01*
X116946946Y-81710034D01*
X124967233Y-81710034D01*
X124995195Y-82260538D01*
X125152069Y-82639265D01*
X125393070Y-82707325D01*
X126185395Y-81915000D01*
X126544605Y-81915000D01*
X127336930Y-82707325D01*
X127577931Y-82639265D01*
X127762767Y-82119966D01*
X127734805Y-81569462D01*
X127577931Y-81190735D01*
X127336930Y-81122675D01*
X126544605Y-81915000D01*
X126185395Y-81915000D01*
X125393070Y-81122675D01*
X125152069Y-81190735D01*
X124967233Y-81710034D01*
X116946946Y-81710034D01*
X116939805Y-81569462D01*
X116782931Y-81190735D01*
X116541930Y-81122675D01*
X115749605Y-81915000D01*
X115390395Y-81915000D01*
X114598070Y-81122675D01*
X114357069Y-81190735D01*
X114172233Y-81710034D01*
X106151946Y-81710034D01*
X106144805Y-81569462D01*
X105987931Y-81190735D01*
X105746930Y-81122675D01*
X104954605Y-81915000D01*
X104595395Y-81915000D01*
X103803070Y-81122675D01*
X103562069Y-81190735D01*
X103377233Y-81710034D01*
X95327000Y-81710034D01*
X95327000Y-80943070D01*
X103982675Y-80943070D01*
X104775000Y-81735395D01*
X105567325Y-80943070D01*
X114777675Y-80943070D01*
X115570000Y-81735395D01*
X116362325Y-80943070D01*
X125572675Y-80943070D01*
X126365000Y-81735395D01*
X127157325Y-80943070D01*
X127089265Y-80702069D01*
X126569966Y-80517233D01*
X126019462Y-80545195D01*
X125640735Y-80702069D01*
X125572675Y-80943070D01*
X116362325Y-80943070D01*
X116294265Y-80702069D01*
X115774966Y-80517233D01*
X115224462Y-80545195D01*
X114845735Y-80702069D01*
X114777675Y-80943070D01*
X105567325Y-80943070D01*
X105499265Y-80702069D01*
X104979966Y-80517233D01*
X104429462Y-80545195D01*
X104050735Y-80702069D01*
X103982675Y-80943070D01*
X95327000Y-80943070D01*
X95327000Y-79946500D01*
X132898036Y-79946500D01*
X132898036Y-81343500D01*
X132924603Y-81484690D01*
X133008046Y-81614365D01*
X133135366Y-81701359D01*
X133286500Y-81731964D01*
X134683500Y-81731964D01*
X134824690Y-81705397D01*
X134954365Y-81621954D01*
X135041359Y-81494634D01*
X135071964Y-81343500D01*
X135071964Y-79946500D01*
X135045397Y-79805310D01*
X134961954Y-79675635D01*
X134834634Y-79588641D01*
X134683500Y-79558036D01*
X133286500Y-79558036D01*
X133145310Y-79584603D01*
X133015635Y-79668046D01*
X132928641Y-79795366D01*
X132898036Y-79946500D01*
X95327000Y-79946500D01*
X95327000Y-77683784D01*
X132905313Y-77683784D01*
X133069311Y-78080689D01*
X133372714Y-78384622D01*
X133769332Y-78549313D01*
X134198784Y-78549687D01*
X134595689Y-78385689D01*
X134899622Y-78082286D01*
X135064313Y-77685668D01*
X135064687Y-77256216D01*
X134900689Y-76859311D01*
X134597286Y-76555378D01*
X134200668Y-76390687D01*
X133771216Y-76390313D01*
X133374311Y-76554311D01*
X133070378Y-76857714D01*
X132905687Y-77254332D01*
X132905313Y-77683784D01*
X95327000Y-77683784D01*
X95327000Y-77171930D01*
X103982675Y-77171930D01*
X104050735Y-77412931D01*
X104570034Y-77597767D01*
X105120538Y-77569805D01*
X105499265Y-77412931D01*
X105567325Y-77171930D01*
X114777675Y-77171930D01*
X114845735Y-77412931D01*
X115365034Y-77597767D01*
X115915538Y-77569805D01*
X116294265Y-77412931D01*
X116362325Y-77171930D01*
X125572675Y-77171930D01*
X125640735Y-77412931D01*
X126160034Y-77597767D01*
X126710538Y-77569805D01*
X127089265Y-77412931D01*
X127157325Y-77171930D01*
X126365000Y-76379605D01*
X125572675Y-77171930D01*
X116362325Y-77171930D01*
X115570000Y-76379605D01*
X114777675Y-77171930D01*
X105567325Y-77171930D01*
X104775000Y-76379605D01*
X103982675Y-77171930D01*
X95327000Y-77171930D01*
X95327000Y-75995034D01*
X103377233Y-75995034D01*
X103405195Y-76545538D01*
X103562069Y-76924265D01*
X103803070Y-76992325D01*
X104595395Y-76200000D01*
X104954605Y-76200000D01*
X105746930Y-76992325D01*
X105987931Y-76924265D01*
X106172767Y-76404966D01*
X106151946Y-75995034D01*
X114172233Y-75995034D01*
X114200195Y-76545538D01*
X114357069Y-76924265D01*
X114598070Y-76992325D01*
X115390395Y-76200000D01*
X115749605Y-76200000D01*
X116541930Y-76992325D01*
X116782931Y-76924265D01*
X116967767Y-76404966D01*
X116946946Y-75995034D01*
X124967233Y-75995034D01*
X124995195Y-76545538D01*
X125152069Y-76924265D01*
X125393070Y-76992325D01*
X126185395Y-76200000D01*
X126544605Y-76200000D01*
X127336930Y-76992325D01*
X127577931Y-76924265D01*
X127762767Y-76404966D01*
X127734805Y-75854462D01*
X127577931Y-75475735D01*
X127336930Y-75407675D01*
X126544605Y-76200000D01*
X126185395Y-76200000D01*
X125393070Y-75407675D01*
X125152069Y-75475735D01*
X124967233Y-75995034D01*
X116946946Y-75995034D01*
X116939805Y-75854462D01*
X116782931Y-75475735D01*
X116541930Y-75407675D01*
X115749605Y-76200000D01*
X115390395Y-76200000D01*
X114598070Y-75407675D01*
X114357069Y-75475735D01*
X114172233Y-75995034D01*
X106151946Y-75995034D01*
X106144805Y-75854462D01*
X105987931Y-75475735D01*
X105746930Y-75407675D01*
X104954605Y-76200000D01*
X104595395Y-76200000D01*
X103803070Y-75407675D01*
X103562069Y-75475735D01*
X103377233Y-75995034D01*
X95327000Y-75995034D01*
X95327000Y-75228070D01*
X103982675Y-75228070D01*
X104775000Y-76020395D01*
X105567325Y-75228070D01*
X114777675Y-75228070D01*
X115570000Y-76020395D01*
X116362325Y-75228070D01*
X125572675Y-75228070D01*
X126365000Y-76020395D01*
X127157325Y-75228070D01*
X127089265Y-74987069D01*
X126569966Y-74802233D01*
X126019462Y-74830195D01*
X125640735Y-74987069D01*
X125572675Y-75228070D01*
X116362325Y-75228070D01*
X116294265Y-74987069D01*
X115774966Y-74802233D01*
X115224462Y-74830195D01*
X114845735Y-74987069D01*
X114777675Y-75228070D01*
X105567325Y-75228070D01*
X105499265Y-74987069D01*
X104979966Y-74802233D01*
X104429462Y-74830195D01*
X104050735Y-74987069D01*
X103982675Y-75228070D01*
X95327000Y-75228070D01*
X95327000Y-71344096D01*
X103643234Y-71344096D01*
X103815142Y-71760146D01*
X104133180Y-72078739D01*
X104548929Y-72251373D01*
X104999096Y-72251766D01*
X105415146Y-72079858D01*
X105733739Y-71761820D01*
X105906373Y-71346071D01*
X105906374Y-71344096D01*
X114438234Y-71344096D01*
X114610142Y-71760146D01*
X114928180Y-72078739D01*
X115343929Y-72251373D01*
X115794096Y-72251766D01*
X116210146Y-72079858D01*
X116528739Y-71761820D01*
X116701373Y-71346071D01*
X116701374Y-71344096D01*
X125233234Y-71344096D01*
X125405142Y-71760146D01*
X125723180Y-72078739D01*
X126138929Y-72251373D01*
X126589096Y-72251766D01*
X127005146Y-72079858D01*
X127323739Y-71761820D01*
X127496373Y-71346071D01*
X127496766Y-70895904D01*
X127324858Y-70479854D01*
X127006820Y-70161261D01*
X126591071Y-69988627D01*
X126140904Y-69988234D01*
X125724854Y-70160142D01*
X125406261Y-70478180D01*
X125233627Y-70893929D01*
X125233234Y-71344096D01*
X116701374Y-71344096D01*
X116701766Y-70895904D01*
X116529858Y-70479854D01*
X116211820Y-70161261D01*
X115796071Y-69988627D01*
X115345904Y-69988234D01*
X114929854Y-70160142D01*
X114611261Y-70478180D01*
X114438627Y-70893929D01*
X114438234Y-71344096D01*
X105906374Y-71344096D01*
X105906766Y-70895904D01*
X105734858Y-70479854D01*
X105416820Y-70161261D01*
X105001071Y-69988627D01*
X104550904Y-69988234D01*
X104134854Y-70160142D01*
X103816261Y-70478180D01*
X103643627Y-70893929D01*
X103643234Y-71344096D01*
X95327000Y-71344096D01*
X95327000Y-69151500D01*
X132898036Y-69151500D01*
X132898036Y-70548500D01*
X132924603Y-70689690D01*
X133008046Y-70819365D01*
X133135366Y-70906359D01*
X133286500Y-70936964D01*
X134683500Y-70936964D01*
X134824690Y-70910397D01*
X134954365Y-70826954D01*
X135041359Y-70699634D01*
X135071964Y-70548500D01*
X135071964Y-69151500D01*
X135045397Y-69010310D01*
X134961954Y-68880635D01*
X134834634Y-68793641D01*
X134683500Y-68763036D01*
X133286500Y-68763036D01*
X133145310Y-68789603D01*
X133015635Y-68873046D01*
X132928641Y-69000366D01*
X132898036Y-69151500D01*
X95327000Y-69151500D01*
X95327000Y-64933482D01*
X101663357Y-64933482D01*
X101788767Y-65236998D01*
X102020781Y-65469417D01*
X102324077Y-65595357D01*
X102652482Y-65595643D01*
X102955998Y-65470233D01*
X102957734Y-65468500D01*
X115562536Y-65468500D01*
X115562536Y-65633600D01*
X115589103Y-65774790D01*
X115672546Y-65904465D01*
X115799866Y-65991459D01*
X115951000Y-66022064D01*
X117983000Y-66022064D01*
X118124190Y-65995497D01*
X118253865Y-65912054D01*
X118340859Y-65784734D01*
X118371464Y-65633600D01*
X118371464Y-63906400D01*
X118348762Y-63785750D01*
X132334000Y-63785750D01*
X132334000Y-64642309D01*
X132430673Y-64875698D01*
X132609301Y-65054327D01*
X132842690Y-65151000D01*
X132912850Y-65151000D01*
X132694340Y-65478022D01*
X132588000Y-66012631D01*
X132588000Y-66067369D01*
X132694340Y-66601978D01*
X132997172Y-67055197D01*
X133450391Y-67358029D01*
X133985000Y-67464369D01*
X134519609Y-67358029D01*
X134972828Y-67055197D01*
X135275660Y-66601978D01*
X135382000Y-66067369D01*
X135382000Y-66012631D01*
X135275660Y-65478022D01*
X135057150Y-65151000D01*
X135127310Y-65151000D01*
X135360699Y-65054327D01*
X135539327Y-64875698D01*
X135636000Y-64642309D01*
X135636000Y-63785750D01*
X135477250Y-63627000D01*
X134112000Y-63627000D01*
X134112000Y-63647000D01*
X133858000Y-63647000D01*
X133858000Y-63627000D01*
X132492750Y-63627000D01*
X132334000Y-63785750D01*
X118348762Y-63785750D01*
X118344897Y-63765210D01*
X118261454Y-63635535D01*
X118134134Y-63548541D01*
X117983000Y-63517936D01*
X115951000Y-63517936D01*
X115809810Y-63544503D01*
X115680135Y-63627946D01*
X115593141Y-63755266D01*
X115562536Y-63906400D01*
X115562536Y-64071500D01*
X102958134Y-64071500D01*
X102957219Y-64070583D01*
X102653923Y-63944643D01*
X102325518Y-63944357D01*
X102022002Y-64069767D01*
X101789583Y-64301781D01*
X101663643Y-64605077D01*
X101663357Y-64933482D01*
X95327000Y-64933482D01*
X95327000Y-60822513D01*
X99668674Y-60822513D01*
X99954436Y-61514109D01*
X100483108Y-62043704D01*
X101174204Y-62330673D01*
X101922513Y-62331326D01*
X102614109Y-62045564D01*
X103143704Y-61516892D01*
X103296674Y-61148500D01*
X111503369Y-61148500D01*
X111654436Y-61514109D01*
X112183108Y-62043704D01*
X112874204Y-62330673D01*
X113338094Y-62331078D01*
X113248672Y-62420500D01*
X101307134Y-62420500D01*
X101306219Y-62419583D01*
X101002923Y-62293643D01*
X100674518Y-62293357D01*
X100371002Y-62418767D01*
X100138583Y-62650781D01*
X100012643Y-62954077D01*
X100012357Y-63282482D01*
X100137767Y-63585998D01*
X100369781Y-63818417D01*
X100673077Y-63944357D01*
X101001482Y-63944643D01*
X101304998Y-63819233D01*
X101306734Y-63817500D01*
X113538000Y-63817500D01*
X113805305Y-63764330D01*
X114031914Y-63612914D01*
X115574365Y-62070463D01*
X115542631Y-62230000D01*
X115637371Y-62706288D01*
X115907166Y-63110065D01*
X116310943Y-63379860D01*
X116787231Y-63474600D01*
X117146769Y-63474600D01*
X117623057Y-63379860D01*
X118026834Y-63110065D01*
X118296629Y-62706288D01*
X118365969Y-62357691D01*
X132334000Y-62357691D01*
X132334000Y-63214250D01*
X132492750Y-63373000D01*
X133858000Y-63373000D01*
X133858000Y-62007750D01*
X134112000Y-62007750D01*
X134112000Y-63373000D01*
X135477250Y-63373000D01*
X135636000Y-63214250D01*
X135636000Y-62357691D01*
X135539327Y-62124302D01*
X135360699Y-61945673D01*
X135127310Y-61849000D01*
X134270750Y-61849000D01*
X134112000Y-62007750D01*
X133858000Y-62007750D01*
X133699250Y-61849000D01*
X132842690Y-61849000D01*
X132609301Y-61945673D01*
X132430673Y-62124302D01*
X132334000Y-62357691D01*
X118365969Y-62357691D01*
X118391369Y-62230000D01*
X118296629Y-61753712D01*
X118026834Y-61349935D01*
X117623057Y-61080140D01*
X117146769Y-60985400D01*
X116787231Y-60985400D01*
X116627694Y-61017134D01*
X116723004Y-60921824D01*
X116787231Y-60934600D01*
X117146769Y-60934600D01*
X117623057Y-60839860D01*
X118026834Y-60570065D01*
X118296629Y-60166288D01*
X118391369Y-59690000D01*
X118296629Y-59213712D01*
X118026834Y-58809935D01*
X117623057Y-58540140D01*
X117146769Y-58445400D01*
X116787231Y-58445400D01*
X116310943Y-58540140D01*
X115907166Y-58809935D01*
X115637371Y-59213712D01*
X115542631Y-59690000D01*
X115615058Y-60054114D01*
X115130924Y-60538248D01*
X115131326Y-60077487D01*
X114845564Y-59385891D01*
X114316892Y-58856296D01*
X113625796Y-58569327D01*
X112877487Y-58568674D01*
X112185891Y-58854436D01*
X111656296Y-59383108D01*
X111503326Y-59751500D01*
X103296631Y-59751500D01*
X103145564Y-59385891D01*
X102616892Y-58856296D01*
X101925796Y-58569327D01*
X101177487Y-58568674D01*
X100485891Y-58854436D01*
X99956296Y-59383108D01*
X99669327Y-60074204D01*
X99668674Y-60822513D01*
X95327000Y-60822513D01*
X95327000Y-54472513D01*
X99668674Y-54472513D01*
X99954436Y-55164109D01*
X100483108Y-55693704D01*
X101174204Y-55980673D01*
X101922513Y-55981326D01*
X102614109Y-55695564D01*
X103143704Y-55166892D01*
X103296674Y-54798500D01*
X111503369Y-54798500D01*
X111654436Y-55164109D01*
X112183108Y-55693704D01*
X112874204Y-55980673D01*
X113622513Y-55981326D01*
X114113630Y-55778400D01*
X115562536Y-55778400D01*
X115562536Y-57505600D01*
X115589103Y-57646790D01*
X115672546Y-57776465D01*
X115799866Y-57863459D01*
X115951000Y-57894064D01*
X117983000Y-57894064D01*
X118124190Y-57867497D01*
X118253865Y-57784054D01*
X118340859Y-57656734D01*
X118371464Y-57505600D01*
X118371464Y-55778400D01*
X118344897Y-55637210D01*
X118261454Y-55507535D01*
X118134134Y-55420541D01*
X117983000Y-55389936D01*
X115951000Y-55389936D01*
X115809810Y-55416503D01*
X115680135Y-55499946D01*
X115593141Y-55627266D01*
X115562536Y-55778400D01*
X114113630Y-55778400D01*
X114314109Y-55695564D01*
X114843704Y-55166892D01*
X115130673Y-54475796D01*
X115130999Y-54102000D01*
X115542631Y-54102000D01*
X115637371Y-54578288D01*
X115907166Y-54982065D01*
X116310943Y-55251860D01*
X116787231Y-55346600D01*
X117146769Y-55346600D01*
X117623057Y-55251860D01*
X118026834Y-54982065D01*
X118296629Y-54578288D01*
X118391369Y-54102000D01*
X118296629Y-53625712D01*
X118026834Y-53221935D01*
X117623057Y-52952140D01*
X117146769Y-52857400D01*
X116787231Y-52857400D01*
X116310943Y-52952140D01*
X115907166Y-53221935D01*
X115637371Y-53625712D01*
X115542631Y-54102000D01*
X115130999Y-54102000D01*
X115131326Y-53727487D01*
X114845564Y-53035891D01*
X114316892Y-52506296D01*
X113625796Y-52219327D01*
X112877487Y-52218674D01*
X112185891Y-52504436D01*
X111656296Y-53033108D01*
X111503326Y-53401500D01*
X103296631Y-53401500D01*
X103145564Y-53035891D01*
X102616892Y-52506296D01*
X101925796Y-52219327D01*
X101177487Y-52218674D01*
X100485891Y-52504436D01*
X99956296Y-53033108D01*
X99669327Y-53724204D01*
X99668674Y-54472513D01*
X95327000Y-54472513D01*
X95327000Y-51562000D01*
X115542631Y-51562000D01*
X115637371Y-52038288D01*
X115907166Y-52442065D01*
X116310943Y-52711860D01*
X116787231Y-52806600D01*
X117146769Y-52806600D01*
X117623057Y-52711860D01*
X118026834Y-52442065D01*
X118296629Y-52038288D01*
X118391369Y-51562000D01*
X118296629Y-51085712D01*
X118026834Y-50681935D01*
X117623057Y-50412140D01*
X117146769Y-50317400D01*
X116787231Y-50317400D01*
X116310943Y-50412140D01*
X115907166Y-50681935D01*
X115637371Y-51085712D01*
X115542631Y-51562000D01*
X95327000Y-51562000D01*
X95327000Y-49263970D01*
X100215635Y-49263970D01*
X100375418Y-49582739D01*
X101166187Y-49892723D01*
X102015387Y-49876497D01*
X102724582Y-49582739D01*
X102884365Y-49263970D01*
X111865635Y-49263970D01*
X112025418Y-49582739D01*
X112816187Y-49892723D01*
X113665387Y-49876497D01*
X114374582Y-49582739D01*
X114534365Y-49263970D01*
X113200000Y-47929605D01*
X111865635Y-49263970D01*
X102884365Y-49263970D01*
X101550000Y-47929605D01*
X100215635Y-49263970D01*
X95327000Y-49263970D01*
X95327000Y-47366187D01*
X99407277Y-47366187D01*
X99423503Y-48215387D01*
X99717261Y-48924582D01*
X100036030Y-49084365D01*
X101370395Y-47750000D01*
X101729605Y-47750000D01*
X103063970Y-49084365D01*
X103382739Y-48924582D01*
X103692723Y-48133813D01*
X103678056Y-47366187D01*
X111057277Y-47366187D01*
X111073503Y-48215387D01*
X111367261Y-48924582D01*
X111686030Y-49084365D01*
X113020395Y-47750000D01*
X113379605Y-47750000D01*
X114713970Y-49084365D01*
X115032739Y-48924582D01*
X115342723Y-48133813D01*
X115326497Y-47284613D01*
X115032739Y-46575418D01*
X114713970Y-46415635D01*
X113379605Y-47750000D01*
X113020395Y-47750000D01*
X111686030Y-46415635D01*
X111367261Y-46575418D01*
X111057277Y-47366187D01*
X103678056Y-47366187D01*
X103676497Y-47284613D01*
X103382739Y-46575418D01*
X103063970Y-46415635D01*
X101729605Y-47750000D01*
X101370395Y-47750000D01*
X100036030Y-46415635D01*
X99717261Y-46575418D01*
X99407277Y-47366187D01*
X95327000Y-47366187D01*
X95327000Y-46236030D01*
X100215635Y-46236030D01*
X101550000Y-47570395D01*
X102884365Y-46236030D01*
X111865635Y-46236030D01*
X113200000Y-47570395D01*
X114534365Y-46236030D01*
X114374582Y-45917261D01*
X113583813Y-45607277D01*
X112734613Y-45623503D01*
X112025418Y-45917261D01*
X111865635Y-46236030D01*
X102884365Y-46236030D01*
X102724582Y-45917261D01*
X101933813Y-45607277D01*
X101084613Y-45623503D01*
X100375418Y-45917261D01*
X100215635Y-46236030D01*
X95327000Y-46236030D01*
X95327000Y-43727000D01*
X134273000Y-43727000D01*
X134273000Y-58600000D01*
M02*
