M48
INCH,TZ
T1C0.025
T2C0.030
T3C0.031
T4C0.032
T5C0.032
T6C0.035
T7C0.040
T8C0.045
T9C0.055
T10C0.063
T11C0.083
T12C0.091
T13C0.120
%
G90
G05
T1
X39700Y-24850
X40000Y-45450
X40350Y-25500
X41150Y-43550
X41600Y-45350
X42000Y-38850
X42250Y-47950
X42250Y-51400
X42900Y-47500
X44900Y-44900
X45350Y-44000
X45350Y-44750
X46600Y-47500
X46693Y-55000
X46900Y-39600
X47250Y-47850
X47250Y-51350
X49500Y-47950
X49500Y-51400
X51000Y-52100
X52250Y-42850
X52444Y-52150
X52500Y-35500
X53250Y-23750
X53500Y-39450
X53500Y-41500
X53750Y-23250
X53750Y-24250
X54000Y-42850
X54016Y-55000
X54200Y-24750
X54250Y-23750
X54500Y-47850
X54500Y-51300
X54750Y-24250
X55300Y-47700
X56450Y-32050
X56750Y-47900
X56750Y-51400
X57000Y-47150
X57700Y-28250
X58000Y-42850
X59100Y-28500
X59100Y-29400
X59350Y-26750
X59750Y-38400
X60150Y-37400
X60650Y-30350
X60650Y-31600
X60850Y-33225
X61000Y-35150
X61339Y-55000
X61500Y-39450
X61750Y-47800
X61750Y-51350
X62350Y-40300
X62500Y-35150
X62625Y-33250
X63250Y-35150
X63400Y-37400
X63650Y-32050
X63750Y-38400
X64000Y-35150
X64150Y-26750
X64600Y-31000
T2
X60750Y-25250
X62750Y-25250
T3
X54843Y-21220
X55827Y-21220
X56811Y-21220
T4
X41250Y-28000
X41250Y-30000
X41250Y-32250
X41250Y-34250
X45500Y-28000
X45500Y-30000
X45500Y-32250
X45500Y-34250
X49750Y-28000
X49750Y-30000
X49750Y-32250
X49750Y-34250
T5
X52750Y-27500
X52750Y-30500
X52750Y-31750
X52750Y-34750
X61154Y-22205
X61154Y-22992
X62154Y-22205
X62154Y-22992
T6
X43661Y-52953
X43661Y-53937
X44646Y-52953
X44646Y-53937
X45630Y-52953
X45630Y-53937
X50984Y-52953
X50984Y-53937
X51969Y-52953
X51969Y-53937
X52953Y-52953
X52953Y-53937
X58307Y-52953
X58307Y-53937
X59291Y-52953
X59291Y-53937
X60276Y-52953
X60276Y-53937
T7
X46050Y-20300
X46050Y-21300
X46050Y-22300
X46050Y-23500
X46050Y-24500
X46050Y-25500
X51000Y-46250
X52000Y-46250
X52750Y-25000
X52750Y-26000
X53000Y-46250
X58250Y-46250
X59250Y-46250
X60250Y-46250
T8
X49250Y-44500
X50250Y-44500
X51250Y-44500
X55000Y-44500
X56000Y-44500
X57000Y-44500
T9
X54750Y-26250
X54750Y-28250
X54750Y-32250
X54750Y-34250
T10
X39980Y-18799
X39980Y-21299
X39980Y-23799
X44567Y-18799
X44587Y-21299
X44587Y-23799
T11
X54016Y-22047
X55827Y-19685
X57638Y-22047
T12
X59292Y-21142
X64016Y-21142
T13
X50250Y-38000
X56000Y-38000
T0
M30
